<svg width="24" height="24" viewBox="0 0 24 24" fill="none" xmlns="http://www.w3.org/2000/svg">
<path d="M0 12C0 5.37258 5.37258 0 12 0C18.6274 0 24 5.37258 24 12C24 18.6274 18.6274 24 12 24C5.37258 24 0 18.6274 0 12Z" fill="#EFEEED"/>
<path d="M10.2498 15.791H13.7498M8.84984 6.16602H15.1498C15.4765 6.16602 15.6399 6.16602 15.7647 6.2296C15.8744 6.28552 15.9637 6.37476 16.0196 6.48452C16.0832 6.6093 16.0832 6.77265 16.0832 7.09935V8.30948C16.0832 8.59484 16.0832 8.73752 16.0509 8.87179C16.0224 8.99083 15.9752 9.10463 15.9113 9.20901C15.8391 9.32675 15.7382 9.42764 15.5364 9.62942L13.8265 11.3394C13.5955 11.5704 13.48 11.6859 13.4367 11.8191C13.3986 11.9362 13.3986 12.0625 13.4367 12.1796C13.48 12.3128 13.5955 12.4283 13.8265 12.6593L15.5364 14.3693C15.7382 14.5711 15.8391 14.6719 15.9113 14.7897C15.9752 14.8941 16.0224 15.0079 16.0509 15.1269C16.0832 15.2612 16.0832 15.4039 16.0832 15.6892V16.8993C16.0832 17.226 16.0832 17.3894 16.0196 17.5142C15.9637 17.6239 15.8744 17.7132 15.7647 17.7691C15.6399 17.8327 15.4765 17.8327 15.1498 17.8327H8.84984C8.52314 17.8327 8.35979 17.8327 8.23501 17.7691C8.12525 17.7132 8.03601 17.6239 7.98008 17.5142C7.9165 17.3894 7.9165 17.226 7.9165 16.8993V15.6892C7.9165 15.4039 7.9165 15.2612 7.94874 15.1269C7.97732 15.0079 8.02446 14.8941 8.08842 14.7897C8.16057 14.6719 8.26146 14.5711 8.46324 14.3693L10.1732 12.6593C10.4042 12.4283 10.5197 12.3128 10.563 12.1796C10.6011 12.0625 10.6011 11.9362 10.563 11.8191C10.5197 11.6859 10.4042 11.5704 10.1732 11.3394L8.46324 9.62942C8.26146 9.42764 8.16057 9.32675 8.08842 9.20901C8.02446 9.10463 7.97732 8.99083 7.94874 8.87179C7.9165 8.73752 7.9165 8.59484 7.9165 8.30948V7.09935C7.9165 6.77265 7.9165 6.6093 7.98008 6.48452C8.03601 6.37476 8.12525 6.28552 8.23501 6.2296C8.35979 6.16602 8.52314 6.16602 8.84984 6.16602Z" stroke="#C6C5C3" stroke-width="1.25" stroke-linecap="round" stroke-linejoin="round"/>
</svg>
