<svg width="98" height="49" viewBox="0 0 98 49" fill="none" xmlns="http://www.w3.org/2000/svg">
<g opacity="0.5">
<path d="M94.068 43.3833C83.2853 44.5065 71.9785 43.8513 67.6729 43.3833L64.0225 40.435L63.4609 34.3978L68.9365 32.9939L91.962 25.2718C92.5236 24.6166 93.9276 23.3905 95.0508 23.7274C96.174 24.0644 95.706 25.5526 95.3316 26.2546C95.7808 27.7148 98.0005 30.6528 96.182 39.9127L96.5971 40.6172C97.2515 41.728 96.532 43.1427 95.2488 43.268L94.068 43.3833Z" fill="#A0A0A0"/>
<path d="M63.5275 23.9931C61.4592 26.682 62.8036 36.9205 62.8036 36.9205C66.2164 36.9205 73.8362 36.9205 77.7994 36.9205C85.6815 36.9205 91.579 35.1361 92.0712 27.6128C92.7952 16.5469 85.6815 10.3418 77.7994 10.3418C69.9173 10.3418 63.5275 16.4537 63.5275 23.9931Z" fill="#D3D3D3"/>
<path d="M65.6755 37.1115C65.5347 36.6892 65.1395 36.4043 64.6943 36.4043H50.3746C49.5477 36.4043 49.0552 37.3267 49.5153 38.0139L54.3079 45.1718C54.4999 45.4585 54.8222 45.6306 55.1673 45.6306H67.0799C67.7857 45.6306 68.2842 44.9391 68.061 44.2694L65.6755 37.1115Z" fill="#D3D3D3"/>
<path d="M19.8825 37.489C19.9113 36.8987 19.4405 36.4043 18.8495 36.4043H5.79635C4.95814 36.4043 4.46813 37.3492 4.95103 38.0343L10.4908 45.8941C10.6845 46.169 10.9998 46.3325 11.3361 46.3325H18.4648C19.0163 46.3325 19.4708 45.8997 19.4977 45.3489L19.8825 37.489Z" fill="url(#paint0_linear_1778_30254)"/>
<path d="M19.8825 37.489C19.9113 36.8987 19.4405 36.4043 18.8495 36.4043H5.79635C4.95814 36.4043 4.46813 37.3492 4.95103 38.0343L10.4908 45.8941C10.6845 46.169 10.9998 46.3325 11.3361 46.3325H18.4648C19.0163 46.3325 19.4708 45.8997 19.4977 45.3489L19.8825 37.489Z" fill="url(#paint1_radial_1778_30254)" fill-opacity="0.2"/>
<path d="M67.0439 32.6813C67.0439 32.4528 66.8587 32.2676 66.6303 32.2676H4.57885C4.35038 32.2676 4.16517 32.4528 4.16517 32.6813V38.4727C4.16517 38.7012 4.35038 38.8864 4.57885 38.8864H66.6303C66.8587 38.8864 67.0439 38.7012 67.0439 38.4727V32.6813Z" fill="#6C6C6C"/>
<mask id="mask0_1778_30254" style="mask-type:alpha" maskUnits="userSpaceOnUse" x="4" y="0" width="62" height="33">
<path d="M4.99205 32.2676C4.99205 24.3979 8.17365 14.8182 13.8369 9.25345C19.5002 3.68873 27.1813 0.562501 35.1904 0.5625C43.1995 0.562499 50.8806 3.68873 56.5439 9.25345C62.2072 14.8182 65.4922 24.3979 65.4922 32.2676H35.1904H4.99205Z" fill="#D9D9D9"/>
</mask>
<g mask="url(#mask0_1778_30254)">
<path d="M23.6078 17.6348L29.1924 32.9792L13.9372 32.6744L23.6078 17.6348Z" fill="url(#paint2_linear_1778_30254)"/>
<path d="M50.8062 28.3038L49.8229 33.3848L66.0088 32.8767L65.4917 27.0844L50.8062 19.3613V28.3038Z" fill="url(#paint3_linear_1778_30254)"/>
<path d="M26.5026 11.2324H44.3941L51.2197 19.87V28.2028V32.7757L28.9846 32.9789L20.038 24.8494L26.5026 11.2324Z" fill="url(#paint4_linear_1778_30254)"/>
<path d="M51.2203 19.8699L44.3946 11.2323L52.6681 4.42383L63.4237 9.30154L65.3887 27.4914L51.2203 19.8699Z" fill="url(#paint5_linear_1778_30254)"/>
<path d="M3.02681 32.979L14.0401 32.7757L20.0384 24.8494L23.4004 18.1426L26.5029 11.2325L20.0909 4.11914L8.4046 11.9438L3.02681 32.979Z" fill="url(#paint6_linear_1778_30254)"/>
<path d="M44.3944 11.2319L52.668 4.42343L47.1868 -0.657524L30.1226 -1.87695L20.091 4.11857L26.503 11.2319H44.3944Z" fill="url(#paint7_linear_1778_30254)"/>
</g>
<path d="M2.03825 39.9382C2.68011 38.5594 4.16504 38.472 4.16504 38.472V33.6113C0.974441 34.0004 0.583581 37.9578 1.66716 39.9758C1.7485 40.1272 1.96569 40.0941 2.03825 39.9382Z" fill="#FFE594"/>
<path d="M2.03825 39.9382C2.68011 38.5594 4.16504 38.472 4.16504 38.472V33.6113C0.974441 34.0004 0.583581 37.9578 1.66716 39.9758C1.7485 40.1272 1.96569 40.0941 2.03825 39.9382Z" fill="url(#paint8_radial_1778_30254)" fill-opacity="0.4"/>
<path d="M26.8528 3.47862C26.6419 3.05969 26.4009 2.1087 27.124 1.65625" stroke="url(#paint9_linear_1778_30254)" stroke-width="0.364475" stroke-linecap="round"/>
<path d="M26.2657 3.61942C26.2627 3.15017 26.0924 2.56686 25.4238 2.44531" stroke="url(#paint10_linear_1778_30254)" stroke-width="0.364475" stroke-linecap="round"/>
<path d="M40.8267 7.97063C40.8237 7.50137 40.6726 7.03306 40.1553 6.72266" stroke="url(#paint11_linear_1778_30254)" stroke-width="0.364475" stroke-linecap="round"/>
<path d="M89.4332 15.3063L66.681 14.8926C65.0386 15.9437 63.9326 17.6551 63.6489 19.5843L63.5784 20.0635L92.1221 20.4772C92.0561 18.6288 91.2319 16.8891 89.8434 15.6673L89.4332 15.3063Z" fill="#848484"/>
<path d="M92.1221 20.7887L63.5784 20.375" stroke="#484848" stroke-width="0.620514"/>
<path d="M37.2062 0C57.7544 0 59.6701 7.01996 59.6701 35.0998C59.6701 46.0509 57.4237 47.0337 37.2062 47.0337C23.4471 47.0337 20.2179 47.0337 12.3555 47.0337C11.5131 47.0337 10.7926 47.0337 9.96876 47.0337C5.33558 47.0337 1.12354 46.3317 0.281146 42.1198C-0.0229814 40.5991 0.000416128 39.3118 0.000416128 37.9078C0.000391927 32.4322 0.000416128 31.4102 0.000416128 27.9394C0.000416128 12.5089 16.658 0 37.2062 0Z" fill="#D3D3D3"/>
<mask id="mask1_1778_30254" style="mask-type:alpha" maskUnits="userSpaceOnUse" x="0" y="0" width="62" height="49">
<path d="M37.2058 0C57.754 0 61.0737 10.4029 61.0737 25.8335C61.0737 41.264 57.1425 45.6297 37.2058 47.0337C23.4467 46.6125 20.3579 46.7529 12.4961 48.0779C11.7324 48.221 10.9326 48.2973 10.1087 48.2973C4.75846 48.2973 0.93174 46.0509 0.561597 41.9794C0.421198 40.435 0.561597 39.031 1.12319 37.7674C0 33.9766 0 31.4102 0 27.9394C0 12.5089 16.6576 0 37.2058 0Z" fill="#D9D9D9"/>
</mask>
<g mask="url(#mask1_1778_30254)">
<path d="M24.091 42.2655C24.0725 42.037 24.3208 41.8837 24.5167 42.0027L25.9026 42.8448C25.9793 42.8914 26.0737 42.8985 26.1565 42.8639L27.6532 42.2395C27.8648 42.1513 28.0872 42.3401 28.0346 42.5632L27.6621 44.1415C27.6414 44.2288 27.6638 44.3208 27.7223 44.3889L28.7786 45.6193C28.9279 45.7933 28.8171 46.0632 28.5887 46.0821L26.9725 46.2155C26.883 46.2229 26.8025 46.2726 26.7558 46.3492L25.912 47.7341C25.7927 47.9299 25.5018 47.9079 25.4132 47.6964L24.7869 46.2006C24.7522 46.1178 24.6801 46.0566 24.5927 46.0358L23.0149 45.6613C22.7919 45.6083 22.7228 45.3248 22.8966 45.1753L24.1257 44.1174C24.1937 44.0588 24.2296 43.9713 24.2224 43.8818L24.091 42.2655Z" fill="#AAAAAA"/>
<path d="M24.091 42.2655C24.0725 42.037 24.3208 41.8837 24.5167 42.0027L25.9026 42.8448C25.9793 42.8914 26.0737 42.8985 26.1565 42.8639L27.6532 42.2395C27.8648 42.1513 28.0872 42.3401 28.0346 42.5632L27.6621 44.1415C27.6414 44.2288 27.6638 44.3208 27.7223 44.3889L28.7786 45.6193C28.9279 45.7933 28.8171 46.0632 28.5887 46.0821L26.9725 46.2155C26.883 46.2229 26.8025 46.2726 26.7558 46.3492L25.912 47.7341C25.7927 47.9299 25.5018 47.9079 25.4132 47.6964L24.7869 46.2006C24.7522 46.1178 24.6801 46.0566 24.5927 46.0358L23.0149 45.6613C22.7919 45.6083 22.7228 45.3248 22.8966 45.1753L24.1257 44.1174C24.1937 44.0588 24.2296 43.9713 24.2224 43.8818L24.091 42.2655Z" fill="#AAAAAA"/>
<path d="M20.0784 27.9152C20.2046 27.7238 20.4946 27.756 20.5756 27.9704L21.1488 29.4874C21.1806 29.5714 21.2505 29.6351 21.3371 29.6589L22.9007 30.0888C23.1218 30.1496 23.1808 30.4354 23.0018 30.5787L21.7362 31.5926C21.6662 31.6488 21.6272 31.735 21.6313 31.8247L21.7056 33.4446C21.7161 33.6736 21.4626 33.818 21.271 33.6922L19.9156 32.8019C19.8405 32.7526 19.7465 32.7421 19.6625 32.7738L18.1448 33.345C17.9302 33.4258 17.7145 33.2293 17.775 33.0081L18.2029 31.444C18.2266 31.3574 18.2075 31.2647 18.1514 31.1946L17.1391 29.9277C16.996 29.7486 17.1163 29.4827 17.3453 29.4719L18.9651 29.3955C19.0548 29.3913 19.137 29.3444 19.1864 29.2695L20.0784 27.9152Z" fill="#AAAAAA"/>
<path d="M48.5511 20.0344C48.6772 19.8429 48.9672 19.8751 49.0483 20.0896L49.6215 21.6065C49.6532 21.6905 49.7232 21.7542 49.8097 21.778L51.3734 22.208C51.5944 22.2687 51.6534 22.5545 51.4745 22.6978L50.2089 23.7118C50.1389 23.7679 50.0999 23.8541 50.104 23.9438L50.1783 25.5637C50.1888 25.7928 49.9352 25.9372 49.7436 25.8113L48.3882 24.921C48.3132 24.8717 48.2191 24.8613 48.1351 24.8929L46.6174 25.4642C46.4029 25.5449 46.1872 25.3484 46.2477 25.1273L46.6756 23.5631C46.6993 23.4765 46.6801 23.3838 46.6241 23.3137L45.6118 22.0468C45.4687 21.8677 45.5889 21.6019 45.8179 21.5911L47.4378 21.5147C47.5274 21.5104 47.6097 21.4636 47.659 21.3886L48.5511 20.0344Z" fill="#AAAAAA"/>
<path d="M40.0931 1.64363C40.0845 1.41453 40.3393 1.2723 40.5299 1.39981L41.8776 2.30171C41.9522 2.35163 42.0461 2.36288 42.1304 2.33199L43.6529 1.77374C43.8682 1.69482 44.0822 1.89318 44.0198 2.11379L43.5785 3.67425C43.5541 3.76062 43.5724 3.85346 43.6279 3.92406L44.6293 5.19958C44.7708 5.37991 44.6483 5.64473 44.4192 5.65357L42.7988 5.71608C42.7091 5.71954 42.6265 5.76567 42.5764 5.8402L41.6728 7.18676C41.545 7.37713 41.2553 7.34244 41.1761 7.12729L40.6159 5.60546C40.5849 5.52123 40.5155 5.4569 40.4292 5.43236L38.8693 4.98906C38.6487 4.92639 38.5922 4.64013 38.7724 4.49832L40.0466 3.49527C40.1171 3.43975 40.1569 3.35386 40.1535 3.26417L40.0931 1.64363Z" fill="#AAAAAA"/>
<path d="M17.4084 2.54819C17.312 2.34015 17.4921 2.11057 17.7171 2.15461L19.3086 2.46615C19.3967 2.4834 19.4877 2.45749 19.5535 2.39645L20.7424 1.29358C20.9105 1.13766 21.1845 1.238 21.2121 1.46559L21.4076 3.07542C21.4184 3.16453 21.4712 3.24309 21.5496 3.28681L22.9658 4.0767C23.1661 4.18838 23.1553 4.47997 22.9474 4.57659L21.4768 5.25998C21.3954 5.2978 21.337 5.37226 21.3196 5.46032L21.006 7.05137C20.9617 7.27631 20.681 7.35619 20.5249 7.18831L19.4205 6.00083C19.3594 5.93511 19.2705 5.90257 19.1814 5.91327L17.5713 6.1067C17.3437 6.13405 17.181 5.89182 17.2924 5.69145L18.0805 4.27416C18.1241 4.19571 18.1276 4.10114 18.0899 4.01969L17.4084 2.54819Z" fill="#AAAAAA"/>
<path d="M7.72187 37.6014C7.75488 37.3745 8.03117 37.2806 8.19552 37.4405L9.35799 38.5712C9.42233 38.6338 9.51272 38.6618 9.60119 38.6467L11.1996 38.3728C11.4255 38.3341 11.6002 38.5679 11.4989 38.7736L10.7828 40.2286C10.7432 40.3091 10.7444 40.4037 10.7862 40.4832L11.5405 41.9187C11.6471 42.1217 11.4788 42.36 11.2518 42.3273L9.64679 42.0958C9.55795 42.083 9.46834 42.1134 9.40568 42.1777L8.27351 43.3387C8.11344 43.5029 7.83477 43.4164 7.79577 43.1905L7.5199 41.5924C7.50463 41.504 7.448 41.4282 7.36752 41.3884L5.91346 40.6704C5.70789 40.5689 5.70404 40.2772 5.90685 40.1703L7.34141 39.4141C7.42082 39.3722 7.47543 39.2949 7.48835 39.2061L7.72187 37.6014Z" fill="#AAAAAA"/>
<path d="M7.72187 37.6014C7.75488 37.3745 8.03117 37.2806 8.19552 37.4405L9.35799 38.5712C9.42233 38.6338 9.51272 38.6618 9.60119 38.6467L11.1996 38.3728C11.4255 38.3341 11.6002 38.5679 11.4989 38.7736L10.7828 40.2286C10.7432 40.3091 10.7444 40.4037 10.7862 40.4832L11.5405 41.9187C11.6471 42.1217 11.4788 42.36 11.2518 42.3273L9.64679 42.0958C9.55795 42.083 9.46834 42.1134 9.40568 42.1777L8.27351 43.3387C8.11344 43.5029 7.83477 43.4164 7.79577 43.1905L7.5199 41.5924C7.50463 41.504 7.448 41.4282 7.36752 41.3884L5.91346 40.6704C5.70789 40.5689 5.70404 40.2772 5.90685 40.1703L7.34141 39.4141C7.42082 39.3722 7.47543 39.2949 7.48835 39.2061L7.72187 37.6014Z" fill="#AAAAAA"/>
<path d="M14.509 16.3891C14.7364 16.4179 14.8354 16.6924 14.6787 16.8597L13.5699 18.0431C13.5085 18.1086 13.4822 18.1994 13.499 18.2876L13.8026 19.8806C13.8455 20.1058 13.6151 20.2848 13.4075 20.1874L11.9394 19.4986C11.8581 19.4605 11.7636 19.4635 11.6849 19.5067L10.2637 20.2877C10.0628 20.3982 9.82136 20.2343 9.84984 20.0068L10.0513 18.3977C10.0624 18.3086 10.0303 18.2196 9.96489 18.1581L8.78291 17.0479C8.61581 16.8909 8.69708 16.6106 8.92223 16.5674L10.5148 16.2617C10.603 16.2448 10.6777 16.1868 10.716 16.1056L11.4066 14.6384C11.5043 14.4309 11.7959 14.4216 11.9066 14.6224L12.6895 16.0426C12.7328 16.1212 12.8111 16.1743 12.9001 16.1856L14.509 16.3891Z" fill="#AAAAAA"/>
<path d="M36.1609 15.0174C36.3503 15.1466 36.3134 15.436 36.0976 15.5136L34.5715 16.062C34.4871 16.0924 34.4222 16.1613 34.397 16.2474L33.9417 17.8038C33.8773 18.0239 33.5906 18.0782 33.4502 17.897L32.457 16.615C32.402 16.5441 32.3164 16.5037 32.2267 16.5063L30.6058 16.5543C30.3766 16.5611 30.2364 16.3052 30.3653 16.1156L31.2776 14.7749C31.3281 14.7007 31.3401 14.6068 31.3098 14.5223L30.7633 12.9955C30.6861 12.7797 30.8861 12.5672 31.1062 12.6313L32.6632 13.0846C32.7494 13.1097 32.8424 13.0921 32.9134 13.0372L34.1966 12.0456C34.378 11.9055 34.6419 12.03 34.649 12.2592L34.699 13.8801C34.7017 13.9698 34.7472 14.0528 34.8214 14.1034L36.1609 15.0174Z" fill="#AAAAAA"/>
<path d="M47.1072 36.6326C47.2966 36.7618 47.2597 37.0513 47.0439 37.1288L45.5178 37.6772C45.4333 37.7076 45.3685 37.7765 45.3433 37.8626L44.888 39.4191C44.8236 39.6391 44.5369 39.6934 44.3965 39.5122L43.4033 38.2303C43.3483 38.1593 43.2627 38.1189 43.173 38.1216L41.5521 38.1695C41.3229 38.1763 41.1826 37.9204 41.3116 37.7309L42.2239 36.3901C42.2744 36.3159 42.2864 36.2221 42.2561 36.1376L41.7096 34.6108C41.6324 34.3949 41.8324 34.1824 42.0525 34.2465L43.6095 34.6998C43.6957 34.7249 43.7887 34.7073 43.8597 34.6524L45.1429 33.6609C45.3243 33.5207 45.5882 33.6453 45.5952 33.8744L45.6453 35.4953C45.648 35.585 45.6935 35.668 45.7677 35.7186L47.1072 36.6326Z" fill="#AAAAAA"/>
</g>
<path d="M60.8982 46.7538H49.7291C49.0468 46.7538 48.5223 46.1519 48.6074 45.4749C50.4858 30.5457 49.4876 10.179 48.5779 1.26367C51.3607 1.26381 56.4227 2.63064 59.041 4.54488C59.5795 4.93859 59.9596 5.49289 60.1751 6.12425C62.7822 13.7658 62.7318 36.7359 62.0055 45.7469C61.9591 46.3226 61.4757 46.7538 60.8982 46.7538Z" fill="#B9B9B9"/>
<path d="M85.3623 26.3155C84.5667 26.9239 82.9755 27.7195 81.1503 26.3155" stroke="#404040" stroke-linecap="round"/>
</g>
<defs>
<linearGradient id="paint0_linear_1778_30254" x1="19.8502" y1="38.3434" x2="7.55529" y2="46.6914" gradientUnits="userSpaceOnUse">
<stop stop-color="#FFECB3"/>
<stop offset="1" stop-color="#FFE28A"/>
</linearGradient>
<radialGradient id="paint1_radial_1778_30254" cx="0" cy="0" r="1" gradientTransform="matrix(-8.10937 -6.28271 -10.2094 10.8802 15.9235 45.8671)" gradientUnits="userSpaceOnUse">
<stop stop-color="#FFAE00" stop-opacity="0"/>
<stop offset="1" stop-color="#FFAE00"/>
</radialGradient>
<linearGradient id="paint2_linear_1778_30254" x1="21.5902" y1="22.3092" x2="11.8011" y2="58.5262" gradientUnits="userSpaceOnUse">
<stop stop-color="#724100"/>
<stop offset="1" stop-color="#D87A00"/>
</linearGradient>
<linearGradient id="paint3_linear_1778_30254" x1="51.9947" y1="18.2435" x2="69.4546" y2="44.8461" gradientUnits="userSpaceOnUse">
<stop stop-color="#434343"/>
<stop offset="1" stop-color="#B1B1B1"/>
</linearGradient>
<linearGradient id="paint4_linear_1778_30254" x1="47.2372" y1="7.06604" x2="5.96337" y2="82.7774" gradientUnits="userSpaceOnUse">
<stop stop-color="#995E0C"/>
<stop offset="1" stop-color="#D87A00"/>
</linearGradient>
<linearGradient id="paint5_linear_1778_30254" x1="60.1652" y1="10.2161" x2="31.7978" y2="28.0383" gradientUnits="userSpaceOnUse">
<stop stop-color="#B6B6B6"/>
<stop offset="1" stop-color="#333333"/>
</linearGradient>
<linearGradient id="paint6_linear_1778_30254" x1="28.1051" y1="9.70819" x2="5.61657" y2="18.5115" gradientUnits="userSpaceOnUse">
<stop stop-color="#BF8012"/>
<stop offset="1" stop-color="#8F5607"/>
</linearGradient>
<linearGradient id="paint7_linear_1778_30254" x1="55.874" y1="3.00076" x2="17.4756" y2="35.484" gradientUnits="userSpaceOnUse">
<stop stop-color="#A7B60F"/>
<stop offset="1" stop-color="#717B04"/>
</linearGradient>
<radialGradient id="paint8_radial_1778_30254" cx="0" cy="0" r="1" gradientUnits="userSpaceOnUse" gradientTransform="translate(1.7864 39.4028) rotate(-65.6589) scale(4.76738 4.13173)">
<stop stop-color="#EAB50D"/>
<stop offset="1" stop-color="#FFD551" stop-opacity="0"/>
</radialGradient>
<linearGradient id="paint9_linear_1778_30254" x1="27.0336" y1="0.713642" x2="28.223" y2="2.5073" gradientUnits="userSpaceOnUse">
<stop stop-color="#6E7B02"/>
<stop offset="1" stop-color="#909D0B"/>
</linearGradient>
<linearGradient id="paint10_linear_1778_30254" x1="24.845" y1="1.23891" x2="24.6028" y2="3.37841" gradientUnits="userSpaceOnUse">
<stop stop-color="#6E7B02"/>
<stop offset="1" stop-color="#909D0B"/>
</linearGradient>
<linearGradient id="paint11_linear_1778_30254" x1="39.4062" y1="5.59052" x2="39.1639" y2="7.73002" gradientUnits="userSpaceOnUse">
<stop stop-color="#6E7B02"/>
<stop offset="1" stop-color="#A5AB0E"/>
</linearGradient>
</defs>
</svg>
