<svg width="24" height="24" viewBox="0 0 24 24" fill="none" xmlns="http://www.w3.org/2000/svg">
<path d="M0 12C0 5.37258 5.37258 0 12 0C18.6274 0 24 5.37258 24 12C24 18.6274 18.6274 24 12 24C5.37258 24 0 18.6274 0 12Z" fill="#EFEEED"/>
<g clip-path="url(#clip0_2576_32201)">
<path d="M9.08317 17.8327V11.416M6.1665 12.5827V16.666C6.1665 17.3103 6.68884 17.8327 7.33317 17.8327H15.1651C16.0289 17.8327 16.7635 17.2025 16.8948 16.3488L17.523 12.2654C17.6861 11.2054 16.8659 10.2493 15.7934 10.2493H13.7498C13.4277 10.2493 13.1665 9.98818 13.1665 9.66602V7.60442C13.1665 6.81001 12.5225 6.16602 11.7281 6.16602C11.5386 6.16602 11.3669 6.2776 11.29 6.45075L9.23713 11.0696C9.14351 11.2803 8.9346 11.416 8.70408 11.416H7.33317C6.68884 11.416 6.1665 11.9384 6.1665 12.5827Z" stroke="#C6C5C3" stroke-width="1.25" stroke-linecap="round" stroke-linejoin="round"/>
</g>
<defs>
<clipPath id="clip0_2576_32201">
<rect width="14" height="14" fill="white" transform="translate(5 5)"/>
</clipPath>
</defs>
</svg>
