<svg width="352" height="421" viewBox="0 0 352 421" fill="none" xmlns="http://www.w3.org/2000/svg">
<path d="M164.83 313.207L146.423 316.547L150.118 354.573L164.83 354.573L164.83 313.207Z" fill="#F0AA00"/>
<path d="M164.902 348.887H149.55L150.118 354.573H164.902V348.887Z" fill="url(#paint0_linear_3473_45472)"/>
<path d="M203.212 314.332L184.022 314.332L191.058 353.863L203.212 353.863L203.212 314.332Z" fill="#F0AA00"/>
<path d="M203.284 348.887H190.206L191.152 354.573H203.284L203.284 348.887Z" fill="#7B7B7B"/>
<path d="M203.284 348.887H190.206L191.152 354.573H203.284L203.284 348.887Z" fill="url(#paint1_linear_3473_45472)"/>
<path d="M217.399 313.342L196.747 313.335L206.342 354.525L217.399 354.525L217.399 313.342Z" fill="#FFBE2B"/>
<path d="M217.405 348.887H205.024L205.986 354.573L217.405 354.532V348.887Z" fill="#A6A6A6"/>
<path d="M217.405 348.887H205.024L205.986 354.573L217.405 354.532V348.887Z" fill="url(#paint2_linear_3473_45472)"/>
<path d="M150.76 315.481L130.786 312.354L133.131 354.574L146.28 354.574L150.76 315.481Z" fill="#FFC135"/>
<path d="M146.991 348.888H132.775L133.131 354.574H146.277L146.991 348.888Z" fill="url(#paint3_linear_3473_45472)"/>
<path d="M104.397 301.064C103.686 294.43 107.098 279.528 119.323 272.989" stroke="url(#paint4_linear_3473_45472)" stroke-width="2.84307" stroke-linecap="round"/>
<rect width="4.2646" height="8.5292" transform="matrix(-1 0 0 1 206.037 156.068)" fill="#331E01"/>
<rect width="4.2646" height="8.5292" transform="matrix(-1 0 0 1 193.953 156.068)" fill="#331E01"/>
<path d="M97.9998 307.817C97.9998 311.546 100.132 315.28 105.818 317.767C108.661 313.503 111.504 311.546 111.504 307.817C111.504 304.088 108.481 301.064 104.752 301.064C101.023 301.064 97.9998 304.088 97.9998 307.817Z" fill="url(#paint5_linear_3473_45472)"/>
<g filter="url(#filter0_i_3473_45472)">
<path d="M229.457 166.937L223.45 179.523L201.417 163.886H227.533C229.101 163.886 230.133 165.522 229.457 166.937Z" fill="#FFAE00"/>
</g>
<g filter="url(#filter1_i_3473_45472)">
<path d="M140.646 261.265C140.528 261.264 140.41 261.261 140.291 261.261C124.393 261.261 111.505 274.15 111.505 290.048C111.505 305.946 124.393 318.834 140.291 318.834C140.41 318.834 140.528 318.83 140.646 318.829V318.834H201.062V318.829C216.796 318.638 229.492 305.827 229.492 290.048C229.492 274.268 216.796 261.456 201.062 261.265V261.261H140.646V261.265Z" fill="url(#paint6_linear_3473_45472)"/>
</g>
<path d="M180.094 163.886C174.053 171.897 172.631 175.171 172.631 191.052L172.654 191.04C172.641 191.391 172.63 191.743 172.63 192.097C172.63 192.214 172.634 192.33 172.635 192.446H172.631V255.485L196.797 269.765L227.644 276.732L229.493 288.957V198.345C229.956 196.336 230.203 194.245 230.203 192.097C230.203 176.633 217.507 164.077 201.773 163.89V163.886H180.094Z" fill="url(#paint7_linear_3473_45472)"/>
<path d="M180.094 163.886C174.053 171.897 172.631 175.171 172.631 191.052L172.654 191.04C172.641 191.391 172.63 191.743 172.63 192.097C172.63 192.214 172.634 192.33 172.635 192.446H172.631V255.485L196.797 269.765L227.644 276.732L229.493 288.957V198.345C229.956 196.336 230.203 194.245 230.203 192.097C230.203 176.633 217.507 164.077 201.773 163.89V163.886H180.094Z" fill="url(#paint8_linear_3473_45472)"/>
<path d="M159.337 167.602L173.342 180.234L180.449 163.886H160.765C158.812 163.886 157.886 166.294 159.337 167.602Z" fill="url(#paint9_linear_3473_45472)"/>
<mask id="mask0_3473_45472" style="mask-type:alpha" maskUnits="userSpaceOnUse" x="158" y="163" width="23" height="18">
<path d="M159.337 167.602L173.342 180.234L180.449 163.886H160.765C158.812 163.886 157.886 166.294 159.337 167.602Z" fill="#D9D9D9"/>
</mask>
<g mask="url(#mask0_3473_45472)">
<path d="M176.678 168.151L172.998 180.234L157.487 168.151H176.678Z" fill="url(#paint10_linear_3473_45472)"/>
</g>
<g filter="url(#filter2_i_3473_45472)">
<mask id="mask1_3473_45472" style="mask-type:alpha" maskUnits="userSpaceOnUse" x="111" y="163" width="120" height="156">
<path d="M180.095 163.886C174.053 171.897 172.632 175.171 172.632 191.052L172.654 191.04C172.641 191.391 172.631 191.743 172.631 192.097C172.631 192.214 172.634 192.33 172.636 192.446H172.632V255.485L182.407 261.261H140.647V261.265C140.529 261.264 140.411 261.261 140.292 261.261C124.394 261.261 111.506 274.15 111.506 290.048C111.506 305.946 124.394 318.834 140.292 318.834C140.411 318.834 140.529 318.83 140.647 318.829V318.834H201.062V318.829C216.797 318.638 229.493 305.827 229.493 290.048C229.493 290.02 229.492 289.992 229.492 289.964L229.493 289.966V198.345C229.957 196.336 230.203 194.245 230.203 192.097C230.203 176.634 217.507 164.077 201.773 163.89V163.886H180.095Z" fill="url(#paint11_linear_3473_45472)"/>
</mask>
<g mask="url(#mask1_3473_45472)">
<path d="M164.813 180.59C164.813 193.544 169.162 203.334 183.293 203.334C203.55 205.111 207.104 193.544 207.104 180.59C207.104 167.636 202.4 160.333 188.269 160.333C174.137 160.333 164.813 167.636 164.813 180.59Z" fill="#AD6500"/>
<path d="M202.839 223.947C198.575 223.236 197.864 225.013 194.31 228.567C192.178 231.41 191.467 232.806 191.467 235.319C191.467 236.03 191.822 242.874 198.93 243.137C206.606 243.422 208.881 238.692 208.881 234.253C208.881 228.211 207.104 224.657 202.839 223.947Z" fill="#AD6500"/>
<path d="M163.815 245.97C153.058 245.97 134.605 243.138 133.895 263.749C133.596 272.418 140.291 269.791 145.267 277.965C151.664 286.849 157.583 286.85 163.815 286.85C174.573 286.85 183.293 277.698 183.293 266.409C183.293 255.121 174.573 245.97 163.815 245.97Z" fill="#AD6500"/>
<path d="M120.746 269.08C120.746 271.828 123.132 272.989 126.077 272.989C129.021 272.989 131.763 271.828 131.763 269.08C131.763 264.815 129.376 263.749 126.432 263.749C123.488 263.749 120.746 266.332 120.746 269.08Z" fill="#AD6500"/>
<path d="M132.829 279.878C132.829 281.78 134.214 282.585 135.924 282.585C137.633 282.585 139.226 281.78 139.226 279.878C139.226 276.926 137.84 276.188 136.13 276.188C134.421 276.188 132.829 277.976 132.829 279.878Z" fill="#AD6500"/>
<path d="M190.045 209.02C190.045 211.768 191.112 215.417 196.442 215.773C199.386 215.773 200.352 213.19 200.352 210.442C200.352 207.694 197.965 205.111 195.021 205.111C192.077 205.111 190.045 206.272 190.045 209.02Z" fill="#AD6500"/>
<path d="M149.887 218.26C149.887 226.7 161.789 234.253 171.21 234.253C180.631 234.253 182.583 227.145 184.359 218.26C186.136 209.376 176.367 202.979 166.946 202.979C157.525 202.979 149.887 209.821 149.887 218.26Z" fill="#AD6500"/>
</g>
</g>
<path d="M169.787 254.865L166.944 250.955" stroke="url(#paint12_linear_3473_45472)" stroke-width="1.42153" stroke-linecap="round"/>
<circle cx="3.55383" cy="3.55383" r="3.55383" transform="matrix(-1 0 0 1 195.375 151.093)" fill="url(#paint13_linear_3473_45472)"/>
<circle cx="3.55383" cy="3.55383" r="3.55383" transform="matrix(-1 0 0 1 207.458 151.093)" fill="url(#paint14_linear_3473_45472)"/>
<circle cx="156.386" cy="260.716" r="5.85119" fill="#EDEDED"/>
<path d="M131.602 206.486C132.855 205.886 134.135 206.813 134.521 208.148C139.43 225.163 150.922 236.074 159.135 241.154C165.703 243.84 170.853 249.594 170.854 257.041C170.854 259.732 170.207 262.271 169.062 264.512L168.705 265.347C167.939 266.637 167.496 267.272 166.477 268.209C163.474 271.451 159.182 273.481 154.415 273.481C152.96 273.481 151.549 273.29 150.205 272.935C146.555 272.772 143.184 272.085 140.812 271.346C133.157 269.139 134.806 264.564 136.588 262.553C123.485 259.449 125.808 254.721 130.252 251.97C120.725 249.38 117.081 238.858 117.236 232.963C117.285 231.102 119.042 230.06 120.898 230.209L126.502 230.658C121.653 215.749 127.224 208.585 131.602 206.486Z" fill="#D1EDFF"/>
<path d="M131.602 206.486C132.855 205.886 134.135 206.813 134.521 208.148C139.43 225.163 150.922 236.074 159.135 241.154C165.703 243.84 170.853 249.594 170.854 257.041C170.854 259.732 170.207 262.271 169.062 264.512L168.705 265.347C167.939 266.637 167.496 267.272 166.477 268.209C163.474 271.451 159.182 273.481 154.415 273.481C152.96 273.481 151.549 273.29 150.205 272.935C146.555 272.772 143.184 272.085 140.812 271.346C133.157 269.139 134.806 264.564 136.588 262.553C123.485 259.449 125.808 254.721 130.252 251.97C120.725 249.38 117.081 238.858 117.236 232.963C117.285 231.102 119.042 230.06 120.898 230.209L126.502 230.658C121.653 215.749 127.224 208.585 131.602 206.486Z" fill="url(#paint15_radial_3473_45472)" fill-opacity="0.5"/>
<path d="M131.602 206.486C132.855 205.886 134.135 206.813 134.521 208.148C139.43 225.163 150.922 236.074 159.135 241.154C165.703 243.84 170.853 249.594 170.854 257.041C170.854 259.732 170.207 262.271 169.062 264.512L168.705 265.347C167.939 266.637 167.496 267.272 166.477 268.209C163.474 271.451 159.182 273.481 154.415 273.481C152.96 273.481 151.549 273.29 150.205 272.935C146.555 272.772 143.184 272.085 140.812 271.346C133.157 269.139 134.806 264.564 136.588 262.553C123.485 259.449 125.808 254.721 130.252 251.97C120.725 249.38 117.081 238.858 117.236 232.963C117.285 231.102 119.042 230.06 120.898 230.209L126.502 230.658C121.653 215.749 127.224 208.585 131.602 206.486Z" fill="url(#paint16_linear_3473_45472)" fill-opacity="0.2"/>
<g filter="url(#filter3_i_3473_45472)">
<path d="M196.184 129.779C202.408 129.779 207.96 130.838 211.89 132.481C213.858 133.305 215.336 134.24 216.294 135.188C217.245 136.128 217.587 136.975 217.587 137.696C217.587 138.418 217.245 139.264 216.294 140.205C215.336 141.152 213.858 142.087 211.89 142.91C207.96 144.554 202.408 145.612 196.184 145.612C189.959 145.612 184.406 144.554 180.477 142.91C178.508 142.087 177.031 141.152 176.073 140.205C175.122 139.264 174.779 138.418 174.779 137.696C174.779 136.975 175.122 136.128 176.073 135.188C177.031 134.24 178.508 133.305 180.477 132.481C184.406 130.838 189.959 129.779 196.184 129.779Z" stroke="#FFC310" stroke-width="3.55921"/>
</g>
<mask id="mask2_3473_45472" style="mask-type:alpha" maskUnits="userSpaceOnUse" x="117" y="206" width="54" height="68">
<path d="M131.602 206.486C132.855 205.886 134.135 206.813 134.521 208.148C139.43 225.163 150.922 236.074 159.135 241.154C165.703 243.84 170.853 249.594 170.854 257.041C170.854 259.732 170.207 262.271 169.062 264.512L168.705 265.347C167.939 266.637 167.496 267.272 166.477 268.209C163.474 271.451 159.182 273.481 154.415 273.481C152.96 273.481 151.549 273.29 150.205 272.935C146.555 272.772 143.184 272.085 140.812 271.346C133.157 269.139 134.806 264.564 136.588 262.553C123.485 259.449 125.808 254.721 130.252 251.97C120.725 249.38 117.081 238.858 117.236 232.963C117.285 231.102 119.042 230.06 120.898 230.209L126.502 230.658C121.653 215.749 127.224 208.585 131.602 206.486Z" fill="#D9D9D9"/>
</mask>
<g mask="url(#mask2_3473_45472)">
<path d="M162.929 260.755C162.911 258.164 159.101 253.606 154.947 255.346C151.879 256.632 149.696 259.144 151.293 264.874C153.275 270.895 158.593 272.872 166.456 269.752" stroke="url(#paint17_linear_3473_45472)" stroke-width="2.27445" stroke-linecap="round"/>
<path d="M134.797 206.024C130.985 207.521 123.201 212.541 126.702 230.163" stroke="url(#paint18_linear_3473_45472)" stroke-width="3.41168"/>
<path d="M121.086 227.757C114.257 235.391 123.8 246.845 128.634 253.038" stroke="url(#paint19_linear_3473_45472)" stroke-width="3.41168"/>
</g>
<path d="M196.784 285.652C203.351 287.887 210.352 281.034 213.031 277.329L188.425 265.268L172.182 261.006C179.647 278.516 191.693 284.732 196.784 285.652Z" fill="white"/>
<path d="M196.784 285.652C203.351 287.887 210.352 281.034 213.031 277.329L188.425 265.268L172.182 261.006C179.647 278.516 191.693 284.732 196.784 285.652Z" fill="url(#paint20_linear_3473_45472)"/>
<path d="M233.33 288.388C229.654 289.752 221.673 280.428 219.695 277.515L219.028 274.476L232.221 268.918C233.703 269.629 233.726 271.912 234.467 273.32C235.505 276.038 237.006 287.025 233.33 288.388Z" fill="url(#paint21_linear_3473_45472)"/>
<path d="M212.623 292.177C214.086 290.248 216.878 284.609 216.335 277.487" stroke="url(#paint22_linear_3473_45472)" stroke-width="1.13723"/>
<path d="M226.275 290.62C225.085 284.692 216.926 276.732 217.409 276.732" stroke="url(#paint23_linear_3473_45472)" stroke-width="1.13723"/>
<circle cx="211.375" cy="297.404" r="6.07844" fill="url(#paint24_radial_3473_45472)"/>
<circle cx="211.375" cy="297.404" r="6.07844" fill="url(#paint25_linear_3473_45472)" fill-opacity="0.2"/>
<circle cx="228.17" cy="294.99" r="6.07844" fill="#D9D9D9"/>
<circle cx="228.17" cy="294.99" r="6.07844" fill="url(#paint26_radial_3473_45472)"/>
<circle cx="228.17" cy="294.99" r="6.07844" fill="url(#paint27_linear_3473_45472)" fill-opacity="0.2"/>
<circle cx="20.2569" cy="20.2569" r="20.2569" transform="matrix(-1 0 0 1 245.84 181.656)" fill="url(#paint28_radial_3473_45472)"/>
<circle cx="20.2569" cy="20.2569" r="20.2569" transform="matrix(-1 0 0 1 245.84 181.656)" fill="url(#paint29_radial_3473_45472)" fill-opacity="0.5"/>
<ellipse cx="2.48768" cy="2.84307" rx="2.48768" ry="2.84307" transform="matrix(-1 0 0 1 233.046 200.135)" fill="url(#paint30_linear_3473_45472)"/>
<ellipse cx="2.48768" cy="2.84307" rx="2.48768" ry="2.84307" transform="matrix(-1 0 0 1 241.575 200.135)" fill="url(#paint31_linear_3473_45472)"/>
<path d="M230.054 262.46C204.056 274.381 182.658 258.384 172.634 253.444L171.286 260.306C194.021 279.901 222.647 280.163 230.054 274.788C235.889 270.555 232.368 264.655 230.054 262.46Z" fill="url(#paint32_linear_3473_45472)"/>
<path d="M253.913 210.033C250 210.934 241.919 211.006 240.049 205.884C239.553 204.525 242.772 205.889 245.615 201.908C247.037 199.634 248.839 197.227 250.733 196.791C254.647 195.89 258.467 197.4 259.368 201.314C260.27 205.228 257.827 209.131 253.913 210.033Z" fill="url(#paint33_linear_3473_45472)"/>
<path d="M189.121 188.876C192.112 190.602 195.797 190.602 198.788 188.876" stroke="black" stroke-width="1.70584" stroke-linecap="round"/>
<defs>
<filter id="filter0_i_3473_45472" x="201.417" y="163.886" width="28.2515" height="18.4799" filterUnits="userSpaceOnUse" color-interpolation-filters="sRGB">
<feFlood flood-opacity="0" result="BackgroundImageFix"/>
<feBlend mode="normal" in="SourceGraphic" in2="BackgroundImageFix" result="shape"/>
<feColorMatrix in="SourceAlpha" type="matrix" values="0 0 0 0 0 0 0 0 0 0 0 0 0 0 0 0 0 0 127 0" result="hardAlpha"/>
<feOffset dy="2.84307"/>
<feGaussianBlur stdDeviation="4.37122"/>
<feComposite in2="hardAlpha" operator="arithmetic" k2="-1" k3="1"/>
<feColorMatrix type="matrix" values="0 0 0 0 1 0 0 0 0 0.75 0 0 0 0 0 0 0 0 1 0"/>
<feBlend mode="normal" in2="shape" result="effect1_innerShadow_3473_45472"/>
</filter>
<filter id="filter1_i_3473_45472" x="111.505" y="261.261" width="117.987" height="60.4153" filterUnits="userSpaceOnUse" color-interpolation-filters="sRGB">
<feFlood flood-opacity="0" result="BackgroundImageFix"/>
<feBlend mode="normal" in="SourceGraphic" in2="BackgroundImageFix" result="shape"/>
<feColorMatrix in="SourceAlpha" type="matrix" values="0 0 0 0 0 0 0 0 0 0 0 0 0 0 0 0 0 0 127 0" result="hardAlpha"/>
<feOffset dy="2.84307"/>
<feGaussianBlur stdDeviation="7.24982"/>
<feComposite in2="hardAlpha" operator="arithmetic" k2="-1" k3="1"/>
<feColorMatrix type="matrix" values="0 0 0 0 1 0 0 0 0 0.909611 0 0 0 0 0.639855 0 0 0 1 0"/>
<feBlend mode="normal" in2="shape" result="effect1_innerShadow_3473_45472"/>
</filter>
<filter id="filter2_i_3473_45472" x="120.746" y="163.886" width="88.1353" height="125.806" filterUnits="userSpaceOnUse" color-interpolation-filters="sRGB">
<feFlood flood-opacity="0" result="BackgroundImageFix"/>
<feBlend mode="normal" in="SourceGraphic" in2="BackgroundImageFix" result="shape"/>
<feColorMatrix in="SourceAlpha" type="matrix" values="0 0 0 0 0 0 0 0 0 0 0 0 0 0 0 0 0 0 127 0" result="hardAlpha"/>
<feOffset dy="2.84307"/>
<feGaussianBlur stdDeviation="4.47783"/>
<feComposite in2="hardAlpha" operator="arithmetic" k2="-1" k3="1"/>
<feColorMatrix type="matrix" values="0 0 0 0 1 0 0 0 0 0.696779 0 0 0 0 0.271428 0 0 0 1 0"/>
<feBlend mode="normal" in2="shape" result="effect1_innerShadow_3473_45472"/>
</filter>
<filter id="filter3_i_3473_45472" x="173" y="128" width="46.3667" height="19.3923" filterUnits="userSpaceOnUse" color-interpolation-filters="sRGB">
<feFlood flood-opacity="0" result="BackgroundImageFix"/>
<feBlend mode="normal" in="SourceGraphic" in2="BackgroundImageFix" result="shape"/>
<feColorMatrix in="SourceAlpha" type="matrix" values="0 0 0 0 0 0 0 0 0 0 0 0 0 0 0 0 0 0 127 0" result="hardAlpha"/>
<feOffset/>
<feGaussianBlur stdDeviation="1.51267"/>
<feComposite in2="hardAlpha" operator="arithmetic" k2="-1" k3="1"/>
<feColorMatrix type="matrix" values="0 0 0 0 1 0 0 0 0 0.847059 0 0 0 0 0.4 0 0 0 1 0"/>
<feBlend mode="normal" in2="shape" result="effect1_innerShadow_3473_45472"/>
</filter>
<linearGradient id="paint0_linear_3473_45472" x1="158.637" y1="344.623" x2="152.969" y2="359.986" gradientUnits="userSpaceOnUse">
<stop stop-color="#724100"/>
<stop offset="1" stop-color="#D89400"/>
</linearGradient>
<linearGradient id="paint1_linear_3473_45472" x1="200.335" y1="344.623" x2="194.256" y2="359.612" gradientUnits="userSpaceOnUse">
<stop stop-color="#724100"/>
<stop offset="1" stop-color="#D89400"/>
</linearGradient>
<linearGradient id="paint2_linear_3473_45472" x1="214.337" y1="344.623" x2="208.144" y2="359.499" gradientUnits="userSpaceOnUse">
<stop stop-color="#724100"/>
<stop offset="1" stop-color="#D89400"/>
</linearGradient>
<linearGradient id="paint3_linear_3473_45472" x1="144.503" y1="344.623" x2="139.173" y2="360.26" gradientUnits="userSpaceOnUse">
<stop stop-color="#724100"/>
<stop offset="1" stop-color="#D89400"/>
</linearGradient>
<linearGradient id="paint4_linear_3473_45472" x1="119.323" y1="272.634" x2="96.9341" y2="305.329" gradientUnits="userSpaceOnUse">
<stop stop-color="#A26400"/>
<stop offset="1" stop-color="#573100"/>
</linearGradient>
<linearGradient id="paint5_linear_3473_45472" x1="109.372" y1="297.511" x2="100.843" y2="318.834" gradientUnits="userSpaceOnUse">
<stop stop-color="#442700"/>
<stop offset="1" stop-color="#2A1800"/>
</linearGradient>
<linearGradient id="paint6_linear_3473_45472" x1="170.499" y1="261.261" x2="170.499" y2="318.834" gradientUnits="userSpaceOnUse">
<stop stop-color="#FFCC00"/>
<stop offset="0.5" stop-color="#FFBF00"/>
<stop offset="1" stop-color="#FFAE00"/>
</linearGradient>
<linearGradient id="paint7_linear_3473_45472" x1="224.516" y1="153.176" x2="178.671" y2="171.676" gradientUnits="userSpaceOnUse">
<stop stop-color="#FFE391"/>
<stop offset="1" stop-color="#FFBF00"/>
</linearGradient>
<linearGradient id="paint8_linear_3473_45472" x1="223.959" y1="274.855" x2="229.285" y2="288.985" gradientUnits="userSpaceOnUse">
<stop stop-color="#FFD24D" stop-opacity="0"/>
<stop offset="1" stop-color="#FFD24D"/>
</linearGradient>
<linearGradient id="paint9_linear_3473_45472" x1="154.506" y1="154.291" x2="177.251" y2="168.506" gradientUnits="userSpaceOnUse">
<stop stop-color="#FFE187"/>
<stop offset="1" stop-color="#FFBF00"/>
</linearGradient>
<linearGradient id="paint10_linear_3473_45472" x1="161.969" y1="155.713" x2="178.317" y2="187.697" gradientUnits="userSpaceOnUse">
<stop stop-color="#FFBF00"/>
<stop offset="1" stop-color="#FFAE00"/>
</linearGradient>
<linearGradient id="paint11_linear_3473_45472" x1="161.97" y1="155.713" x2="178.318" y2="187.697" gradientUnits="userSpaceOnUse">
<stop stop-color="#FFBF00"/>
<stop offset="1" stop-color="#FFAE00"/>
</linearGradient>
<linearGradient id="paint12_linear_3473_45472" x1="165.167" y1="248.468" x2="170.498" y2="256.286" gradientUnits="userSpaceOnUse">
<stop stop-color="#FF5A16"/>
<stop offset="1" stop-color="#DF3F11"/>
</linearGradient>
<linearGradient id="paint13_linear_3473_45472" x1="1.06615" y1="-4.2646" x2="4.61999" y2="6.3969" gradientUnits="userSpaceOnUse">
<stop stop-color="#995A03"/>
<stop offset="1" stop-color="#331E01"/>
</linearGradient>
<linearGradient id="paint14_linear_3473_45472" x1="1.06615" y1="-4.2646" x2="4.61999" y2="6.3969" gradientUnits="userSpaceOnUse">
<stop stop-color="#995A03"/>
<stop offset="1" stop-color="#331E01"/>
</linearGradient>
<radialGradient id="paint15_radial_3473_45472" cx="0" cy="0" r="1" gradientUnits="userSpaceOnUse" gradientTransform="translate(142.636 269.056) rotate(-85.5488) scale(47.6229 38.0114)">
<stop stop-color="#44B5FD"/>
<stop offset="1" stop-color="#44B5FD" stop-opacity="0"/>
</radialGradient>
<linearGradient id="paint16_linear_3473_45472" x1="146.738" y1="258.395" x2="128.115" y2="213.802" gradientUnits="userSpaceOnUse">
<stop stop-color="#FFE59F" stop-opacity="0"/>
<stop offset="1" stop-color="#FFE59F"/>
</linearGradient>
<linearGradient id="paint17_linear_3473_45472" x1="153.156" y1="253.987" x2="163.391" y2="273.889" gradientUnits="userSpaceOnUse">
<stop stop-color="#91C9EC"/>
<stop offset="1" stop-color="#9ED9FE"/>
</linearGradient>
<linearGradient id="paint18_linear_3473_45472" x1="130.308" y1="206.024" x2="130.308" y2="230.163" gradientUnits="userSpaceOnUse">
<stop stop-color="#AEDBF8"/>
<stop offset="1" stop-color="#7BC3F1"/>
</linearGradient>
<linearGradient id="paint19_linear_3473_45472" x1="123.669" y1="227.757" x2="123.669" y2="253.038" gradientUnits="userSpaceOnUse">
<stop stop-color="#AEDBF8"/>
<stop offset="1" stop-color="#7BC3F1"/>
</linearGradient>
<linearGradient id="paint20_linear_3473_45472" x1="182.862" y1="271.731" x2="216.36" y2="312.562" gradientUnits="userSpaceOnUse">
<stop stop-color="white"/>
<stop offset="1" stop-color="#FFE59F"/>
</linearGradient>
<linearGradient id="paint21_linear_3473_45472" x1="223.379" y1="277.3" x2="247.545" y2="292.653" gradientUnits="userSpaceOnUse">
<stop stop-color="white"/>
<stop offset="1" stop-color="#9AD4F9"/>
</linearGradient>
<linearGradient id="paint22_linear_3473_45472" x1="214.566" y1="272.467" x2="213.428" y2="295.78" gradientUnits="userSpaceOnUse">
<stop stop-color="#103546"/>
<stop offset="1" stop-color="#A3D3EA"/>
</linearGradient>
<linearGradient id="paint23_linear_3473_45472" x1="222.207" y1="272.946" x2="221.795" y2="293.893" gradientUnits="userSpaceOnUse">
<stop stop-color="#103546"/>
<stop offset="1" stop-color="#A3D3EA"/>
</linearGradient>
<radialGradient id="paint24_radial_3473_45472" cx="0" cy="0" r="1" gradientUnits="userSpaceOnUse" gradientTransform="translate(213.429 300.329) rotate(-110.376) scale(10.615)">
<stop stop-color="#3DB3FF"/>
<stop offset="1" stop-color="#AEDBF8"/>
</radialGradient>
<linearGradient id="paint25_linear_3473_45472" x1="211.986" y1="300.752" x2="209.143" y2="292.223" gradientUnits="userSpaceOnUse">
<stop stop-color="#FFE59F" stop-opacity="0"/>
<stop offset="1" stop-color="#FFE59F"/>
</linearGradient>
<radialGradient id="paint26_radial_3473_45472" cx="0" cy="0" r="1" gradientUnits="userSpaceOnUse" gradientTransform="translate(230.223 297.916) rotate(-110.376) scale(10.615)">
<stop stop-color="#3DB3FF"/>
<stop offset="1" stop-color="#AEDBF8"/>
</radialGradient>
<linearGradient id="paint27_linear_3473_45472" x1="228.781" y1="298.339" x2="225.938" y2="289.81" gradientUnits="userSpaceOnUse">
<stop stop-color="#FFE59F" stop-opacity="0"/>
<stop offset="1" stop-color="#FFE59F"/>
</linearGradient>
<radialGradient id="paint28_radial_3473_45472" cx="0" cy="0" r="1" gradientUnits="userSpaceOnUse" gradientTransform="translate(15.4668 12.7938) rotate(62.2892) scale(39.741)">
<stop stop-color="#AD6601"/>
<stop offset="1" stop-color="#E8A20D"/>
</radialGradient>
<radialGradient id="paint29_radial_3473_45472" cx="0" cy="0" r="1" gradientUnits="userSpaceOnUse" gradientTransform="translate(10.6615 2.84307) rotate(70.821) scale(17.3083)">
<stop stop-color="#FFDA6C"/>
<stop offset="1" stop-color="#FFDA6C" stop-opacity="0"/>
</radialGradient>
<linearGradient id="paint30_linear_3473_45472" x1="2.67301" y1="-1.42153" x2="7.64838" y2="11.0169" gradientUnits="userSpaceOnUse">
<stop stop-color="#654007"/>
<stop offset="1" stop-color="#492E05"/>
</linearGradient>
<linearGradient id="paint31_linear_3473_45472" x1="2.67301" y1="-1.42153" x2="7.64838" y2="11.0169" gradientUnits="userSpaceOnUse">
<stop stop-color="#654007"/>
<stop offset="1" stop-color="#492E05"/>
</linearGradient>
<linearGradient id="paint32_linear_3473_45472" x1="174.763" y1="253.703" x2="243.849" y2="284.408" gradientUnits="userSpaceOnUse">
<stop stop-color="#FFE59F"/>
<stop offset="1" stop-color="#91D3FE"/>
</linearGradient>
<linearGradient id="paint33_linear_3473_45472" x1="257.191" y1="193.615" x2="242.462" y2="216.589" gradientUnits="userSpaceOnUse">
<stop stop-color="#B4DFFF"/>
<stop offset="1" stop-color="#83C9FF"/>
</linearGradient>
</defs>
</svg>
