<svg width="352" height="421" viewBox="0 0 352 421" fill="none" xmlns="http://www.w3.org/2000/svg">
<g clip-path="url(#clip0_3468_47202)">
<path d="M154.673 308.513L134.694 312.139L138.705 353.412L154.673 353.412L154.673 308.513Z" fill="#F0AA00"/>
<path d="M154.751 347.24H138.088L138.705 353.412H154.751V347.24Z" fill="url(#paint0_linear_3468_47202)"/>
<path d="M196.334 309.734L175.504 309.734L183.142 352.641L196.334 352.641L196.334 309.734Z" fill="#F0AA00"/>
<path d="M196.411 347.24H182.216L183.243 353.412H196.411L196.411 347.24Z" fill="#7B7B7B"/>
<path d="M196.411 347.24H182.216L183.243 353.412H196.411L196.411 347.24Z" fill="url(#paint1_linear_3468_47202)"/>
<path d="M211.731 308.659L189.315 308.651L199.73 353.36L211.731 353.36L211.731 308.659Z" fill="#FFBE2B"/>
<path d="M211.737 347.24H198.299L199.343 353.412L211.737 353.367V347.24Z" fill="#A6A6A6"/>
<path d="M211.737 347.24H198.299L199.343 353.412L211.737 353.367V347.24Z" fill="url(#paint2_linear_3468_47202)"/>
<path d="M139.379 310.981L117.699 307.587L120.245 353.413L134.517 353.413L139.379 310.981Z" fill="#FFC135"/>
<path d="M135.288 347.241H119.859L120.245 353.413H134.513L135.288 347.241Z" fill="url(#paint3_linear_3468_47202)"/>
<path d="M171.447 248.61C171.941 245.903 171.455 243.108 170.076 240.726L168.78 238.486C167.262 235.864 164.462 234.25 161.432 234.251L161.339 234.251C160.074 234.251 158.977 235.126 158.695 236.359C158.039 239.23 158.985 242.232 161.17 244.207L162.876 245.75C165.207 247.859 168.306 248.91 171.439 248.655L171.447 248.61Z" fill="url(#paint4_linear_3468_47202)"/>
<path d="M95.9431 294.78C95.1717 287.58 98.8747 271.405 112.144 264.307" stroke="url(#paint5_linear_3468_47202)" stroke-width="3.08589" stroke-linecap="round"/>
<rect width="4.62883" height="9.25766" transform="matrix(-1 0 0 1 206.286 137.4)" fill="#331E01"/>
<rect width="4.62883" height="9.25766" transform="matrix(-1 0 0 1 193.17 137.4)" fill="#331E01"/>
<path d="M88.9998 302.109C88.9998 306.157 91.3142 310.21 97.4859 312.91C100.572 308.281 103.658 306.157 103.658 302.109C103.658 298.062 100.376 294.78 96.3287 294.78C92.2811 294.78 88.9998 298.062 88.9998 302.109Z" fill="url(#paint6_linear_3468_47202)"/>
<g filter="url(#filter0_i_3468_47202)">
<path d="M231.707 149.198L225.187 162.859L201.271 145.886H229.618C231.32 145.886 232.44 147.662 231.707 149.198Z" fill="#FFAE00"/>
</g>
<g filter="url(#filter1_i_3468_47202)">
<path d="M135.311 251.583C135.182 251.581 135.054 251.578 134.925 251.578C117.669 251.578 103.68 265.567 103.68 282.823C103.68 300.079 117.669 314.067 134.925 314.067C135.054 314.067 135.182 314.064 135.311 314.062V314.067H200.886V314.061C217.964 313.855 231.744 299.949 231.744 282.822C231.744 265.695 217.964 251.789 200.886 251.582V251.578H135.311V251.583Z" fill="url(#paint7_linear_3468_47202)"/>
</g>
<path d="M178.127 145.886C171.569 154.581 170.026 158.135 170.026 175.373L170.052 175.358C170.037 175.739 170.026 176.122 170.026 176.506C170.026 176.633 170.03 176.759 170.031 176.884H170.026V245.308L196.257 260.807L215.543 282.733H231.744V183.294C232.248 181.11 232.516 178.839 232.516 176.506C232.515 159.722 218.735 146.093 201.657 145.89V145.886H178.127Z" fill="url(#paint8_linear_3468_47202)"/>
<path d="M178.127 145.886C171.569 154.581 170.026 158.135 170.026 175.373L170.052 175.358C170.037 175.739 170.026 176.122 170.026 176.506C170.026 176.633 170.03 176.759 170.031 176.884H170.026V245.308L196.257 260.807L215.543 282.733H231.744V183.294C232.248 181.11 232.516 178.839 232.516 176.506C232.515 159.722 218.735 146.093 201.657 145.89V145.886H178.127Z" fill="url(#paint9_linear_3468_47202)"/>
<path d="M155.597 149.919L170.798 163.63L178.513 145.886H157.147C155.027 145.886 154.023 148.5 155.597 149.919Z" fill="url(#paint10_linear_3468_47202)"/>
<mask id="mask0_3468_47202" style="mask-type:alpha" maskUnits="userSpaceOnUse" x="154" y="145" width="25" height="19">
<path d="M155.597 149.919L170.798 163.63L178.513 145.886H157.147C155.027 145.886 154.023 148.5 155.597 149.919Z" fill="#D9D9D9"/>
</mask>
<g mask="url(#mask0_3468_47202)">
<path d="M174.42 150.515L170.425 163.63L153.59 150.515H174.42Z" fill="url(#paint11_linear_3468_47202)"/>
</g>
<g filter="url(#filter2_i_3468_47202)">
<mask id="mask1_3468_47202" style="mask-type:alpha" maskUnits="userSpaceOnUse" x="103" y="145" width="130" height="170">
<path d="M178.127 145.886C171.57 154.581 170.027 158.135 170.027 175.373L170.052 175.358C170.038 175.739 170.027 176.122 170.027 176.506C170.027 176.633 170.03 176.759 170.032 176.884H170.027V245.308L180.637 251.578H135.311V251.583C135.183 251.581 135.054 251.578 134.925 251.578C117.669 251.578 103.68 265.567 103.68 282.823C103.68 300.079 117.67 314.067 134.925 314.067C135.054 314.067 135.183 314.064 135.311 314.062V314.067H200.886V314.061C217.964 313.854 231.745 299.949 231.745 282.822C231.745 282.792 231.744 282.763 231.744 282.733H231.745V183.294C232.249 181.11 232.516 178.839 232.516 176.506C232.516 159.722 218.736 146.093 201.658 145.89V145.886H178.127Z" fill="url(#paint12_linear_3468_47202)"/>
</mask>
<g mask="url(#mask1_3468_47202)">
<path d="M161.541 164.016C161.541 178.076 166.26 188.703 181.599 188.703C203.586 190.632 207.443 178.076 207.443 164.016C207.443 149.955 202.338 142.029 186.999 142.029C171.661 142.029 161.541 149.955 161.541 164.016Z" fill="#AD6500"/>
<path d="M202.815 211.076C198.186 210.305 197.414 212.233 193.557 216.09C191.242 219.176 190.471 220.692 190.471 223.419C190.471 224.191 190.857 231.62 198.571 231.906C206.903 232.214 209.372 227.081 209.372 222.262C209.372 215.705 207.443 211.847 202.815 211.076Z" fill="#AD6500"/>
<path d="M160.458 234.98C148.781 234.98 128.753 231.906 127.982 254.278C127.657 263.688 134.925 260.836 140.326 269.708C147.269 279.351 153.693 279.351 160.458 279.351C172.134 279.351 181.599 269.418 181.599 257.165C181.599 244.913 172.134 234.98 160.458 234.98Z" fill="#AD6500"/>
<path d="M113.71 260.064C113.71 263.046 116.3 264.307 119.496 264.307C122.691 264.307 125.667 263.046 125.667 260.064C125.667 255.435 123.077 254.278 119.881 254.278C116.686 254.278 113.71 257.081 113.71 260.064Z" fill="#AD6500"/>
<path d="M126.825 271.784C126.825 273.849 128.329 274.722 130.184 274.722C132.04 274.722 133.768 273.849 133.768 271.784C133.768 268.58 132.264 267.779 130.408 267.779C128.553 267.779 126.825 269.72 126.825 271.784Z" fill="#AD6500"/>
<path d="M188.928 194.875C188.928 197.857 190.085 201.818 195.871 202.204C199.067 202.204 200.114 199.4 200.114 196.418C200.114 193.435 197.524 190.632 194.328 190.632C191.133 190.632 188.928 191.892 188.928 194.875Z" fill="#AD6500"/>
<path d="M145.34 204.904C145.34 214.064 158.258 222.262 168.484 222.262C178.71 222.262 180.828 214.547 182.756 204.904C184.685 195.26 174.081 188.317 163.855 188.317C153.63 188.317 145.34 195.743 145.34 204.904Z" fill="#AD6500"/>
</g>
</g>
<path d="M170.026 244.635C199.96 262.533 223.772 260.321 231.744 254.664V271.636C231.744 281.203 224.029 291.952 219.401 295.166C210.143 279.351 170.026 252.897 170.026 248.492V244.635Z" fill="url(#paint13_linear_3468_47202)"/>
<path d="M219.4 295.166C207.443 278.965 188.927 265.079 169.255 249.649" stroke="#DF3F11" stroke-width="0.771471"/>
<path d="M166.94 244.635L163.855 240.392" stroke="url(#paint14_linear_3468_47202)" stroke-width="1.54294" stroke-linecap="round"/>
<circle cx="4.24309" cy="4.24309" r="4.24309" transform="matrix(-1 0 0 1 173.884 243.863)" fill="url(#paint15_linear_3468_47202)"/>
<circle cx="3.85736" cy="3.85736" r="3.85736" transform="matrix(-1 0 0 1 194.713 132)" fill="url(#paint16_linear_3468_47202)"/>
<circle cx="3.85736" cy="3.85736" r="3.85736" transform="matrix(-1 0 0 1 207.829 132)" fill="url(#paint17_linear_3468_47202)"/>
<circle cx="21.9869" cy="21.9869" r="21.9869" transform="matrix(-1 0 0 1 249.488 165.173)" fill="url(#paint18_radial_3468_47202)"/>
<circle cx="21.9869" cy="21.9869" r="21.9869" transform="matrix(-1 0 0 1 249.488 165.173)" fill="url(#paint19_radial_3468_47202)" fill-opacity="0.5"/>
<ellipse cx="2.70015" cy="3.08589" rx="2.70015" ry="3.08589" transform="matrix(-1 0 0 1 235.602 185.231)" fill="url(#paint20_linear_3468_47202)"/>
<ellipse cx="2.70015" cy="3.08589" rx="2.70015" ry="3.08589" transform="matrix(-1 0 0 1 244.859 185.231)" fill="url(#paint21_linear_3468_47202)"/>
<path d="M259.33 195.081C255.082 196.059 246.311 196.137 244.282 190.577C243.743 189.103 247.237 190.583 250.323 186.263C251.866 183.794 253.822 181.181 255.878 180.708C260.126 179.73 264.272 181.369 265.251 185.617C266.229 189.865 263.578 194.102 259.33 195.081Z" fill="url(#paint22_linear_3468_47202)"/>
<path d="M189.005 172.116C192.251 173.991 196.251 173.991 199.497 172.116" stroke="black" stroke-width="1.85153" stroke-linecap="round"/>
</g>
<defs>
<filter id="filter0_i_3468_47202" x="201.271" y="145.886" width="30.6641" height="20.0583" filterUnits="userSpaceOnUse" color-interpolation-filters="sRGB">
<feFlood flood-opacity="0" result="BackgroundImageFix"/>
<feBlend mode="normal" in="SourceGraphic" in2="BackgroundImageFix" result="shape"/>
<feColorMatrix in="SourceAlpha" type="matrix" values="0 0 0 0 0 0 0 0 0 0 0 0 0 0 0 0 0 0 127 0" result="hardAlpha"/>
<feOffset dy="3.08589"/>
<feGaussianBlur stdDeviation="4.74455"/>
<feComposite in2="hardAlpha" operator="arithmetic" k2="-1" k3="1"/>
<feColorMatrix type="matrix" values="0 0 0 0 1 0 0 0 0 0.75 0 0 0 0 0 0 0 0 1 0"/>
<feBlend mode="normal" in2="shape" result="effect1_innerShadow_3468_47202"/>
</filter>
<filter id="filter1_i_3468_47202" x="103.68" y="251.578" width="128.064" height="65.5751" filterUnits="userSpaceOnUse" color-interpolation-filters="sRGB">
<feFlood flood-opacity="0" result="BackgroundImageFix"/>
<feBlend mode="normal" in="SourceGraphic" in2="BackgroundImageFix" result="shape"/>
<feColorMatrix in="SourceAlpha" type="matrix" values="0 0 0 0 0 0 0 0 0 0 0 0 0 0 0 0 0 0 127 0" result="hardAlpha"/>
<feOffset dy="3.08589"/>
<feGaussianBlur stdDeviation="7.86901"/>
<feComposite in2="hardAlpha" operator="arithmetic" k2="-1" k3="1"/>
<feColorMatrix type="matrix" values="0 0 0 0 1 0 0 0 0 0.909611 0 0 0 0 0.639855 0 0 0 1 0"/>
<feBlend mode="normal" in2="shape" result="effect1_innerShadow_3468_47202"/>
</filter>
<filter id="filter2_i_3468_47202" x="113.709" y="145.886" width="95.6626" height="136.55" filterUnits="userSpaceOnUse" color-interpolation-filters="sRGB">
<feFlood flood-opacity="0" result="BackgroundImageFix"/>
<feBlend mode="normal" in="SourceGraphic" in2="BackgroundImageFix" result="shape"/>
<feColorMatrix in="SourceAlpha" type="matrix" values="0 0 0 0 0 0 0 0 0 0 0 0 0 0 0 0 0 0 127 0" result="hardAlpha"/>
<feOffset dy="3.08589"/>
<feGaussianBlur stdDeviation="4.86027"/>
<feComposite in2="hardAlpha" operator="arithmetic" k2="-1" k3="1"/>
<feColorMatrix type="matrix" values="0 0 0 0 1 0 0 0 0 0.696779 0 0 0 0 0.271428 0 0 0 1 0"/>
<feBlend mode="normal" in2="shape" result="effect1_innerShadow_3468_47202"/>
</filter>
<linearGradient id="paint0_linear_3468_47202" x1="147.951" y1="342.612" x2="141.799" y2="359.287" gradientUnits="userSpaceOnUse">
<stop stop-color="#724100"/>
<stop offset="1" stop-color="#D89400"/>
</linearGradient>
<linearGradient id="paint1_linear_3468_47202" x1="193.21" y1="342.612" x2="186.612" y2="358.881" gradientUnits="userSpaceOnUse">
<stop stop-color="#724100"/>
<stop offset="1" stop-color="#D89400"/>
</linearGradient>
<linearGradient id="paint2_linear_3468_47202" x1="208.407" y1="342.611" x2="201.685" y2="358.758" gradientUnits="userSpaceOnUse">
<stop stop-color="#724100"/>
<stop offset="1" stop-color="#D89400"/>
</linearGradient>
<linearGradient id="paint3_linear_3468_47202" x1="132.588" y1="342.612" x2="126.802" y2="359.584" gradientUnits="userSpaceOnUse">
<stop stop-color="#724100"/>
<stop offset="1" stop-color="#D89400"/>
</linearGradient>
<linearGradient id="paint4_linear_3468_47202" x1="161.909" y1="222.69" x2="168.148" y2="245.826" gradientUnits="userSpaceOnUse">
<stop stop-color="#FF6F15"/>
<stop offset="1" stop-color="#FF4916"/>
</linearGradient>
<linearGradient id="paint5_linear_3468_47202" x1="112.144" y1="263.922" x2="87.8427" y2="299.409" gradientUnits="userSpaceOnUse">
<stop stop-color="#A26400"/>
<stop offset="1" stop-color="#573100"/>
</linearGradient>
<linearGradient id="paint6_linear_3468_47202" x1="101.343" y1="290.923" x2="92.0856" y2="314.067" gradientUnits="userSpaceOnUse">
<stop stop-color="#442700"/>
<stop offset="1" stop-color="#2A1800"/>
</linearGradient>
<linearGradient id="paint7_linear_3468_47202" x1="167.712" y1="251.578" x2="167.712" y2="314.067" gradientUnits="userSpaceOnUse">
<stop stop-color="#FFCC00"/>
<stop offset="0.5" stop-color="#FFBF00"/>
<stop offset="1" stop-color="#FFAE00"/>
</linearGradient>
<linearGradient id="paint8_linear_3468_47202" x1="226.344" y1="134.167" x2="176.472" y2="154.131" gradientUnits="userSpaceOnUse">
<stop stop-color="#FFE391"/>
<stop offset="1" stop-color="#FFBF00"/>
</linearGradient>
<linearGradient id="paint9_linear_3468_47202" x1="225.739" y1="267.304" x2="231.602" y2="282.733" gradientUnits="userSpaceOnUse">
<stop stop-color="#FFD24D" stop-opacity="0"/>
<stop offset="1" stop-color="#FFD24D"/>
</linearGradient>
<linearGradient id="paint10_linear_3468_47202" x1="150.354" y1="135.471" x2="175.041" y2="150.901" gradientUnits="userSpaceOnUse">
<stop stop-color="#FFE187"/>
<stop offset="1" stop-color="#FFBF00"/>
</linearGradient>
<linearGradient id="paint11_linear_3468_47202" x1="158.454" y1="137.015" x2="176.198" y2="171.731" gradientUnits="userSpaceOnUse">
<stop stop-color="#FFBF00"/>
<stop offset="1" stop-color="#FFAE00"/>
</linearGradient>
<linearGradient id="paint12_linear_3468_47202" x1="158.455" y1="137.014" x2="176.199" y2="171.731" gradientUnits="userSpaceOnUse">
<stop stop-color="#FFBF00"/>
<stop offset="1" stop-color="#FFAE00"/>
</linearGradient>
<linearGradient id="paint13_linear_3468_47202" x1="173.884" y1="244.635" x2="239.459" y2="319.853" gradientUnits="userSpaceOnUse">
<stop stop-color="#FF6F15"/>
<stop offset="1" stop-color="#FF3415"/>
</linearGradient>
<linearGradient id="paint14_linear_3468_47202" x1="161.926" y1="237.691" x2="167.712" y2="246.178" gradientUnits="userSpaceOnUse">
<stop stop-color="#FF5A16"/>
<stop offset="1" stop-color="#DF3F11"/>
</linearGradient>
<linearGradient id="paint15_linear_3468_47202" x1="1.54294" y1="0.385736" x2="15.8152" y2="16.9724" gradientUnits="userSpaceOnUse">
<stop stop-color="#FF6716"/>
<stop offset="1" stop-color="#FF4F16"/>
</linearGradient>
<linearGradient id="paint16_linear_3468_47202" x1="1.15721" y1="-4.62883" x2="5.01456" y2="6.94324" gradientUnits="userSpaceOnUse">
<stop stop-color="#995A03"/>
<stop offset="1" stop-color="#331E01"/>
</linearGradient>
<linearGradient id="paint17_linear_3468_47202" x1="1.15721" y1="-4.62883" x2="5.01456" y2="6.94324" gradientUnits="userSpaceOnUse">
<stop stop-color="#995A03"/>
<stop offset="1" stop-color="#331E01"/>
</linearGradient>
<radialGradient id="paint18_radial_3468_47202" cx="0" cy="0" r="1" gradientUnits="userSpaceOnUse" gradientTransform="translate(16.7878 13.8865) rotate(62.2892) scale(43.1352)">
<stop stop-color="#AD6601"/>
<stop offset="1" stop-color="#E8A20D"/>
</radialGradient>
<radialGradient id="paint19_radial_3468_47202" cx="0" cy="0" r="1" gradientUnits="userSpaceOnUse" gradientTransform="translate(11.5721 3.08589) rotate(70.821) scale(18.7866)">
<stop stop-color="#FFDA6C"/>
<stop offset="1" stop-color="#FFDA6C" stop-opacity="0"/>
</radialGradient>
<linearGradient id="paint20_linear_3468_47202" x1="2.90131" y1="-1.54294" x2="8.3016" y2="11.9578" gradientUnits="userSpaceOnUse">
<stop stop-color="#654007"/>
<stop offset="1" stop-color="#492E05"/>
</linearGradient>
<linearGradient id="paint21_linear_3468_47202" x1="2.90131" y1="-1.54294" x2="8.3016" y2="11.9578" gradientUnits="userSpaceOnUse">
<stop stop-color="#654007"/>
<stop offset="1" stop-color="#492E05"/>
</linearGradient>
<linearGradient id="paint22_linear_3468_47202" x1="262.887" y1="177.261" x2="246.901" y2="202.197" gradientUnits="userSpaceOnUse">
<stop stop-color="#B4DFFF"/>
<stop offset="1" stop-color="#83C9FF"/>
</linearGradient>
<clipPath id="clip0_3468_47202">
<rect width="352" height="421" fill="white"/>
</clipPath>
</defs>
</svg>
