<svg width="150" height="55" viewBox="0 0 150 55" fill="none" xmlns="http://www.w3.org/2000/svg">
<path d="M89.5418 28.361C87.7002 30.755 88.8972 39.8705 88.8972 39.8705C91.9357 39.8705 98.7198 39.8705 102.248 39.8705C109.266 39.8705 114.516 38.2819 114.955 31.5837C115.599 21.7316 109.266 16.207 102.248 16.207C95.2306 16.207 89.5418 21.6486 89.5418 28.361Z" fill="url(#paint0_radial_3495_89697)"/>
<path d="M89.5418 28.361C87.7002 30.755 88.8972 39.8705 88.8972 39.8705C91.9357 39.8705 98.7198 39.8705 102.248 39.8705C109.266 39.8705 114.516 38.2819 114.955 31.5837C115.599 21.7316 109.266 16.207 102.248 16.207C95.2306 16.207 89.5418 21.6486 89.5418 28.361Z" fill="url(#paint1_radial_3495_89697)" fill-opacity="0.2"/>
<path d="M90.8695 40.6067C91.0557 40.0136 90.6127 39.4102 89.991 39.4102H76.2559C75.5939 39.4102 75.1482 40.088 75.4106 40.6958L78.4312 47.6936C78.5768 48.031 78.9091 48.2494 79.2766 48.2494H87.7942C88.1964 48.2494 88.5522 47.9883 88.6727 47.6045L90.8695 40.6067Z" fill="url(#paint2_linear_3495_89697)"/>
<path d="M90.8695 40.6067C91.0557 40.0136 90.6127 39.4102 89.991 39.4102H76.2559C75.5939 39.4102 75.1482 40.088 75.4106 40.6958L78.4312 47.6936C78.5768 48.031 78.9091 48.2494 79.2766 48.2494H87.7942C88.1964 48.2494 88.5522 47.9883 88.6727 47.6045L90.8695 40.6067Z" fill="url(#paint3_radial_3495_89697)" fill-opacity="0.2"/>
<path d="M50.6842 40.3759C50.7099 39.8504 50.2907 39.4102 49.7645 39.4102H38.1431C37.3968 39.4102 36.9605 40.2514 37.3904 40.8614L42.3226 47.8591C42.4951 48.1039 42.7758 48.2494 43.0752 48.2494H49.422C49.913 48.2494 50.3177 47.8641 50.3417 47.3737L50.6842 40.3759Z" fill="url(#paint4_linear_3495_89697)"/>
<path d="M50.6842 40.3759C50.7099 39.8504 50.2907 39.4102 49.7645 39.4102H38.1431C37.3968 39.4102 36.9605 40.2514 37.3904 40.8614L42.3226 47.8591C42.4951 48.1039 42.7758 48.2494 43.0752 48.2494H49.422C49.913 48.2494 50.3177 47.8641 50.3417 47.3737L50.6842 40.3759Z" fill="url(#paint5_radial_3495_89697)" fill-opacity="0.2"/>
<mask id="path-4-inside-1_3495_89697" fill="white">
<path d="M92.6729 36.0968C92.6729 35.8934 92.508 35.7285 92.3045 35.7285H37.059C36.8556 35.7285 36.6907 35.8934 36.6907 36.0968V41.2531C36.6907 41.4565 36.8556 41.6214 37.059 41.6214H92.3045C92.508 41.6214 92.6729 41.4565 92.6729 41.2531V36.0968Z"/>
</mask>
<g filter="url(#filter0_i_3495_89697)">
<path d="M92.6729 36.0968C92.6729 35.8934 92.508 35.7285 92.3045 35.7285H37.059C36.8556 35.7285 36.6907 35.8934 36.6907 36.0968V41.2531C36.6907 41.4565 36.8556 41.6214 37.059 41.6214H92.3045C92.508 41.6214 92.6729 41.4565 92.6729 41.2531V36.0968Z" fill="url(#paint6_linear_3495_89697)"/>
<path d="M92.6729 36.0968C92.6729 35.8934 92.508 35.7285 92.3045 35.7285H37.059C36.8556 35.7285 36.6907 35.8934 36.6907 36.0968V41.2531C36.6907 41.4565 36.8556 41.6214 37.059 41.6214H92.3045C92.508 41.6214 92.6729 41.4565 92.6729 41.2531V36.0968Z" fill="url(#paint7_radial_3495_89697)" fill-opacity="0.4"/>
</g>
<path d="M92.6729 36.0968C92.6729 35.4866 92.1782 34.9919 91.5679 34.9919H37.7956C37.1854 34.9919 36.6907 35.4866 36.6907 36.0968V36.4651C36.6907 36.4651 36.8556 36.4651 37.059 36.4651H92.3045C92.508 36.4651 92.6729 36.4651 92.6729 36.4651V36.0968ZM36.6907 41.6214H92.6729H36.6907ZM92.6729 41.6214V35.7285V41.6214ZM36.6907 35.7285V41.6214V35.7285Z" fill="#72470A" mask="url(#path-4-inside-1_3495_89697)"/>
<g filter="url(#filter1_i_3495_89697)">
<mask id="mask0_3495_89697" style="mask-type:alpha" maskUnits="userSpaceOnUse" x="37" y="7" width="55" height="29">
<path d="M37.4266 35.7277C37.4266 28.597 40.2593 19.9169 45.3014 14.8748C50.3435 9.83264 57.1821 7 64.3128 7C71.4434 7 78.282 9.83264 83.3242 14.8748C88.3663 19.9169 91.291 28.597 91.291 35.7277H64.3128H37.4266Z" fill="#D9D9D9"/>
</mask>
<g mask="url(#mask0_3495_89697)">
<path d="M54.0006 22.4688L58.9727 36.3722L45.3907 36.096L54.0006 22.4688Z" fill="url(#paint8_linear_3495_89697)"/>
<path d="M78.2168 32.1359L77.3413 36.7397L91.752 36.2793L91.2916 31.031L78.2168 24.0332V32.1359Z" fill="url(#paint9_linear_3495_89697)"/>
<path d="M56.5788 16.668H72.508L78.585 24.4944V32.0446V36.1881L58.7886 36.3722L50.8233 29.0061L56.5788 16.668Z" fill="url(#paint10_linear_3495_89697)"/>
<path d="M78.5848 24.4936L72.5078 16.6671L79.8739 10.498L89.4498 14.9177L91.1992 31.3993L78.5848 24.4936Z" fill="url(#paint11_linear_3495_89697)"/>
<path d="M35.6779 36.3722L45.4832 36.1881L50.8236 29.0061L53.8168 22.9291L56.5791 16.668L50.8704 10.2227L40.4658 17.3125L35.6779 36.3722Z" fill="url(#paint12_linear_3495_89697)"/>
<path d="M72.508 16.6688L79.874 10.4997L74.994 5.89593L59.8015 4.79102L50.8701 10.2235L56.5788 16.6688H72.508Z" fill="url(#paint13_linear_3495_89697)" stroke="url(#paint14_linear_3495_89697)" stroke-width="0.435"/>
</g>
</g>
<path d="M34.7969 42.5568C35.3684 41.3292 36.6904 41.2514 36.6904 41.2514V36.9238C33.8498 37.2702 33.5018 40.7936 34.4665 42.5902C34.5389 42.7251 34.7323 42.6956 34.7969 42.5568Z" fill="#FFE594"/>
<path d="M34.7969 42.5568C35.3684 41.3292 36.6904 41.2514 36.6904 41.2514V36.9238C33.8498 37.2702 33.5018 40.7936 34.4665 42.5902C34.5389 42.7251 34.7323 42.6956 34.7969 42.5568Z" fill="url(#paint15_radial_3495_89697)" fill-opacity="0.4"/>
<g filter="url(#filter2_f_3495_89697)">
<circle cx="1.65737" cy="1.65737" r="1.65737" transform="matrix(-1 0 0 1 107.221 31.3086)" fill="#F4B10A"/>
</g>
<path d="M105.286 31.6006C105.286 32.6582 106.142 33.5156 107.197 33.5156C108.252 33.5156 109.108 32.6582 109.108 31.6006L109.108 30.4622C109.108 29.4046 108.252 28.5472 107.197 28.5472C106.142 28.5472 105.286 29.4046 105.286 30.4622L105.286 31.6006Z" fill="#231400"/>
<path d="M105.286 31.6743C105.286 32.6912 106.142 33.5156 107.197 33.5156C108.252 33.5156 109.108 32.6912 109.108 31.6743L109.108 31.6047L105.286 31.6047L105.286 31.6743Z" fill="url(#paint16_linear_3495_89697)"/>
<g filter="url(#filter3_d_3495_89697)">
<path d="M108.152 30.8398C108.469 30.8398 108.726 30.5832 108.726 30.2666C108.726 29.95 108.469 29.6933 108.152 29.6933C107.836 29.6933 107.579 29.95 107.579 30.2666C107.579 30.5832 107.836 30.8398 108.152 30.8398Z" fill="white"/>
</g>
<path d="M56.8894 10.0952C56.7016 9.72216 56.487 8.87548 57.1309 8.47266" stroke="url(#paint17_linear_3495_89697)" stroke-width="0.324499" stroke-linecap="round"/>
<path d="M56.3664 10.2206C56.3637 9.80303 56.2121 9.28395 55.6172 9.17578" stroke="url(#paint18_linear_3495_89697)" stroke-width="0.324499" stroke-linecap="round"/>
<path d="M69.3299 14.0949C69.3273 13.6773 69.1928 13.2606 68.7324 12.9844" stroke="url(#paint19_linear_3495_89697)" stroke-width="0.324499" stroke-linecap="round"/>
<path d="M112.606 20.6281L92.3493 20.2598C90.8871 21.1956 89.9024 22.7193 89.6498 24.4369L89.5871 24.8636L115 25.2319C114.941 23.5862 114.207 22.0373 112.971 20.9495L112.606 20.6281Z" fill="#D9D9D9"/>
<path d="M112.606 20.6281L92.3493 20.2598C90.8871 21.1956 89.9024 22.7193 89.6498 24.4369L89.5871 24.8636L115 25.2319C114.941 23.5862 114.207 22.0373 112.971 20.9495L112.606 20.6281Z" fill="url(#paint20_linear_3495_89697)"/>
<path d="M115 25.507L89.5871 25.1387" stroke="url(#paint21_linear_3495_89697)" stroke-width="0.552455"/>
<defs>
<filter id="filter0_i_3495_89697" x="36.6904" y="34.8078" width="55.9824" height="6.81334" filterUnits="userSpaceOnUse" color-interpolation-filters="sRGB">
<feFlood flood-opacity="0" result="BackgroundImageFix"/>
<feBlend mode="normal" in="SourceGraphic" in2="BackgroundImageFix" result="shape"/>
<feColorMatrix in="SourceAlpha" type="matrix" values="0 0 0 0 0 0 0 0 0 0 0 0 0 0 0 0 0 0 127 0" result="hardAlpha"/>
<feOffset dy="-0.920759"/>
<feGaussianBlur stdDeviation="1.01283"/>
<feComposite in2="hardAlpha" operator="arithmetic" k2="-1" k3="1"/>
<feColorMatrix type="matrix" values="0 0 0 0 0.75 0 0 0 0 1 0 0 0 0 0 0 0 0 0.25 0"/>
<feBlend mode="normal" in2="shape" result="effect1_innerShadow_3495_89697"/>
</filter>
<filter id="filter1_i_3495_89697" x="37.4268" y="7" width="53.8643" height="34.0689" filterUnits="userSpaceOnUse" color-interpolation-filters="sRGB">
<feFlood flood-opacity="0" result="BackgroundImageFix"/>
<feBlend mode="normal" in="SourceGraphic" in2="BackgroundImageFix" result="shape"/>
<feColorMatrix in="SourceAlpha" type="matrix" values="0 0 0 0 0 0 0 0 0 0 0 0 0 0 0 0 0 0 127 0" result="hardAlpha"/>
<feOffset dy="5.3404"/>
<feGaussianBlur stdDeviation="3.46205"/>
<feComposite in2="hardAlpha" operator="arithmetic" k2="-1" k3="1"/>
<feColorMatrix type="matrix" values="0 0 0 0 1 0 0 0 0 0.8157 0 0 0 0 0.0785006 0 0 0 0.4 0"/>
<feBlend mode="normal" in2="shape" result="effect1_innerShadow_3495_89697"/>
</filter>
<filter id="filter2_f_3495_89697" x="100.592" y="27.9939" width="9.94392" height="9.94392" filterUnits="userSpaceOnUse" color-interpolation-filters="sRGB">
<feFlood flood-opacity="0" result="BackgroundImageFix"/>
<feBlend mode="normal" in="SourceGraphic" in2="BackgroundImageFix" result="shape"/>
<feGaussianBlur stdDeviation="1.65737" result="effect1_foregroundBlur_3495_89697"/>
</filter>
<filter id="filter3_d_3495_89697" x="96.6589" y="18.7731" width="22.9869" height="22.9869" filterUnits="userSpaceOnUse" color-interpolation-filters="sRGB">
<feFlood flood-opacity="0" result="BackgroundImageFix"/>
<feColorMatrix in="SourceAlpha" type="matrix" values="0 0 0 0 0 0 0 0 0 0 0 0 0 0 0 0 0 0 127 0" result="hardAlpha"/>
<feOffset/>
<feGaussianBlur stdDeviation="5.46012"/>
<feComposite in2="hardAlpha" operator="out"/>
<feColorMatrix type="matrix" values="0 0 0 0 1 0 0 0 0 0.968627 0 0 0 0 0.670588 0 0 0 1 0"/>
<feBlend mode="normal" in2="BackgroundImageFix" result="effect1_dropShadow_3495_89697"/>
<feBlend mode="normal" in="SourceGraphic" in2="effect1_dropShadow_3495_89697" result="shape"/>
</filter>
<radialGradient id="paint0_radial_3495_89697" cx="0" cy="0" r="1" gradientTransform="matrix(-14.8242 18.5993 17.3492 17.2286 108.325 19.6138)" gradientUnits="userSpaceOnUse">
<stop stop-color="#FFECB3"/>
<stop offset="1" stop-color="#FFE288"/>
</radialGradient>
<radialGradient id="paint1_radial_3495_89697" cx="0" cy="0" r="1" gradientTransform="matrix(-4.23549 8.37891 8.12511 5.27682 108.509 17.9565)" gradientUnits="userSpaceOnUse">
<stop stop-color="white"/>
<stop offset="1" stop-color="white" stop-opacity="0"/>
</radialGradient>
<linearGradient id="paint2_linear_3495_89697" x1="91.1584" y1="41.1366" x2="79.7548" y2="49.9713" gradientUnits="userSpaceOnUse">
<stop stop-color="#FFECB3"/>
<stop offset="1" stop-color="#FFE28A"/>
</linearGradient>
<radialGradient id="paint3_radial_3495_89697" cx="0" cy="0" r="1" gradientTransform="matrix(-8.23811 -5.59361 -10.3715 9.68685 87.1694 47.8351)" gradientUnits="userSpaceOnUse">
<stop stop-color="#FFAE00" stop-opacity="0"/>
<stop offset="1" stop-color="#FFAE00"/>
</radialGradient>
<linearGradient id="paint4_linear_3495_89697" x1="50.6554" y1="41.1366" x2="39.7091" y2="48.5689" gradientUnits="userSpaceOnUse">
<stop stop-color="#FFECB3"/>
<stop offset="1" stop-color="#FFE28A"/>
</linearGradient>
<radialGradient id="paint5_radial_3495_89697" cx="0" cy="0" r="1" gradientTransform="matrix(-7.21992 -5.59361 -9.08962 9.68685 47.1595 47.8351)" gradientUnits="userSpaceOnUse">
<stop stop-color="#FFAE00" stop-opacity="0"/>
<stop offset="1" stop-color="#FFAE00"/>
</radialGradient>
<linearGradient id="paint6_linear_3495_89697" x1="78.4932" y1="32.0455" x2="41.2945" y2="89.5008" gradientUnits="userSpaceOnUse">
<stop stop-color="#472B03"/>
<stop offset="1" stop-color="#AD6907"/>
</linearGradient>
<radialGradient id="paint7_radial_3495_89697" cx="0" cy="0" r="1" gradientUnits="userSpaceOnUse" gradientTransform="translate(81.7158 38.6749) rotate(-180) scale(7.91853 1.95661)">
<stop stop-color="#1E1202"/>
<stop offset="1" stop-color="#1E1202" stop-opacity="0"/>
</radialGradient>
<linearGradient id="paint8_linear_3495_89697" x1="52.2043" y1="26.7042" x2="43.1993" y2="59.4403" gradientUnits="userSpaceOnUse">
<stop stop-color="#724100"/>
<stop offset="1" stop-color="#D87A00"/>
</linearGradient>
<linearGradient id="paint9_linear_3495_89697" x1="79.2749" y1="23.0204" x2="95.204" y2="46.868" gradientUnits="userSpaceOnUse">
<stop stop-color="#724100"/>
<stop offset="1" stop-color="#D87A00"/>
</linearGradient>
<linearGradient id="paint10_linear_3495_89697" x1="75.0393" y1="12.8929" x2="37.2882" y2="80.9369" gradientUnits="userSpaceOnUse">
<stop stop-color="#995E0C"/>
<stop offset="1" stop-color="#D87A00"/>
</linearGradient>
<linearGradient id="paint11_linear_3495_89697" x1="86.5486" y1="15.7464" x2="61.0436" y2="31.4914" gradientUnits="userSpaceOnUse">
<stop stop-color="#BF8012"/>
<stop offset="1" stop-color="#8F5607"/>
</linearGradient>
<linearGradient id="paint12_linear_3495_89697" x1="58.0055" y1="15.2868" x2="37.8914" y2="23.0237" gradientUnits="userSpaceOnUse">
<stop stop-color="#BF8012"/>
<stop offset="1" stop-color="#8F5607"/>
</linearGradient>
<linearGradient id="paint13_linear_3495_89697" x1="82.7284" y1="9.21066" x2="48.0424" y2="38.0427" gradientUnits="userSpaceOnUse">
<stop stop-color="#A7B60F"/>
<stop offset="1" stop-color="#717B04"/>
</linearGradient>
<linearGradient id="paint14_linear_3495_89697" x1="67.689" y1="4.91347" x2="71.1724" y2="48.4874" gradientUnits="userSpaceOnUse">
<stop stop-color="#3E4400"/>
<stop offset="1" stop-color="#8B9709"/>
</linearGradient>
<radialGradient id="paint15_radial_3495_89697" cx="0" cy="0" r="1" gradientUnits="userSpaceOnUse" gradientTransform="translate(34.5727 42.0801) rotate(-65.6589) scale(4.24449 3.67856)">
<stop stop-color="#EAB50D"/>
<stop offset="1" stop-color="#FFD551" stop-opacity="0"/>
</radialGradient>
<linearGradient id="paint16_linear_3495_89697" x1="108.016" y1="30.7311" x2="105.832" y2="34.2799" gradientUnits="userSpaceOnUse">
<stop stop-color="#251601"/>
<stop offset="1" stop-color="#5F3802"/>
</linearGradient>
<linearGradient id="paint17_linear_3495_89697" x1="57.0504" y1="7.63344" x2="58.1093" y2="9.23036" gradientUnits="userSpaceOnUse">
<stop stop-color="#6E7B02"/>
<stop offset="1" stop-color="#909D0B"/>
</linearGradient>
<linearGradient id="paint18_linear_3495_89697" x1="55.1021" y1="8.10222" x2="54.8865" y2="10.0061" gradientUnits="userSpaceOnUse">
<stop stop-color="#6E7B02"/>
<stop offset="1" stop-color="#909D0B"/>
</linearGradient>
<linearGradient id="paint19_linear_3495_89697" x1="68.0658" y1="11.9769" x2="67.8502" y2="13.8808" gradientUnits="userSpaceOnUse">
<stop stop-color="#6E7B02"/>
<stop offset="1" stop-color="#A5AB0E"/>
</linearGradient>
<linearGradient id="paint20_linear_3495_89697" x1="91.1696" y1="20.2598" x2="94.0633" y2="33.3711" gradientUnits="userSpaceOnUse">
<stop stop-color="#BDB710"/>
<stop offset="1" stop-color="#3C3F03"/>
</linearGradient>
<linearGradient id="paint21_linear_3495_89697" x1="114.816" y1="25.3228" x2="89.5871" y2="25.3228" gradientUnits="userSpaceOnUse">
<stop stop-color="#414102"/>
<stop offset="1" stop-color="#6B6B08"/>
</linearGradient>
</defs>
</svg>
