<svg width="437" height="366" viewBox="0 0 437 366" fill="none" xmlns="http://www.w3.org/2000/svg">
<path opacity="0.2" d="M218 3C291 2.99988 287.998 61.8789 285.247 82.8262C296.499 83.9844 300.999 88.9842 299.757 105.274C298.509 121.638 292.559 128.721 279 135.5C277 136.5 276 138.543 276 141.5C276 162.697 268.5 178.5 256.93 189C254.5 221.5 247 231 311 248C397.5 267 428 270.2 434 365H218V364H2C8 269.2 38.5 266 125 247C189 230 181.5 220.5 179.07 188C167.5 177.5 160 161.697 160 140.5C160 137.543 159 135.5 157 134.5C143.441 127.721 137.491 120.638 136.243 104.274C135.001 87.9842 139.501 82.9844 150.753 81.8262C148.002 60.8789 145 1.99988 218 2V3Z" fill="#FFBF00"/>
<path d="M218.5 2C291.5 1.99988 288.498 60.8788 285.747 81.826C296.999 82.9842 301.499 87.9842 300.257 104.275C299.009 120.639 293.059 127.721 279.5 134.5C277.5 135.5 276.5 137.543 276.5 140.5C276.5 161.697 269 177.5 257.429 188C255 220.5 247.5 230 311.5 247C398 266 428.5 269.2 434.5 364" stroke="#FFBF00" stroke-width="4" stroke-linecap="round"/>
<path d="M218 2C145 1.99988 148.002 60.8788 150.753 81.826C139.501 82.9842 135.001 87.9842 136.243 104.275C137.491 120.639 143.441 127.721 157 134.5C159 135.5 160 137.543 160 140.5C160 161.697 167.5 177.5 179.071 188C181.5 220.5 189 230 125 247C38.5 266 8 269.2 2 364" stroke="#FFBF00" stroke-width="4" stroke-linecap="round"/>
</svg>
