<svg width="30" height="30" viewBox="0 0 30 30" fill="none" xmlns="http://www.w3.org/2000/svg">
<g clip-path="url(#clip0_2505_30231)">
<path d="M11.4375 -0.0742188C11.8882 -0.0740095 12.2567 0.274954 12.2568 0.708984C12.2567 0.942584 12.1469 1.14832 11.9785 1.29102V2.25098H14.4551C14.9746 2.2512 15.2885 2.82559 15.0078 3.2627L13.6172 5.42383V9.22559H13.6104V14.9258H23.0137C26.1134 14.9258 28.6258 17.4384 28.626 20.5381V25.6504H28.6182V29.0635C28.618 29.5811 28.1983 30.0009 27.6807 30.001H21.9814C21.4638 30.001 21.0441 29.5811 21.0439 29.0635V25.6504H13.6104V29.0635C13.6101 29.5809 13.1903 30.0007 12.6729 30.001H6.97363C6.456 30.001 6.03634 29.5811 6.03613 29.0635V9.22559H4.58691V9.21191C2.82208 9.12953 1.40498 7.69712 1.31738 5.90723L1.31348 5.73145C1.31349 3.80606 2.8505 2.24436 4.74707 2.24414C4.81543 2.24415 4.88345 2.24701 4.9502 2.25098H8.52246V1.31445C8.33728 1.17159 8.21594 0.955746 8.21582 0.708984C8.21593 0.274843 8.58421 -0.0742188 9.03516 -0.0742188C9.48582 -0.0739385 9.85439 0.274994 9.85449 0.708984C9.85437 0.944292 9.74272 1.15119 9.57227 1.29395V2.25098H10.9287V1.31738C10.7413 1.17458 10.6183 0.957427 10.6182 0.708984C10.6183 0.274843 10.9866 -0.0742188 11.4375 -0.0742188Z" fill="black" fill-opacity="0.08"/>
<path d="M11.4375 -0.0742188C11.8882 -0.0740095 12.2567 0.274954 12.2568 0.708984C12.2567 0.942584 12.1469 1.14832 11.9785 1.29102V2.25098H14.4551C14.9746 2.2512 15.2885 2.82559 15.0078 3.2627L13.6172 5.42383V9.22559H13.6104V14.9258H23.0137C26.1134 14.9258 28.6258 17.4384 28.626 20.5381V25.6504H28.6182V29.0635C28.618 29.5811 28.1983 30.0009 27.6807 30.001H21.9814C21.4638 30.001 21.0441 29.5811 21.0439 29.0635V25.6504H13.6104V29.0635C13.6101 29.5809 13.1903 30.0007 12.6729 30.001H6.97363C6.456 30.001 6.03634 29.5811 6.03613 29.0635V9.22559H4.58691V9.21191C2.82208 9.12953 1.40498 7.69712 1.31738 5.90723L1.31348 5.73145C1.31349 3.80606 2.8505 2.24436 4.74707 2.24414C4.81543 2.24415 4.88345 2.24701 4.9502 2.25098H8.52246V1.31445C8.33728 1.17159 8.21594 0.955746 8.21582 0.708984C8.21593 0.274843 8.58421 -0.0742188 9.03516 -0.0742188C9.48582 -0.0739385 9.85439 0.274994 9.85449 0.708984C9.85437 0.944292 9.74272 1.15119 9.57227 1.29395V2.25098H10.9287V1.31738C10.7413 1.17458 10.6183 0.957427 10.6182 0.708984C10.6183 0.274843 10.9866 -0.0742188 11.4375 -0.0742188Z" fill="url(#paint0_linear_2505_30231)"/>
</g>
<defs>
<linearGradient id="paint0_linear_2505_30231" x1="1.35099" y1="31.8385" x2="35.5497" y2="-11.8927" gradientUnits="userSpaceOnUse">
<stop stop-color="#FFBF00"/>
<stop offset="1" stop-color="#FFD454"/>
</linearGradient>
<clipPath id="clip0_2505_30231">
<rect width="30" height="30" fill="white"/>
</clipPath>
</defs>
</svg>
