<svg width="27" height="28" viewBox="0 0 27 28" fill="none" xmlns="http://www.w3.org/2000/svg">
<path d="M13.5 13.8379H13.502V12.8105C17.5605 10.2064 20.2498 5.65386 20.25 0.473633C20.25 0.315624 20.2462 0.157778 20.2412 0.000976562H26.9941C26.9975 0.157969 27 0.315826 27 0.473633C26.9999 6.62333 24.404 12.1655 20.25 16.0684V20.3184H27V27.0684H13.5V13.8379Z" fill="url(#paint0_linear_symbol)"/>
<path d="M13.5 13.5H13.498V14.1904C9.43937 16.7946 6.75004 21.347 6.75 26.5273C6.75 26.6855 6.75381 26.8431 6.75879 27H0.00585938C0.00245495 26.8429 0 26.6853 0 26.5273C3.26829e-05 20.3776 2.59599 14.8356 6.75 10.9326V6.75H0V0H13.5V13.5Z" fill="url(#paint1_linear_symbol)"/>
<defs>
<linearGradient id="paint0_linear_symbol" x1="27" y1="0.000976362" x2="13.5001" y2="27.0684" gradientUnits="userSpaceOnUse">
<stop stop-color="var(--color-yellow-300)" stop-opacity="1"/>
<stop offset="1" stop-color="var(--color-sementic-brand-primary)" stop-opacity="1"/>
</linearGradient>
<linearGradient id="paint1_linear_symbol" x1="13.5" y1="-4.02331e-07" x2="0" y2="27" gradientUnits="userSpaceOnUse">
<stop stop-color="var(--color-sementic-brand-primary)" stop-opacity="1"/>
<stop offset="1" stop-color="var(--color-yellow-300)" stop-opacity="1"/>
</linearGradient>
</defs>
</svg>
