<svg xmlns="http://www.w3.org/2000/svg" width="25" height="19" viewBox="0 0 25 19" fill="none">
  <path fill-rule="evenodd" clip-rule="evenodd" d="M18.2965 0C19.1867 0 19.9229 0.506333 20.4619 1.03833C21.023 1.59017 21.5375 2.33217 21.9949 3.15C22.913 4.79033 23.7122 6.9335 24.2407 9.051C24.7657 11.1522 25.0562 13.3467 24.8707 15.0722C24.684 16.8047 23.7915 18.6667 21.7965 18.6667C20.0745 18.6667 18.7025 17.78 17.5802 16.8805L17.1707 16.5433L16.5967 16.0592L16.0787 15.6298C14.8899 14.6673 13.834 14 12.4632 14C11.0924 14 10.0365 14.6673 8.8477 15.6298L8.3297 16.0592L7.7557 16.5433L7.34737 16.8805C6.2227 17.78 4.8507 18.6667 3.12986 18.6667C1.1337 18.6667 0.241198 16.8047 0.0556979 15.0722C-0.128635 13.3455 0.160698 11.1522 0.685698 9.051C1.2142 6.9335 2.01336 4.79033 2.93153 3.14883C3.38886 2.33217 3.90337 1.59017 4.46453 1.03717C5.00353 0.506333 5.7397 0 6.62987 0C7.2307 0 7.81753 0.1435 8.39503 0.315L9.0857 0.526167C9.20081 0.561945 9.31553 0.595778 9.42986 0.627667C10.439 0.917 11.4715 1.16667 12.4632 1.16667C13.4549 1.16667 14.4874 0.917 15.4965 0.627667L16.529 0.316167C17.11 0.144667 17.7015 0 18.2965 0ZM18.2965 2.33333C17.8497 2.33333 17.383 2.46867 16.9304 2.61683L16.396 2.793L16.1382 2.87233C15.1057 3.16633 13.8049 3.5 12.4632 3.5C11.1215 3.5 9.8207 3.16633 8.7882 2.87233L8.53153 2.793L7.99603 2.61683C7.54337 2.4675 7.0767 2.33333 6.62987 2.33333C6.1422 2.42433 5.7047 3.01583 5.37453 3.56417L5.1902 3.885L4.96853 4.28867C4.17287 5.70967 3.4402 7.64867 2.9502 9.61683C2.48936 11.4555 2.26536 13.2172 2.35053 14.5285L2.38086 14.8703L2.4042 15.0757L2.4392 15.3183C2.5197 15.7862 2.69353 16.3333 3.12986 16.3333C4.0772 16.3333 4.8682 15.862 5.8517 15.0803L6.32187 14.6977L7.20853 13.9557L7.60987 13.629C8.8512 12.6455 10.404 11.6667 12.4632 11.6667C14.5224 11.6667 16.0752 12.6467 17.3165 13.629L17.719 13.9557L18.6057 14.6977L19.0747 15.0803C20.0582 15.862 20.848 16.3333 21.7965 16.3333C22.1932 16.3333 22.3729 15.8818 22.4627 15.4478L22.507 15.1935L22.5502 14.8237C22.6937 13.4867 22.472 11.5978 21.9774 9.61683C21.527 7.81317 20.8737 6.03283 20.155 4.65383L19.7362 3.88383L19.5519 3.56533C19.2217 3.01583 18.7842 2.42433 18.2965 2.33333ZM8.37986 4.66667C9.15341 4.66667 9.89528 4.97396 10.4423 5.52094C10.9892 6.06792 11.2965 6.80978 11.2965 7.58333C11.2965 8.35688 10.9892 9.09875 10.4423 9.64573C9.89528 10.1927 9.15341 10.5 8.37986 10.5C7.60632 10.5 6.86445 10.1927 6.31747 9.64573C5.77049 9.09875 5.4632 8.35688 5.4632 7.58333C5.4632 6.80978 5.77049 6.06792 6.31747 5.52094C6.86445 4.97396 7.60632 4.66667 8.37986 4.66667ZM16.5465 4.66667C16.8323 4.6667 17.1081 4.77161 17.3216 4.9615C17.5352 5.15139 17.6716 5.41304 17.705 5.69683L17.7132 5.83333V6.41667H18.2965C18.5939 6.417 18.8799 6.53086 19.0961 6.73499C19.3124 6.93912 19.4425 7.21811 19.4599 7.51496C19.4773 7.81181 19.3807 8.10411 19.1899 8.33214C18.999 8.56016 18.7283 8.70671 18.433 8.74183L18.2965 8.75H17.7132V9.33333C17.7129 9.63069 17.599 9.9167 17.3949 10.1329C17.1907 10.3492 16.9118 10.4793 16.6149 10.4967C16.3181 10.5141 16.0258 10.4175 15.7977 10.2267C15.5697 10.0358 15.4232 9.76511 15.388 9.46983L15.3799 9.33333V8.75H14.7965C14.4992 8.74967 14.2132 8.63581 13.9969 8.43168C13.7807 8.22754 13.6506 7.94855 13.6332 7.6517C13.6157 7.35486 13.7123 7.06256 13.9032 6.83453C14.094 6.6065 14.3648 6.45995 14.66 6.42483L14.7965 6.41667H15.3799V5.83333C15.3799 5.52391 15.5028 5.22717 15.7216 5.00838C15.9404 4.78958 16.2371 4.66667 16.5465 4.66667ZM8.37986 7C8.22516 7 8.07678 7.06146 7.96739 7.17085C7.85799 7.28025 7.79653 7.42862 7.79653 7.58333C7.79653 7.73804 7.85799 7.88642 7.96739 7.99581C8.07678 8.10521 8.22516 8.16667 8.37986 8.16667C8.53457 8.16667 8.68295 8.10521 8.79235 7.99581C8.90174 7.88642 8.9632 7.73804 8.9632 7.58333C8.9632 7.42862 8.90174 7.28025 8.79235 7.17085C8.68295 7.06146 8.53457 7 8.37986 7Z" fill="currentColor"/>
</svg>