<svg xmlns="http://www.w3.org/2000/svg" width="26" height="24" viewBox="0 0 26 24" fill="none">
  <path d="M13 16.7687C13.3683 16.7687 13.6773 16.6448 13.9269 16.3972C14.1765 16.1495 14.3009 15.8434 14.3 15.4788C14.2991 15.1142 14.1743 14.808 13.9256 14.5604C13.6769 14.3127 13.3683 14.1889 13 14.1889C12.6317 14.1889 12.3231 14.3127 12.0744 14.5604C11.8257 14.808 11.7009 15.1142 11.7 15.4788C11.6991 15.8434 11.8239 16.1499 12.0744 16.3985C12.3249 16.647 12.6334 16.7704 13 16.7687ZM13 11.6091C13.3683 11.6091 13.6773 11.4852 13.9269 11.2376C14.1765 10.9899 14.3009 10.6838 14.3 10.3192V5.15959C14.3 4.79412 14.1752 4.48798 13.9256 4.24118C13.676 3.99438 13.3675 3.87055 13 3.86969C12.6325 3.86883 12.324 3.99266 12.0744 4.24118C11.8248 4.4897 11.7 4.79584 11.7 5.15959V10.3192C11.7 10.6846 11.8248 10.9912 12.0744 11.2389C12.324 11.4865 12.6325 11.6099 13 11.6091ZM5.2 20.6383L2.21 23.6051C1.79834 24.0136 1.32687 24.1052 0.795602 23.8799C0.264335 23.6546 -0.000864549 23.2512 2.11726e-06 22.6699V2.57979C2.11726e-06 1.87035 0.254802 1.26324 0.764402 0.758459C1.274 0.25368 1.88587 0.000859931 2.6 0H23.4C24.115 0 24.7273 0.25282 25.2369 0.758459C25.7465 1.2641 26.0009 1.87121 26 2.57979V18.0586C26 18.768 25.7456 19.3755 25.2369 19.8812C24.7282 20.3868 24.1159 20.6392 23.4 20.6383H5.2ZM4.095 18.0586H23.4V2.57979H2.6V19.5097L4.095 18.0586Z" fill="currentColor"/>
</svg>