<svg xmlns="http://www.w3.org/2000/svg" width="11" height="14" viewBox="0 0 11 14" fill="none">
  <path d="M5.5 0C6.50174 0 7.32529 0.242098 7.97852 0.686523C8.62926 1.12936 9.0531 1.7338 9.32422 2.36328C9.66901 3.16384 9.78072 4.04346 9.80176 4.79688C10.4723 4.84992 11 5.41053 11 6.09473V12.4893C11 13.2085 10.4165 13.792 9.69727 13.792H1.30273C0.58349 13.792 0 13.2085 0 12.4893V6.09473C0 5.41086 0.527168 4.85039 1.19727 4.79688C1.2183 4.04345 1.331 3.16384 1.67578 2.36328C1.94689 1.73379 2.37073 1.12936 3.02148 0.686523C3.67471 0.242088 4.49825 6.05489e-06 5.5 0ZM5.5 1.61523C4.76517 1.61524 4.27139 1.78993 3.92969 2.02246C3.58567 2.25667 3.33663 2.58998 3.15918 3.00195C2.92372 3.54866 2.83291 4.18977 2.8125 4.79199H8.1875C8.16709 4.18977 8.07629 3.54867 7.84082 3.00195C7.66335 2.58997 7.41434 2.25667 7.07031 2.02246C6.7286 1.78993 6.23482 1.61523 5.5 1.61523Z" fill="currentColor"/>
</svg>