<svg xmlns="http://www.w3.org/2000/svg" width="28" height="35" viewBox="0 0 28 35" fill="none">
  <path d="M21.5995 1.60307L21.5996 9.46484L6.39961 10.4648L6.39961 1.62606C6.39961 0.443363 6.92314 0.00237527 8.56828 0.00139027L13.1045 0.000406476C13.6085 0.00040652 14.1126 0.00139076 14.6166 0.0013908L19.1528 0.00139024C20.1609 -0.000578052 21.5995 0.426035 21.5995 1.60307Z" fill="url(#paint0_linear_2795_14628)"/>
  <mask id="mask0_2795_14628" style="mask-type:alpha" maskUnits="userSpaceOnUse" x="6" y="-1" width="16" height="12">
    <path d="M21.6 1.60112L21.6001 9.46289L6.4001 10.4629L6.4001 1.6241C6.4001 0.44141 6.92363 0.000422148 8.56877 -0.000562853L13.105 -0.00154665C13.609 -0.0015466 14.1131 -0.000562369 14.6171 -0.000562325L19.1533 -0.000562882C20.1614 -0.00253118 21.6 0.424082 21.6 1.60112Z" fill="url(#paint1_linear_2795_14628)"/>
  </mask>
  <g mask="url(#mask0_2795_14628)">
    <rect x="10.0806" width="8.06441" height="9.07246" fill="white" fill-opacity="0.8"/>
  </g>
  <path d="M28 20.0488C28 27.7808 21.732 34.0488 14 34.0488C6.26801 34.0488 0 27.7808 0 20.0488C0 12.3168 6.26801 6.04883 14 6.04883C21.732 6.04883 28 12.3168 28 20.0488Z" fill="url(#paint2_linear_2795_14628)"/>
  <path d="M23.9997 20.25C23.9997 14.8376 19.6121 10.45 14.1997 10.45C8.78732 10.45 4.39971 14.8376 4.39971 20.25C4.39971 25.6624 8.78732 30.05 14.1997 30.05V31.25C8.12457 31.25 3.19971 26.3251 3.19971 20.25C3.19971 14.1749 8.12457 9.25 14.1997 9.25C20.2748 9.25 25.1997 14.1749 25.1997 20.25C25.1997 26.3251 20.2748 31.25 14.1997 31.25V30.05C19.6121 30.05 23.9997 25.6624 23.9997 20.25Z" fill="url(#paint3_linear_2795_14628)"/>
  <path d="M13.639 14.0051C13.7839 13.7014 14.2161 13.7014 14.361 14.0051L15.9802 17.3984C16.0385 17.5206 16.1547 17.605 16.2889 17.6227L20.0165 18.1141C20.3501 18.158 20.4836 18.5691 20.2396 18.8007L17.5128 21.3893C17.4145 21.4825 17.3702 21.6191 17.3948 21.7522L18.0794 25.4492C18.1407 25.78 17.791 26.0341 17.4953 25.8736L14.1908 24.0801C14.0718 24.0155 13.9282 24.0155 13.8092 24.0801L10.5047 25.8736C10.209 26.0341 9.85929 25.78 9.92054 25.4492L10.6051 21.7522C10.6298 21.6191 10.5854 21.4825 10.4872 21.3893L7.76033 18.8007C7.51631 18.5691 7.64988 18.158 7.98344 18.1141L11.711 17.6227C11.8453 17.605 11.9614 17.5206 12.0198 17.3984L13.639 14.0051Z" fill="#FFD847"/>
  <defs>
    <linearGradient id="paint0_linear_2795_14628" x1="13.9996" y1="10.4648" x2="13.9996" y2="1.26484" gradientUnits="userSpaceOnUse">
      <stop stop-color="#FF4F16"/>
      <stop offset="1" stop-color="#FF7C37"/>
    </linearGradient>
    <linearGradient id="paint1_linear_2795_14628" x1="14.0001" y1="10.4629" x2="14.0001" y2="1.26289" gradientUnits="userSpaceOnUse">
      <stop stop-color="#FF4F16"/>
      <stop offset="1" stop-color="#FF7C37"/>
    </linearGradient>
    <linearGradient id="paint2_linear_2795_14628" x1="-1.4" y1="3.44883" x2="25.4" y2="35.2488" gradientUnits="userSpaceOnUse">
      <stop stop-color="#FFDB28"/>
      <stop offset="1" stop-color="#FFAE00"/>
    </linearGradient>
    <linearGradient id="paint3_linear_2795_14628" x1="10.9997" y1="6.45" x2="20.1997" y2="38.05" gradientUnits="userSpaceOnUse">
      <stop stop-color="#F39E03"/>
      <stop offset="1" stop-color="#FFB733"/>
    </linearGradient>
  </defs>
</svg>