<svg xmlns="http://www.w3.org/2000/svg" width="20" height="20" viewBox="0 0 20 20" fill="none">
  <path d="M12.4988 15.8327C12.4988 17.2134 11.3795 18.3327 9.99879 18.3327C8.61808 18.3327 7.49879 17.2134 7.49879 15.8327M11.4959 5.19815C11.8588 4.82322 12.0821 4.31236 12.0821 3.74935C12.0821 2.59876 11.1494 1.66602 9.99879 1.66602C8.8482 1.66602 7.91546 2.59876 7.91546 3.74935C7.91546 4.31236 8.13879 4.82322 8.5017 5.19815M14.9988 9.33268C14.9988 8.18341 14.472 7.08121 13.5343 6.26855C12.5966 5.4559 11.3249 4.99935 9.99879 4.99935C8.67271 4.99935 7.40094 5.4559 6.46326 6.26855C5.52558 7.08121 4.99879 8.18341 4.99879 9.33268C4.99879 11.2342 4.52723 12.6248 3.93884 13.6199C3.26824 14.754 2.93294 15.3211 2.94618 15.4566C2.96133 15.6115 2.98922 15.6604 3.11491 15.7523C3.22477 15.8327 3.77672 15.8327 4.88061 15.8327H15.117C16.2209 15.8327 16.7728 15.8327 16.8827 15.7523C17.0084 15.6604 17.0363 15.6115 17.0514 15.4566C17.0646 15.3211 16.7293 14.754 16.0587 13.6199C15.4703 12.6248 14.9988 11.2342 14.9988 9.33268Z" stroke="currentColor" stroke-width="1.5" stroke-linecap="round" stroke-linejoin="round"/>
</svg>