<svg width="150" height="100" viewBox="0 0 150 100" fill="none" xmlns="http://www.w3.org/2000/svg">
<path d="M66.875 79.1992L57.5 80.6055L62.9059 97.3242L68.2184 97.3242L66.875 79.1992Z" fill="#F0AA00"/>
<path d="M68.0409 94.8242H62.0991L62.885 97.3242H68.2188L68.0409 94.8242Z" fill="url(#paint0_linear_3495_89906)"/>
<path d="M83.2188 79.6289L74.7813 79.6291L75.4063 97.0093L80.5625 97.0093L83.2188 79.6289Z" fill="#F0AA00"/>
<path d="M80.8985 94.8223H75.3309L75.4075 97.3223H80.5637L80.8985 94.8223Z" fill="#7B7B7B"/>
<path d="M80.8985 94.8223H75.3309L75.4075 97.3223H80.5637L80.8985 94.8223Z" fill="url(#paint1_linear_3495_89906)"/>
<path d="M88.7062 79.1961L79.6262 79.1929L83.845 97.3032L88.7062 97.3032L88.7062 79.1961Z" fill="#FFBE2B"/>
<path d="M88.709 94.8242H83.2655L83.6885 97.3242L88.709 97.3059V94.8242Z" fill="#A6A6A6"/>
<path d="M88.709 94.8242H83.2655L83.6885 97.3242L88.709 97.3059V94.8242Z" fill="url(#paint2_linear_3495_89906)"/>
<path d="M62.9062 81.0742L53.6875 79.8242L51.6562 97.3242L57.4375 97.3242L62.9062 81.0742Z" fill="#FFC135"/>
<path d="M58.2793 94.8242H51.9322L51.6567 97.3242H57.4364L58.2793 94.8242Z" fill="url(#paint3_linear_3495_89906)"/>
<path d="M41.8125 73.5742C41.5 70.6576 43 64.1055 48.375 61.2305" stroke="url(#paint4_linear_3495_89906)" stroke-width="1.25" stroke-linecap="round"/>
<rect width="1.875" height="3.75" transform="matrix(-1 0 0 1 86.5 9.82422)" fill="#331E01"/>
<rect width="1.875" height="3.75" transform="matrix(-1 0 0 1 81.1875 9.82422)" fill="#331E01"/>
<path d="M39 76.543C39 78.1826 39.9375 79.8242 42.4375 80.918C43.6875 79.043 44.9375 78.1826 44.9375 76.543C44.9375 74.9034 43.6083 73.5742 41.9688 73.5742C40.3292 73.5742 39 74.9034 39 76.543Z" fill="url(#paint5_linear_3495_89906)"/>
<g filter="url(#filter0_i_3495_89906)">
<path d="M96.7973 14.603L94.1562 20.1367L84.4688 13.2617H95.9513C96.6407 13.2617 97.0943 13.9808 96.7973 14.603Z" fill="#FFAE00"/>
</g>
<g filter="url(#filter1_i_3495_89906)">
<path d="M57.749 56.0752C57.6972 56.0746 57.6448 56.0742 57.5928 56.0742C50.6031 56.0745 44.9365 61.7408 44.9365 68.7305C44.9365 75.7202 50.6031 81.3865 57.5928 81.3867C57.6448 81.3867 57.6972 81.3854 57.749 81.3848V81.3867H84.3115V81.3848C91.2296 81.3013 96.8115 75.6683 96.8115 68.7305C96.8115 61.7926 91.2296 56.1586 84.3115 56.0752V56.0742H57.749V56.0752Z" fill="url(#paint6_linear_3495_89906)"/>
</g>
<path d="M75.0928 13.2617C72.4367 16.7835 71.8115 18.2235 71.8115 25.2061L71.8213 25.2002C71.8155 25.3544 71.8115 25.5094 71.8115 25.665C71.8115 25.7162 71.8128 25.7673 71.8135 25.8184H71.8125V53.5352L82.4375 59.8125L95.999 62.876L96.8125 68.251V28.4121C97.0164 27.5284 97.124 26.6091 97.124 25.665C97.124 18.866 91.5418 13.3447 84.624 13.2627V13.2617H75.0928Z" fill="url(#paint7_linear_3495_89906)"/>
<path d="M75.0928 13.2617C72.4367 16.7835 71.8115 18.2235 71.8115 25.2061L71.8213 25.2002C71.8155 25.3544 71.8115 25.5094 71.8115 25.665C71.8115 25.7162 71.8128 25.7673 71.8135 25.8184H71.8125V53.5352L82.4375 59.8125L95.999 62.876L96.8125 68.251V28.4121C97.0164 27.5284 97.124 26.6091 97.124 25.665C97.124 18.866 91.5418 13.3447 84.624 13.2627V13.2617H75.0928Z" fill="url(#paint8_linear_3495_89906)"/>
<path d="M65.9675 14.8954L72.125 20.4492L75.25 13.2617H66.5954C65.7367 13.2617 65.3298 14.3202 65.9675 14.8954Z" fill="url(#paint9_linear_3495_89906)"/>
<mask id="mask0_3495_89906" style="mask-type:alpha" maskUnits="userSpaceOnUse" x="65" y="13" width="11" height="8">
<path d="M65.9675 14.8954L72.125 20.4492L75.25 13.2617H66.5954C65.7367 13.2617 65.3298 14.3202 65.9675 14.8954Z" fill="#D9D9D9"/>
</mask>
<g mask="url(#mask0_3495_89906)">
<path d="M73.5918 15.1367L71.9739 20.4492L65.1543 15.1367H73.5918Z" fill="url(#paint10_linear_3495_89906)"/>
</g>
<g filter="url(#filter2_i_3495_89906)">
<mask id="mask1_3495_89906" style="mask-type:alpha" maskUnits="userSpaceOnUse" x="44" y="13" width="54" height="69">
<path d="M75.0928 13.2617C72.4367 16.7835 71.8115 18.2235 71.8115 25.2061L71.8213 25.2002C71.8155 25.3544 71.8115 25.5094 71.8115 25.665C71.8115 25.7162 71.8128 25.7673 71.8135 25.8184H71.8125V53.5352L76.1104 56.0742H57.749V56.0752C57.6972 56.0746 57.6448 56.0742 57.5928 56.0742C50.6031 56.0745 44.9365 61.7408 44.9365 68.7305C44.9365 75.7202 50.6031 81.3865 57.5928 81.3867C57.6448 81.3867 57.6972 81.3854 57.749 81.3848V81.3867H84.3115V81.3848C91.2294 81.3011 96.8115 75.6682 96.8115 68.7305C96.8115 68.7178 96.8116 68.7051 96.8115 68.6924L96.8125 68.6943V28.4121C97.0164 27.5284 97.124 26.6091 97.124 25.665C97.124 18.866 91.5418 13.3447 84.624 13.2627V13.2617H75.0928Z" fill="url(#paint11_linear_3495_89906)"/>
</mask>
<g mask="url(#mask1_3495_89906)">
<path d="M68.375 20.6055C68.375 26.3009 70.2868 30.6055 76.5 30.6055C85.4062 31.3867 86.9688 26.3009 86.9688 20.6055C86.9688 14.91 84.9007 11.6992 78.6875 11.6992C72.4743 11.6992 68.375 14.91 68.375 20.6055Z" fill="#AD6500"/>
<path d="M85.0938 39.6675C83.2188 39.3551 82.9062 40.1362 81.3438 41.6987C80.4062 42.9487 80.0938 43.5626 80.0938 44.6675C80.0938 44.98 80.25 47.9893 83.375 48.105C86.75 48.23 87.75 46.1506 87.75 44.1987C87.75 41.5425 86.9688 39.9799 85.0938 39.6675Z" fill="#AD6500"/>
<path d="M67.9355 49.3506C63.2059 49.3505 55.0928 48.1059 54.7803 57.168C54.649 60.9793 57.5928 59.8246 59.7803 63.418C62.5927 67.3241 65.1954 67.3242 67.9355 67.3242C72.665 67.3242 76.4988 63.3008 76.499 58.3379C76.499 53.3747 72.6651 49.3506 67.9355 49.3506Z" fill="#AD6500"/>
<path d="M49 59.5117C49 60.7198 50.0493 61.2305 51.3438 61.2305C52.6382 61.2305 53.8438 60.7198 53.8438 59.5117C53.8438 57.6367 52.7944 57.168 51.5 57.168C50.2056 57.168 49 58.3036 49 59.5117Z" fill="#AD6500"/>
<path d="M54.3125 64.2593C54.3125 65.0957 54.9218 65.4492 55.6734 65.4492C56.425 65.4492 57.125 65.0957 57.125 64.2593C57.125 62.9612 56.5157 62.6367 55.7641 62.6367C55.0125 62.6367 54.3125 63.4229 54.3125 64.2593Z" fill="#AD6500"/>
<path d="M79.4688 33.1055C79.4688 34.3136 79.9375 35.918 82.2812 36.0742C83.5757 36.0742 84 34.9386 84 33.7305C84 32.5223 82.9507 31.3867 81.6562 31.3867C80.3618 31.3867 79.4688 31.8973 79.4688 33.1055Z" fill="#AD6500"/>
<path d="M61.8125 37.168C61.8125 40.8786 67.0454 44.1992 71.1875 44.1992C75.3297 44.1992 76.1876 41.0742 76.9688 37.168C77.7499 33.2617 73.4547 30.4492 69.3125 30.4492C65.1704 30.4492 61.8125 33.4573 61.8125 37.168Z" fill="#AD6500"/>
</g>
</g>
<path d="M70.5625 53.2617L69.3125 51.543" stroke="url(#paint12_linear_3495_89906)" stroke-width="0.625" stroke-linecap="round"/>
<circle cx="1.5625" cy="1.5625" r="1.5625" transform="matrix(-1 0 0 1 81.8125 7.63672)" fill="url(#paint13_linear_3495_89906)"/>
<circle cx="1.5625" cy="1.5625" r="1.5625" transform="matrix(-1 0 0 1 87.125 7.63672)" fill="url(#paint14_linear_3495_89906)"/>
<path d="M80.25 24.5695C80.25 25.7802 81.2294 26.7617 82.4375 26.7617C83.6456 26.7617 84.625 25.7802 84.625 24.5695L84.625 23.2664C84.625 22.0557 83.6456 21.0742 82.4375 21.0742C81.2294 21.0742 80.25 22.0557 80.25 23.2664L80.25 24.5695Z" fill="#231400"/>
<path d="M80.25 24.6539C80.25 25.818 81.2294 26.7617 82.4375 26.7617C83.6456 26.7617 84.625 25.818 84.625 24.6539L84.625 24.5742L80.25 24.5742L80.25 24.6539Z" fill="url(#paint15_linear_3495_89906)"/>
<g filter="url(#filter3_d_3495_89906)">
<path d="M83.5322 23.6992C83.8947 23.6992 84.1885 23.4054 84.1885 23.043C84.1885 22.6805 83.8947 22.3867 83.5322 22.3867C83.1698 22.3867 82.876 22.6805 82.876 23.043C82.876 23.4054 83.1698 23.6992 83.5322 23.6992Z" fill="white"/>
</g>
<circle cx="64.6702" cy="55.8343" r="2.57257" fill="#EDEDED"/>
<path d="M53.7733 31.9902C54.3241 31.7263 54.8872 32.1339 55.0565 32.7207C57.2149 40.2018 62.2678 44.9991 65.8785 47.2323C68.7662 48.4131 71.0308 50.943 71.0309 54.2176C71.0309 55.4003 70.7467 56.5167 70.243 57.5022L70.0864 57.8693C69.7493 58.4365 69.5546 58.7158 69.1066 59.1277C67.7864 60.5529 65.8992 61.4454 63.8033 61.4454C63.1635 61.4453 62.5433 61.3617 61.9525 61.2056C60.3475 61.1336 58.8657 60.8316 57.8226 60.5066C54.4571 59.5364 55.1822 57.525 55.9655 56.6407C50.2046 55.2762 51.226 53.1975 53.1796 51.9878C48.9913 50.8493 47.3891 46.2227 47.4572 43.6311C47.4787 42.8128 48.2513 42.3548 49.0673 42.4202L51.5311 42.6177C49.3991 36.0626 51.8483 32.9131 53.7733 31.9902Z" fill="#D1EDFF"/>
<path d="M53.7733 31.9902C54.3241 31.7263 54.8872 32.1339 55.0565 32.7207C57.2149 40.2018 62.2678 44.9991 65.8785 47.2323C68.7662 48.4131 71.0308 50.943 71.0309 54.2176C71.0309 55.4003 70.7467 56.5167 70.243 57.5022L70.0864 57.8693C69.7493 58.4365 69.5546 58.7158 69.1066 59.1277C67.7864 60.5529 65.8992 61.4454 63.8033 61.4454C63.1635 61.4453 62.5433 61.3617 61.9525 61.2056C60.3475 61.1336 58.8657 60.8316 57.8226 60.5066C54.4571 59.5364 55.1822 57.525 55.9655 56.6407C50.2046 55.2762 51.226 53.1975 53.1796 51.9878C48.9913 50.8493 47.3891 46.2227 47.4572 43.6311C47.4787 42.8128 48.2513 42.3548 49.0673 42.4202L51.5311 42.6177C49.3991 36.0626 51.8483 32.9131 53.7733 31.9902Z" fill="url(#paint16_radial_3495_89906)" fill-opacity="0.5"/>
<path d="M53.7733 31.9902C54.3241 31.7263 54.8872 32.1339 55.0565 32.7207C57.2149 40.2018 62.2678 44.9991 65.8785 47.2323C68.7662 48.4131 71.0308 50.943 71.0309 54.2176C71.0309 55.4003 70.7467 56.5167 70.243 57.5022L70.0864 57.8693C69.7493 58.4365 69.5546 58.7158 69.1066 59.1277C67.7864 60.5529 65.8992 61.4454 63.8033 61.4454C63.1635 61.4453 62.5433 61.3617 61.9525 61.2056C60.3475 61.1336 58.8657 60.8316 57.8226 60.5066C54.4571 59.5364 55.1822 57.525 55.9655 56.6407C50.2046 55.2762 51.226 53.1975 53.1796 51.9878C48.9913 50.8493 47.3891 46.2227 47.4572 43.6311C47.4787 42.8128 48.2513 42.3548 49.0673 42.4202L51.5311 42.6177C49.3991 36.0626 51.8483 32.9131 53.7733 31.9902Z" fill="url(#paint17_linear_3495_89906)" fill-opacity="0.2"/>
<g filter="url(#filter4_i_3495_89906)">
<path d="M83.166 1.5C84.915 1.50001 86.4751 1.79704 87.5791 2.25879C88.1321 2.4901 88.5472 2.75338 88.8164 3.01953C89.0836 3.28381 89.1797 3.52201 89.1797 3.72461C89.1796 3.9271 89.0833 4.16464 88.8164 4.42871C88.5473 4.69485 88.1321 4.95815 87.5791 5.18945C86.4751 5.6512 84.915 5.94824 83.166 5.94824C81.4171 5.94824 79.857 5.6512 78.7529 5.18945C78.1999 4.95814 77.7848 4.69486 77.5156 4.42871C77.2486 4.16461 77.1525 3.92711 77.1523 3.72461C77.1523 3.522 77.2484 3.28384 77.5156 3.01953C77.7848 2.75337 78.1998 2.49011 78.7529 2.25879C79.857 1.79705 81.4171 1.5 83.166 1.5Z" stroke="#FFC310"/>
</g>
<mask id="mask2_3495_89906" style="mask-type:alpha" maskUnits="userSpaceOnUse" x="47" y="31" width="25" height="31">
<path d="M53.7733 31.9902C54.3241 31.7263 54.8872 32.1339 55.0565 32.7207C57.2149 40.2018 62.2678 44.9991 65.8785 47.2323C68.7662 48.4131 71.0308 50.943 71.0309 54.2176C71.0309 55.4003 70.7467 56.5167 70.243 57.5022L70.0864 57.8693C69.7493 58.4365 69.5546 58.7158 69.1066 59.1277C67.7864 60.5529 65.8992 61.4454 63.8033 61.4454C63.1635 61.4453 62.5433 61.3617 61.9525 61.2056C60.3475 61.1336 58.8657 60.8316 57.8226 60.5066C54.4571 59.5364 55.1822 57.525 55.9655 56.6407C50.2046 55.2762 51.226 53.1975 53.1796 51.9878C48.9913 50.8493 47.3891 46.2227 47.4572 43.6311C47.4787 42.8128 48.2513 42.3548 49.0673 42.4202L51.5311 42.6177C49.3991 36.0626 51.8483 32.9131 53.7733 31.9902Z" fill="#D9D9D9"/>
</mask>
<g mask="url(#mask2_3495_89906)">
<path d="M67.5466 55.8504C67.5387 54.7114 65.8632 52.7074 64.0371 53.4724C62.6882 54.0375 61.7285 55.1423 62.4305 57.6616C63.3021 60.3086 65.6399 61.1777 69.097 59.8062" stroke="url(#paint18_linear_3495_89906)" stroke-linecap="round"/>
<path d="M55.1778 31.7871C53.502 32.4452 50.0794 34.6524 51.6186 42.4003" stroke="url(#paint19_linear_3495_89906)" stroke-width="1.5"/>
<path d="M49.1495 41.3418C46.1471 44.698 50.343 49.7341 52.468 52.4569" stroke="url(#paint20_linear_3495_89906)" stroke-width="1.5"/>
</g>
<path d="M82.4326 66.7971C85.3201 67.7797 88.3981 64.7668 89.5762 63.1376L78.7575 57.8349L71.6162 55.9609C74.8982 63.6594 80.1946 66.3927 82.4326 66.7971Z" fill="white"/>
<path d="M82.4326 66.7971C85.3201 67.7797 88.3981 64.7668 89.5762 63.1376L78.7575 57.8349L71.6162 55.9609C74.8982 63.6594 80.1946 66.3927 82.4326 66.7971Z" fill="url(#paint21_linear_3495_89906)"/>
<path d="M98.4998 68C96.8835 68.5996 93.3748 64.5 92.5052 63.2194L92.2119 61.8833L98.0122 59.4395C98.6639 59.7523 98.6739 60.7559 98.9998 61.375C99.456 62.5698 100.116 67.4004 98.4998 68Z" fill="url(#paint22_linear_3495_89906)"/>
<path d="M89.3955 69.6656C90.039 68.8174 91.2664 66.3381 91.0277 63.207" stroke="url(#paint23_linear_3495_89906)" stroke-width="0.5"/>
<path d="M95.3983 68.9812C94.8753 66.375 91.2878 62.875 91.5002 62.875" stroke="url(#paint24_linear_3495_89906)" stroke-width="0.5"/>
<circle cx="88.8473" cy="71.9635" r="2.67249" fill="url(#paint25_radial_3495_89906)"/>
<circle cx="88.8473" cy="71.9635" r="2.67249" fill="url(#paint26_linear_3495_89906)" fill-opacity="0.2"/>
<circle cx="96.2311" cy="70.903" r="2.67249" fill="#D9D9D9"/>
<circle cx="96.2311" cy="70.903" r="2.67249" fill="url(#paint27_radial_3495_89906)"/>
<circle cx="96.2311" cy="70.903" r="2.67249" fill="url(#paint28_linear_3495_89906)" fill-opacity="0.2"/>
<path d="M96.167 33.75L111.25 39.793L107.557 49.0101C107.433 49.3186 107.083 49.4685 106.774 49.3449L92.8089 43.7496C92.5003 43.626 92.3505 43.2757 92.4741 42.9672L96.167 33.75Z" fill="url(#paint29_linear_3495_89906)"/>
<path d="M111.25 39.793L96.167 33.75L96.1024 33.9113L101.792 41.1501L111.25 39.793Z" fill="url(#paint30_linear_3495_89906)"/>
<path d="M100.496 38.75C101.26 38.4231 102.025 39.0765 102.352 39.8404C103.115 39.5136 104.12 39.5687 104.446 40.3326C104.773 41.0965 104.419 41.9807 103.655 42.3076L101.442 43.2545C101.137 43.3853 100.783 43.2436 100.652 42.938L99.7051 40.725C99.3782 39.9611 99.7325 39.0768 100.496 38.75Z" fill="url(#paint31_linear_3495_89906)"/>
<circle cx="8.90625" cy="8.90625" r="8.90625" transform="matrix(-1 0 0 1 104 21.0742)" fill="url(#paint32_radial_3495_89906)"/>
<circle cx="8.90625" cy="8.90625" r="8.90625" transform="matrix(-1 0 0 1 104 21.0742)" fill="url(#paint33_radial_3495_89906)" fill-opacity="0.5"/>
<ellipse cx="1.09375" cy="1.25" rx="1.09375" ry="1.25" transform="matrix(-1 0 0 1 98.375 29.1992)" fill="url(#paint34_linear_3495_89906)"/>
<ellipse cx="1.09375" cy="1.25" rx="1.09375" ry="1.25" transform="matrix(-1 0 0 1 102.125 29.1992)" fill="url(#paint35_linear_3495_89906)"/>
<path d="M97.0601 56.6008C85.6295 61.8419 76.2214 54.8086 71.8145 52.6367L71.2217 55.6535C81.2173 64.2688 93.8032 64.3839 97.0601 62.021C99.6256 60.1598 98.0775 57.5656 97.0601 56.6008Z" fill="url(#paint36_linear_3495_89906)"/>
<defs>
<filter id="filter0_i_3495_89906" x="84.4688" y="13.2617" width="12.4209" height="8.125" filterUnits="userSpaceOnUse" color-interpolation-filters="sRGB">
<feFlood flood-opacity="0" result="BackgroundImageFix"/>
<feBlend mode="normal" in="SourceGraphic" in2="BackgroundImageFix" result="shape"/>
<feColorMatrix in="SourceAlpha" type="matrix" values="0 0 0 0 0 0 0 0 0 0 0 0 0 0 0 0 0 0 127 0" result="hardAlpha"/>
<feOffset dy="1.25"/>
<feGaussianBlur stdDeviation="1.92188"/>
<feComposite in2="hardAlpha" operator="arithmetic" k2="-1" k3="1"/>
<feColorMatrix type="matrix" values="0 0 0 0 1 0 0 0 0 0.75 0 0 0 0 0 0 0 0 1 0"/>
<feBlend mode="normal" in2="shape" result="effect1_innerShadow_3495_89906"/>
</filter>
<filter id="filter1_i_3495_89906" x="44.9365" y="56.0742" width="51.875" height="26.5625" filterUnits="userSpaceOnUse" color-interpolation-filters="sRGB">
<feFlood flood-opacity="0" result="BackgroundImageFix"/>
<feBlend mode="normal" in="SourceGraphic" in2="BackgroundImageFix" result="shape"/>
<feColorMatrix in="SourceAlpha" type="matrix" values="0 0 0 0 0 0 0 0 0 0 0 0 0 0 0 0 0 0 127 0" result="hardAlpha"/>
<feOffset dy="1.25"/>
<feGaussianBlur stdDeviation="3.1875"/>
<feComposite in2="hardAlpha" operator="arithmetic" k2="-1" k3="1"/>
<feColorMatrix type="matrix" values="0 0 0 0 1 0 0 0 0 0.909611 0 0 0 0 0.639855 0 0 0 1 0"/>
<feBlend mode="normal" in2="shape" result="effect1_innerShadow_3495_89906"/>
</filter>
<filter id="filter2_i_3495_89906" x="49" y="13.2617" width="38.75" height="55.3125" filterUnits="userSpaceOnUse" color-interpolation-filters="sRGB">
<feFlood flood-opacity="0" result="BackgroundImageFix"/>
<feBlend mode="normal" in="SourceGraphic" in2="BackgroundImageFix" result="shape"/>
<feColorMatrix in="SourceAlpha" type="matrix" values="0 0 0 0 0 0 0 0 0 0 0 0 0 0 0 0 0 0 127 0" result="hardAlpha"/>
<feOffset dy="1.25"/>
<feGaussianBlur stdDeviation="1.96875"/>
<feComposite in2="hardAlpha" operator="arithmetic" k2="-1" k3="1"/>
<feColorMatrix type="matrix" values="0 0 0 0 1 0 0 0 0 0.696779 0 0 0 0 0.271428 0 0 0 1 0"/>
<feBlend mode="normal" in2="shape" result="effect1_innerShadow_3495_89906"/>
</filter>
<filter id="filter3_d_3495_89906" x="70.3752" y="9.88598" width="26.314" height="26.314" filterUnits="userSpaceOnUse" color-interpolation-filters="sRGB">
<feFlood flood-opacity="0" result="BackgroundImageFix"/>
<feColorMatrix in="SourceAlpha" type="matrix" values="0 0 0 0 0 0 0 0 0 0 0 0 0 0 0 0 0 0 127 0" result="hardAlpha"/>
<feOffset/>
<feGaussianBlur stdDeviation="6.25037"/>
<feComposite in2="hardAlpha" operator="out"/>
<feColorMatrix type="matrix" values="0 0 0 0 1 0 0 0 0 0.968627 0 0 0 0 0.670588 0 0 0 1 0"/>
<feBlend mode="normal" in2="BackgroundImageFix" result="effect1_dropShadow_3495_89906"/>
<feBlend mode="normal" in="SourceGraphic" in2="effect1_dropShadow_3495_89906" result="shape"/>
</filter>
<filter id="filter4_i_3495_89906" x="76.6523" y="1" width="13.0273" height="5.44922" filterUnits="userSpaceOnUse" color-interpolation-filters="sRGB">
<feFlood flood-opacity="0" result="BackgroundImageFix"/>
<feBlend mode="normal" in="SourceGraphic" in2="BackgroundImageFix" result="shape"/>
<feColorMatrix in="SourceAlpha" type="matrix" values="0 0 0 0 0 0 0 0 0 0 0 0 0 0 0 0 0 0 127 0" result="hardAlpha"/>
<feOffset/>
<feGaussianBlur stdDeviation="0.425"/>
<feComposite in2="hardAlpha" operator="arithmetic" k2="-1" k3="1"/>
<feColorMatrix type="matrix" values="0 0 0 0 1 0 0 0 0 0.847059 0 0 0 0 0.4 0 0 0 1 0"/>
<feBlend mode="normal" in2="shape" result="effect1_innerShadow_3495_89906"/>
</filter>
<linearGradient id="paint0_linear_3495_89906" x1="66.7194" y1="92.9492" x2="64.2274" y2="99.7039" gradientUnits="userSpaceOnUse">
<stop stop-color="#724100"/>
<stop offset="1" stop-color="#D89400"/>
</linearGradient>
<linearGradient id="paint1_linear_3495_89906" x1="79.5343" y1="92.9473" x2="76.8619" y2="99.5376" gradientUnits="userSpaceOnUse">
<stop stop-color="#724100"/>
<stop offset="1" stop-color="#D89400"/>
</linearGradient>
<linearGradient id="paint2_linear_3495_89906" x1="87.3598" y1="92.9492" x2="84.6369" y2="99.4896" gradientUnits="userSpaceOnUse">
<stop stop-color="#724100"/>
<stop offset="1" stop-color="#D89400"/>
</linearGradient>
<linearGradient id="paint3_linear_3495_89906" x1="56.6567" y1="92.9492" x2="54.3129" y2="99.8242" gradientUnits="userSpaceOnUse">
<stop stop-color="#724100"/>
<stop offset="1" stop-color="#D89400"/>
</linearGradient>
<linearGradient id="paint4_linear_3495_89906" x1="48.375" y1="61.0742" x2="38.5313" y2="75.4492" gradientUnits="userSpaceOnUse">
<stop stop-color="#A26400"/>
<stop offset="1" stop-color="#573100"/>
</linearGradient>
<linearGradient id="paint5_linear_3495_89906" x1="44" y1="72.0117" x2="40.25" y2="81.3867" gradientUnits="userSpaceOnUse">
<stop stop-color="#442700"/>
<stop offset="1" stop-color="#2A1800"/>
</linearGradient>
<linearGradient id="paint6_linear_3495_89906" x1="70.8745" y1="56.0742" x2="70.8745" y2="81.3867" gradientUnits="userSpaceOnUse">
<stop stop-color="#FFCC00"/>
<stop offset="0.5" stop-color="#FFBF00"/>
<stop offset="1" stop-color="#FFAE00"/>
</linearGradient>
<linearGradient id="paint7_linear_3495_89906" x1="94.6249" y1="8.55269" x2="74.4679" y2="16.687" gradientUnits="userSpaceOnUse">
<stop stop-color="#FFE391"/>
<stop offset="1" stop-color="#FFBF00"/>
</linearGradient>
<linearGradient id="paint8_linear_3495_89906" x1="94.3798" y1="62.051" x2="96.7216" y2="68.2635" gradientUnits="userSpaceOnUse">
<stop stop-color="#FFD24D" stop-opacity="0"/>
<stop offset="1" stop-color="#FFD24D"/>
</linearGradient>
<linearGradient id="paint9_linear_3495_89906" x1="63.8438" y1="9.04297" x2="73.8438" y2="15.293" gradientUnits="userSpaceOnUse">
<stop stop-color="#FFE187"/>
<stop offset="1" stop-color="#FFBF00"/>
</linearGradient>
<linearGradient id="paint10_linear_3495_89906" x1="67.1248" y1="9.66797" x2="74.3123" y2="23.7305" gradientUnits="userSpaceOnUse">
<stop stop-color="#FFBF00"/>
<stop offset="1" stop-color="#FFAE00"/>
</linearGradient>
<linearGradient id="paint11_linear_3495_89906" x1="67.124" y1="9.66797" x2="74.3115" y2="23.7305" gradientUnits="userSpaceOnUse">
<stop stop-color="#FFBF00"/>
<stop offset="1" stop-color="#FFAE00"/>
</linearGradient>
<linearGradient id="paint12_linear_3495_89906" x1="68.5312" y1="50.4492" x2="70.875" y2="53.8867" gradientUnits="userSpaceOnUse">
<stop stop-color="#FF5A16"/>
<stop offset="1" stop-color="#DF3F11"/>
</linearGradient>
<linearGradient id="paint13_linear_3495_89906" x1="0.46875" y1="-1.875" x2="2.03125" y2="2.8125" gradientUnits="userSpaceOnUse">
<stop stop-color="#995A03"/>
<stop offset="1" stop-color="#331E01"/>
</linearGradient>
<linearGradient id="paint14_linear_3495_89906" x1="0.46875" y1="-1.875" x2="2.03125" y2="2.8125" gradientUnits="userSpaceOnUse">
<stop stop-color="#995A03"/>
<stop offset="1" stop-color="#331E01"/>
</linearGradient>
<linearGradient id="paint15_linear_3495_89906" x1="83.375" y1="23.5742" x2="80.875" y2="27.6367" gradientUnits="userSpaceOnUse">
<stop stop-color="#251601"/>
<stop offset="1" stop-color="#5F3802"/>
</linearGradient>
<radialGradient id="paint16_radial_3495_89906" cx="0" cy="0" r="1" gradientUnits="userSpaceOnUse" gradientTransform="translate(58.6245 59.4998) rotate(-85.5488) scale(20.9382 16.7123)">
<stop stop-color="#44B5FD"/>
<stop offset="1" stop-color="#44B5FD" stop-opacity="0"/>
</radialGradient>
<linearGradient id="paint17_linear_3495_89906" x1="60.4281" y1="54.8129" x2="52.2401" y2="35.2067" gradientUnits="userSpaceOnUse">
<stop stop-color="#FFE59F" stop-opacity="0"/>
<stop offset="1" stop-color="#FFE59F"/>
</linearGradient>
<linearGradient id="paint18_linear_3495_89906" x1="63.2494" y1="52.8749" x2="67.7494" y2="61.6249" gradientUnits="userSpaceOnUse">
<stop stop-color="#91C9EC"/>
<stop offset="1" stop-color="#9ED9FE"/>
</linearGradient>
<linearGradient id="paint19_linear_3495_89906" x1="53.2042" y1="31.7871" x2="53.2042" y2="42.4003" gradientUnits="userSpaceOnUse">
<stop stop-color="#AEDBF8"/>
<stop offset="1" stop-color="#7BC3F1"/>
</linearGradient>
<linearGradient id="paint20_linear_3495_89906" x1="50.2853" y1="41.3418" x2="50.2853" y2="52.4569" gradientUnits="userSpaceOnUse">
<stop stop-color="#AEDBF8"/>
<stop offset="1" stop-color="#7BC3F1"/>
</linearGradient>
<linearGradient id="paint21_linear_3495_89906" x1="76.3119" y1="60.6764" x2="91.0396" y2="78.6283" gradientUnits="userSpaceOnUse">
<stop stop-color="white"/>
<stop offset="1" stop-color="#FFE59F"/>
</linearGradient>
<linearGradient id="paint22_linear_3495_89906" x1="94.1248" y1="63.125" x2="104.75" y2="69.875" gradientUnits="userSpaceOnUse">
<stop stop-color="white"/>
<stop offset="1" stop-color="#9AD4F9"/>
</linearGradient>
<linearGradient id="paint23_linear_3495_89906" x1="90.2498" y1="61" x2="89.7498" y2="71.25" gradientUnits="userSpaceOnUse">
<stop stop-color="#103546"/>
<stop offset="1" stop-color="#A3D3EA"/>
</linearGradient>
<linearGradient id="paint24_linear_3495_89906" x1="93.6101" y1="61.2103" x2="93.4287" y2="70.4202" gradientUnits="userSpaceOnUse">
<stop stop-color="#103546"/>
<stop offset="1" stop-color="#A3D3EA"/>
</linearGradient>
<radialGradient id="paint25_radial_3495_89906" cx="0" cy="0" r="1" gradientUnits="userSpaceOnUse" gradientTransform="translate(89.7501 73.2499) rotate(-110.376) scale(4.66704)">
<stop stop-color="#3DB3FF"/>
<stop offset="1" stop-color="#AEDBF8"/>
</radialGradient>
<linearGradient id="paint26_linear_3495_89906" x1="89.116" y1="73.4358" x2="87.866" y2="69.6858" gradientUnits="userSpaceOnUse">
<stop stop-color="#FFE59F" stop-opacity="0"/>
<stop offset="1" stop-color="#FFE59F"/>
</linearGradient>
<radialGradient id="paint27_radial_3495_89906" cx="0" cy="0" r="1" gradientUnits="userSpaceOnUse" gradientTransform="translate(97.1339 72.1893) rotate(-110.376) scale(4.66704)">
<stop stop-color="#3DB3FF"/>
<stop offset="1" stop-color="#AEDBF8"/>
</radialGradient>
<linearGradient id="paint28_linear_3495_89906" x1="96.4998" y1="72.3752" x2="95.2498" y2="68.6252" gradientUnits="userSpaceOnUse">
<stop stop-color="#FFE59F" stop-opacity="0"/>
<stop offset="1" stop-color="#FFE59F"/>
</linearGradient>
<linearGradient id="paint29_linear_3495_89906" x1="101.66" y1="48.6697" x2="90.7502" y2="19" gradientUnits="userSpaceOnUse">
<stop stop-color="#EDEDED"/>
<stop offset="1" stop-color="#FFE59F"/>
</linearGradient>
<linearGradient id="paint30_linear_3495_89906" x1="101.75" y1="31" x2="114.776" y2="39.8262" gradientUnits="userSpaceOnUse">
<stop stop-color="#A9D7E9"/>
<stop offset="1" stop-color="#FFE59F"/>
</linearGradient>
<linearGradient id="paint31_linear_3495_89906" x1="101.188" y1="38.454" x2="105" y2="55.001" gradientUnits="userSpaceOnUse">
<stop stop-color="#FF8560"/>
<stop offset="1" stop-color="#6F1802"/>
</linearGradient>
<radialGradient id="paint32_radial_3495_89906" cx="0" cy="0" r="1" gradientUnits="userSpaceOnUse" gradientTransform="translate(6.80023 5.625) rotate(62.2892) scale(17.4728)">
<stop stop-color="#AD6601"/>
<stop offset="1" stop-color="#E8A20D"/>
</radialGradient>
<radialGradient id="paint33_radial_3495_89906" cx="0" cy="0" r="1" gradientUnits="userSpaceOnUse" gradientTransform="translate(4.6875 1.25) rotate(70.821) scale(7.60987)">
<stop stop-color="#FFDA6C"/>
<stop offset="1" stop-color="#FFDA6C" stop-opacity="0"/>
</radialGradient>
<linearGradient id="paint34_linear_3495_89906" x1="1.17523" y1="-0.625" x2="3.36273" y2="4.84375" gradientUnits="userSpaceOnUse">
<stop stop-color="#654007"/>
<stop offset="1" stop-color="#492E05"/>
</linearGradient>
<linearGradient id="paint35_linear_3495_89906" x1="1.17523" y1="-0.625" x2="3.36273" y2="4.84375" gradientUnits="userSpaceOnUse">
<stop stop-color="#654007"/>
<stop offset="1" stop-color="#492E05"/>
</linearGradient>
<linearGradient id="paint36_linear_3495_89906" x1="72.7502" y1="52.7505" x2="103.125" y2="66.2505" gradientUnits="userSpaceOnUse">
<stop stop-color="#FFE59F"/>
<stop offset="1" stop-color="#91D3FE"/>
</linearGradient>
</defs>
</svg>
