<svg width="150" height="100" viewBox="0 0 150 100" fill="none" xmlns="http://www.w3.org/2000/svg">
<path d="M65.876 75.5625L56.501 76.9687L61.9069 93.6875L67.2194 93.6875L65.876 75.5625Z" fill="#F0AA00"/>
<path d="M67.0419 91.1875H61.1001L61.8859 93.6875H67.2197L67.0419 91.1875Z" fill="url(#paint0_linear_3495_89731)"/>
<path d="M82.2188 75.9941L73.7813 75.9944L74.4063 93.3745L79.5625 93.3745L82.2188 75.9941Z" fill="#F0AA00"/>
<path d="M79.8975 91.1875H74.3299L74.4065 93.6875H79.5627L79.8975 91.1875Z" fill="#7B7B7B"/>
<path d="M79.8975 91.1875H74.3299L74.4065 93.6875H79.5627L79.8975 91.1875Z" fill="url(#paint1_linear_3495_89731)"/>
<path d="M87.7072 75.5594L78.6272 75.5562L82.8459 93.6664L87.7072 93.6664L87.7072 75.5594Z" fill="#FFBE2B"/>
<path d="M87.71 91.1875H82.2665L82.6895 93.6875L87.71 93.6692V91.1875Z" fill="#A6A6A6"/>
<path d="M87.71 91.1875H82.2665L82.6895 93.6875L87.71 93.6692V91.1875Z" fill="url(#paint2_linear_3495_89731)"/>
<path d="M61.9062 77.4375L52.6875 76.1875L50.6562 93.6875L56.4375 93.6875L61.9062 77.4375Z" fill="#FFC135"/>
<path d="M57.2793 91.1875H50.9322L50.6567 93.6875H56.4364L57.2793 91.1875Z" fill="url(#paint3_linear_3495_89731)"/>
<path d="M71.3878 51.2361C71.588 50.1393 71.3912 49.0071 70.8326 48.0423L70.3074 47.1351C69.6926 46.0732 68.5583 45.4194 67.3312 45.4196L67.2935 45.4196C66.7811 45.4197 66.3368 45.774 66.2226 46.2735C65.9568 47.4366 66.3401 48.6524 67.225 49.4527L67.916 50.0776C68.8603 50.9316 70.1155 51.3574 71.3845 51.2541L71.3878 51.2361Z" fill="url(#paint4_linear_3495_89731)"/>
<path d="M40.8125 69.9375C40.5 67.0208 42 60.4687 47.375 57.5938" stroke="url(#paint5_linear_3495_89731)" stroke-width="1.25" stroke-linecap="round"/>
<rect width="1.875" height="3.75" transform="matrix(-1 0 0 1 85.5 6.1875)" fill="#331E01"/>
<rect width="1.875" height="3.75" transform="matrix(-1 0 0 1 80.1875 6.1875)" fill="#331E01"/>
<path d="M38 72.9062C38 74.5458 38.9375 76.1875 41.4375 77.2812C42.6875 75.4062 43.9375 74.5458 43.9375 72.9062C43.9375 71.2667 42.6083 69.9375 40.9688 69.9375C39.3292 69.9375 38 71.2667 38 72.9062Z" fill="url(#paint6_linear_3495_89731)"/>
<g filter="url(#filter0_i_3495_89731)">
<path d="M95.7973 10.9663L93.1562 16.5L83.4688 9.625H94.9513C95.6407 9.625 96.0943 10.3441 95.7973 10.9663Z" fill="#FFAE00"/>
</g>
<g filter="url(#filter1_i_3495_89731)">
<path d="M56.75 52.4385C56.698 52.4378 56.6459 52.4375 56.5938 52.4375C49.6039 52.4375 43.9375 58.1039 43.9375 65.0938C43.9375 72.0836 49.6039 77.75 56.5938 77.75C56.6459 77.75 56.698 77.7487 56.75 77.748V77.75H83.3125V77.748C90.2303 77.6643 95.8125 72.0314 95.8125 65.0938C95.8125 58.1561 90.2304 52.5222 83.3125 52.4385V52.4375H56.75V52.4385Z" fill="url(#paint7_linear_3495_89731)"/>
</g>
<path d="M74.0938 9.625C71.4375 13.147 70.8125 14.5867 70.8125 21.5693L70.8223 21.5635C70.8165 21.7177 70.8125 21.8727 70.8125 22.0283C70.8125 22.0795 70.8138 22.1306 70.8145 22.1816H70.8125V49.8975L81.4375 56.1758L89.25 65.0576H95.8125V24.7764C96.0165 23.8924 96.125 22.9728 96.125 22.0283C96.1249 15.2293 90.5428 9.708 83.625 9.62598V9.625H74.0938Z" fill="url(#paint8_linear_3495_89731)"/>
<path d="M74.0938 9.625C71.4375 13.147 70.8125 14.5867 70.8125 21.5693L70.8223 21.5635C70.8165 21.7177 70.8125 21.8727 70.8125 22.0283C70.8125 22.0795 70.8138 22.1306 70.8145 22.1816H70.8125V49.8975L81.4375 56.1758L89.25 65.0576H95.8125V24.7764C96.0165 23.8924 96.125 22.9728 96.125 22.0283C96.1249 15.2293 90.5428 9.708 83.625 9.62598V9.625H74.0938Z" fill="url(#paint9_linear_3495_89731)"/>
<path d="M64.9675 11.2587L71.125 16.8125L74.25 9.625H65.5954C64.7367 9.625 64.3298 10.6835 64.9675 11.2587Z" fill="url(#paint10_linear_3495_89731)"/>
<mask id="mask0_3495_89731" style="mask-type:alpha" maskUnits="userSpaceOnUse" x="64" y="9" width="11" height="8">
<path d="M64.9675 11.2587L71.125 16.8125L74.25 9.625H65.5954C64.7367 9.625 64.3298 10.6835 64.9675 11.2587Z" fill="#D9D9D9"/>
</mask>
<g mask="url(#mask0_3495_89731)">
<path d="M72.5918 11.5L70.9739 16.8125L64.1543 11.5H72.5918Z" fill="url(#paint11_linear_3495_89731)"/>
</g>
<g filter="url(#filter2_i_3495_89731)">
<mask id="mask1_3495_89731" style="mask-type:alpha" maskUnits="userSpaceOnUse" x="43" y="9" width="54" height="69">
<path d="M74.0928 9.625C71.4367 13.1468 70.8115 14.5868 70.8115 21.5693L70.8213 21.5635C70.8155 21.7177 70.8115 21.8727 70.8115 22.0283C70.8115 22.0795 70.8128 22.1306 70.8135 22.1816H70.8125L70.8115 49.8975L75.1104 52.4375H56.749V52.4385C56.6972 52.4379 56.6448 52.4375 56.5928 52.4375C49.6031 52.4378 43.9365 58.1041 43.9365 65.0938C43.9365 72.0834 49.6031 77.7497 56.5928 77.75C56.6448 77.75 56.6972 77.7487 56.749 77.748V77.75H83.3115V77.748C90.2294 77.6643 95.8115 72.0314 95.8115 65.0938C95.8115 65.0817 95.8116 65.0697 95.8115 65.0576H95.8125V24.7754C96.0164 23.8917 96.124 22.9724 96.124 22.0283C96.124 15.2293 90.5418 9.708 83.624 9.62598V9.625H74.0928Z" fill="url(#paint12_linear_3495_89731)"/>
</mask>
<g mask="url(#mask1_3495_89731)">
<path d="M67.375 16.9688C67.375 22.6642 69.2868 26.9688 75.5 26.9688C84.4062 27.75 85.9688 22.6642 85.9688 16.9688C85.9688 11.2733 83.9007 8.0625 77.6875 8.0625C71.4743 8.0625 67.375 11.2733 67.375 16.9688Z" fill="#AD6500"/>
<path d="M84.0938 36.0308C82.2188 35.7184 81.9062 36.4995 80.3438 38.062C79.4062 39.312 79.0938 39.9259 79.0938 41.0308C79.0938 41.3433 79.25 44.3525 82.375 44.4683C85.75 44.5933 86.75 42.5139 86.75 40.562C86.75 37.9058 85.9688 36.3431 84.0938 36.0308Z" fill="#AD6500"/>
<path d="M66.9355 45.7139C62.2059 45.7138 54.0928 44.4692 53.7803 53.5312C53.649 57.3426 56.5928 56.1879 58.7803 59.7812C61.5927 63.6874 64.1954 63.6875 66.9355 63.6875C71.665 63.6875 75.4988 59.6641 75.499 54.7012C75.499 49.738 71.6651 45.7139 66.9355 45.7139Z" fill="#AD6500"/>
<path d="M48 55.875C48 57.0831 49.0493 57.5938 50.3438 57.5938C51.6382 57.5938 52.8438 57.0831 52.8438 55.875C52.8438 54 51.7944 53.5312 50.5 53.5312C49.2056 53.5312 48 54.6669 48 55.875Z" fill="#AD6500"/>
<path d="M53.3125 60.6226C53.3125 61.459 53.9218 61.8125 54.6734 61.8125C55.425 61.8125 56.125 61.459 56.125 60.6226C56.125 59.3245 55.5157 59 54.7641 59C54.0125 59 53.3125 59.7862 53.3125 60.6226Z" fill="#AD6500"/>
<path d="M78.4688 29.4688C78.4688 30.6769 78.9375 32.2812 81.2812 32.4375C82.5757 32.4375 83 31.3019 83 30.0938C83 28.8856 81.9507 27.75 80.6562 27.75C79.3618 27.75 78.4688 28.2606 78.4688 29.4688Z" fill="#AD6500"/>
<path d="M60.8125 33.5312C60.8125 37.2419 66.0454 40.5625 70.1875 40.5625C74.3297 40.5625 75.1876 37.4375 75.9688 33.5312C76.7499 29.625 72.4547 26.8125 68.3125 26.8125C64.1704 26.8125 60.8125 29.8206 60.8125 33.5312Z" fill="#AD6500"/>
</g>
</g>
<path d="M70.8125 49.625C82.9375 56.875 92.5833 55.9792 95.8125 53.6875V60.5625C95.8125 64.4375 92.6875 68.7917 90.8125 70.0938C87.0625 63.6875 70.8125 52.9717 70.8125 51.1875V49.625Z" fill="url(#paint13_linear_3495_89731)"/>
<path d="M90.8125 70.0938C85.9688 63.5312 78.4688 57.9062 70.5 51.6562" stroke="#DF3F11" stroke-width="0.3125"/>
<path d="M69.5625 49.625L68.3125 47.9062" stroke="url(#paint14_linear_3495_89731)" stroke-width="0.625" stroke-linecap="round"/>
<circle cx="1.71875" cy="1.71875" r="1.71875" transform="matrix(-1 0 0 1 72.375 49.3125)" fill="url(#paint15_linear_3495_89731)"/>
<circle cx="1.5625" cy="1.5625" r="1.5625" transform="matrix(-1 0 0 1 80.8125 4)" fill="url(#paint16_linear_3495_89731)"/>
<circle cx="1.5625" cy="1.5625" r="1.5625" transform="matrix(-1 0 0 1 86.125 4)" fill="url(#paint17_linear_3495_89731)"/>
<g filter="url(#filter3_i_3495_89731)">
<path d="M106.22 34.1293C105.789 34.7966 105.642 35.608 105.811 36.3841L105.858 36.6007C106.097 37.701 107.015 38.535 108.131 38.6831C108.449 38.7253 108.768 38.5878 108.952 38.3256C109.585 37.4276 109.58 36.2282 108.942 35.3349L108.824 35.1699C108.32 34.465 107.524 34.0256 106.659 33.9743L106.333 33.9549L106.22 34.1293Z" fill="url(#paint18_linear_3495_89731)"/>
</g>
<g filter="url(#filter4_i_3495_89731)">
<path d="M101.77 31.9264C101.212 32.4921 100.903 33.2565 100.91 34.0507L100.912 34.2724C100.923 35.3984 101.651 36.4016 102.714 36.7738C103.017 36.8798 103.357 36.8101 103.591 36.591C104.393 35.8405 104.633 34.6653 104.189 33.6606L104.107 33.4752C103.757 32.6824 103.068 32.0903 102.231 31.864L101.916 31.7786L101.77 31.9264Z" fill="url(#paint19_linear_3495_89731)"/>
</g>
<g filter="url(#filter5_i_3495_89731)">
<path d="M104.48 32.6614C105.183 33.0314 106.004 33.1064 106.762 32.8697L106.974 32.8037C108.049 32.4681 108.798 31.4808 108.847 30.3558C108.861 30.0354 108.696 29.7299 108.419 29.5692C107.468 29.0187 106.274 29.129 105.441 29.8441L105.287 29.9761C104.629 30.5404 104.262 31.3716 104.287 32.2378L104.297 32.5646L104.48 32.6614Z" fill="url(#paint20_linear_3495_89731)"/>
</g>
<g filter="url(#filter6_i_3495_89731)">
<path d="M109.862 35.2219C107.186 33.3722 98.0748 28.6889 89.0121 32.7513" stroke="url(#paint21_linear_3495_89731)" stroke-width="0.9375" stroke-linecap="round"/>
</g>
<circle cx="8.90625" cy="8.90625" r="8.90625" transform="matrix(-1 0 0 1 103 17.4375)" fill="url(#paint22_radial_3495_89731)"/>
<circle cx="8.90625" cy="8.90625" r="8.90625" transform="matrix(-1 0 0 1 103 17.4375)" fill="url(#paint23_radial_3495_89731)" fill-opacity="0.5"/>
<ellipse cx="1.09375" cy="1.25" rx="1.09375" ry="1.25" transform="matrix(-1 0 0 1 97.375 25.5625)" fill="url(#paint24_linear_3495_89731)"/>
<ellipse cx="1.09375" cy="1.25" rx="1.09375" ry="1.25" transform="matrix(-1 0 0 1 101.125 25.5625)" fill="url(#paint25_linear_3495_89731)"/>
<path d="M79.25 20.9328C79.25 22.1435 80.2294 23.125 81.4375 23.125C82.6456 23.125 83.625 22.1435 83.625 20.9328L83.625 19.6297C83.625 18.419 82.6456 17.4375 81.4375 17.4375C80.2294 17.4375 79.25 18.419 79.25 19.6297L79.25 20.9328Z" fill="#231400"/>
<path d="M79.25 21.0171C79.25 22.1813 80.2294 23.125 81.4375 23.125C82.6456 23.125 83.625 22.1813 83.625 21.0171L83.625 20.9375L79.25 20.9375L79.25 21.0171Z" fill="url(#paint26_linear_3495_89731)"/>
<g filter="url(#filter7_d_3495_89731)">
<path d="M82.5322 20.0625C82.8947 20.0625 83.1885 19.7687 83.1885 19.4062C83.1885 19.0438 82.8947 18.75 82.5322 18.75C82.1698 18.75 81.876 19.0438 81.876 19.4063C81.876 19.7687 82.1698 20.0625 82.5322 20.0625Z" fill="white"/>
</g>
<defs>
<filter id="filter0_i_3495_89731" x="83.4688" y="9.625" width="12.4209" height="8.125" filterUnits="userSpaceOnUse" color-interpolation-filters="sRGB">
<feFlood flood-opacity="0" result="BackgroundImageFix"/>
<feBlend mode="normal" in="SourceGraphic" in2="BackgroundImageFix" result="shape"/>
<feColorMatrix in="SourceAlpha" type="matrix" values="0 0 0 0 0 0 0 0 0 0 0 0 0 0 0 0 0 0 127 0" result="hardAlpha"/>
<feOffset dy="1.25"/>
<feGaussianBlur stdDeviation="1.92188"/>
<feComposite in2="hardAlpha" operator="arithmetic" k2="-1" k3="1"/>
<feColorMatrix type="matrix" values="0 0 0 0 1 0 0 0 0 0.75 0 0 0 0 0 0 0 0 1 0"/>
<feBlend mode="normal" in2="shape" result="effect1_innerShadow_3495_89731"/>
</filter>
<filter id="filter1_i_3495_89731" x="43.9375" y="52.4375" width="51.875" height="26.5625" filterUnits="userSpaceOnUse" color-interpolation-filters="sRGB">
<feFlood flood-opacity="0" result="BackgroundImageFix"/>
<feBlend mode="normal" in="SourceGraphic" in2="BackgroundImageFix" result="shape"/>
<feColorMatrix in="SourceAlpha" type="matrix" values="0 0 0 0 0 0 0 0 0 0 0 0 0 0 0 0 0 0 127 0" result="hardAlpha"/>
<feOffset dy="1.25"/>
<feGaussianBlur stdDeviation="3.1875"/>
<feComposite in2="hardAlpha" operator="arithmetic" k2="-1" k3="1"/>
<feColorMatrix type="matrix" values="0 0 0 0 1 0 0 0 0 0.909611 0 0 0 0 0.639855 0 0 0 1 0"/>
<feBlend mode="normal" in2="shape" result="effect1_innerShadow_3495_89731"/>
</filter>
<filter id="filter2_i_3495_89731" x="48" y="9.625" width="38.75" height="55.3125" filterUnits="userSpaceOnUse" color-interpolation-filters="sRGB">
<feFlood flood-opacity="0" result="BackgroundImageFix"/>
<feBlend mode="normal" in="SourceGraphic" in2="BackgroundImageFix" result="shape"/>
<feColorMatrix in="SourceAlpha" type="matrix" values="0 0 0 0 0 0 0 0 0 0 0 0 0 0 0 0 0 0 127 0" result="hardAlpha"/>
<feOffset dy="1.25"/>
<feGaussianBlur stdDeviation="1.96875"/>
<feComposite in2="hardAlpha" operator="arithmetic" k2="-1" k3="1"/>
<feColorMatrix type="matrix" values="0 0 0 0 1 0 0 0 0 0.696779 0 0 0 0 0.271428 0 0 0 1 0"/>
<feBlend mode="normal" in2="shape" result="effect1_innerShadow_3495_89731"/>
</filter>
<filter id="filter3_i_3495_89731" x="105.743" y="33.6426" width="3.68066" height="5.04883" filterUnits="userSpaceOnUse" color-interpolation-filters="sRGB">
<feFlood flood-opacity="0" result="BackgroundImageFix"/>
<feBlend mode="normal" in="SourceGraphic" in2="BackgroundImageFix" result="shape"/>
<feColorMatrix in="SourceAlpha" type="matrix" values="0 0 0 0 0 0 0 0 0 0 0 0 0 0 0 0 0 0 127 0" result="hardAlpha"/>
<feOffset dy="-0.3125"/>
<feGaussianBlur stdDeviation="1.09375"/>
<feComposite in2="hardAlpha" operator="arithmetic" k2="-1" k3="1"/>
<feColorMatrix type="matrix" values="0 0 0 0 0.574963 0 0 0 0 0.627028 0 0 0 0 0.0438995 0 0 0 1 0"/>
<feBlend mode="normal" in2="shape" result="effect1_innerShadow_3495_89731"/>
</filter>
<filter id="filter4_i_3495_89731" x="100.91" y="31.1543" width="3.49902" height="5.66797" filterUnits="userSpaceOnUse" color-interpolation-filters="sRGB">
<feFlood flood-opacity="0" result="BackgroundImageFix"/>
<feBlend mode="normal" in="SourceGraphic" in2="BackgroundImageFix" result="shape"/>
<feColorMatrix in="SourceAlpha" type="matrix" values="0 0 0 0 0 0 0 0 0 0 0 0 0 0 0 0 0 0 127 0" result="hardAlpha"/>
<feOffset dy="-0.625"/>
<feGaussianBlur stdDeviation="1.09375"/>
<feComposite in2="hardAlpha" operator="arithmetic" k2="-1" k3="1"/>
<feColorMatrix type="matrix" values="0 0 0 0 0.574963 0 0 0 0 0.627028 0 0 0 0 0.0438995 0 0 0 1 0"/>
<feBlend mode="normal" in2="shape" result="effect1_innerShadow_3495_89731"/>
</filter>
<filter id="filter5_i_3495_89731" x="104.286" y="29.2207" width="4.5625" height="4.09766" filterUnits="userSpaceOnUse" color-interpolation-filters="sRGB">
<feFlood flood-opacity="0" result="BackgroundImageFix"/>
<feBlend mode="normal" in="SourceGraphic" in2="BackgroundImageFix" result="shape"/>
<feColorMatrix in="SourceAlpha" type="matrix" values="0 0 0 0 0 0 0 0 0 0 0 0 0 0 0 0 0 0 127 0" result="hardAlpha"/>
<feOffset dy="0.3125"/>
<feGaussianBlur stdDeviation="1.09375"/>
<feComposite in2="hardAlpha" operator="arithmetic" k2="-1" k3="1"/>
<feColorMatrix type="matrix" values="0 0 0 0 0.574963 0 0 0 0 0.627028 0 0 0 0 0.0438995 0 0 0 1 0"/>
<feBlend mode="normal" in2="shape" result="effect1_innerShadow_3495_89731"/>
</filter>
<filter id="filter6_i_3495_89731" x="88.543" y="30.6719" width="21.7881" height="5.01953" filterUnits="userSpaceOnUse" color-interpolation-filters="sRGB">
<feFlood flood-opacity="0" result="BackgroundImageFix"/>
<feBlend mode="normal" in="SourceGraphic" in2="BackgroundImageFix" result="shape"/>
<feColorMatrix in="SourceAlpha" type="matrix" values="0 0 0 0 0 0 0 0 0 0 0 0 0 0 0 0 0 0 127 0" result="hardAlpha"/>
<feOffset/>
<feGaussianBlur stdDeviation="0.1875"/>
<feComposite in2="hardAlpha" operator="arithmetic" k2="-1" k3="1"/>
<feColorMatrix type="matrix" values="0 0 0 0 0.574963 0 0 0 0 0.627028 0 0 0 0 0.0438995 0 0 0 1 0"/>
<feBlend mode="normal" in2="shape" result="effect1_innerShadow_3495_89731"/>
</filter>
<filter id="filter7_d_3495_89731" x="69.3752" y="6.24926" width="26.314" height="26.314" filterUnits="userSpaceOnUse" color-interpolation-filters="sRGB">
<feFlood flood-opacity="0" result="BackgroundImageFix"/>
<feColorMatrix in="SourceAlpha" type="matrix" values="0 0 0 0 0 0 0 0 0 0 0 0 0 0 0 0 0 0 127 0" result="hardAlpha"/>
<feOffset/>
<feGaussianBlur stdDeviation="6.25037"/>
<feComposite in2="hardAlpha" operator="out"/>
<feColorMatrix type="matrix" values="0 0 0 0 1 0 0 0 0 0.968627 0 0 0 0 0.670588 0 0 0 1 0"/>
<feBlend mode="normal" in2="BackgroundImageFix" result="effect1_dropShadow_3495_89731"/>
<feBlend mode="normal" in="SourceGraphic" in2="effect1_dropShadow_3495_89731" result="shape"/>
</filter>
<linearGradient id="paint0_linear_3495_89731" x1="65.7203" y1="89.3125" x2="63.2284" y2="96.0671" gradientUnits="userSpaceOnUse">
<stop stop-color="#724100"/>
<stop offset="1" stop-color="#D89400"/>
</linearGradient>
<linearGradient id="paint1_linear_3495_89731" x1="78.5333" y1="89.3125" x2="75.8609" y2="95.9028" gradientUnits="userSpaceOnUse">
<stop stop-color="#724100"/>
<stop offset="1" stop-color="#D89400"/>
</linearGradient>
<linearGradient id="paint2_linear_3495_89731" x1="86.3608" y1="89.3125" x2="83.6379" y2="95.8529" gradientUnits="userSpaceOnUse">
<stop stop-color="#724100"/>
<stop offset="1" stop-color="#D89400"/>
</linearGradient>
<linearGradient id="paint3_linear_3495_89731" x1="55.6567" y1="89.3125" x2="53.3129" y2="96.1875" gradientUnits="userSpaceOnUse">
<stop stop-color="#724100"/>
<stop offset="1" stop-color="#D89400"/>
</linearGradient>
<linearGradient id="paint4_linear_3495_89731" x1="67.5245" y1="40.7365" x2="70.0516" y2="50.1081" gradientUnits="userSpaceOnUse">
<stop stop-color="#FF6F15"/>
<stop offset="1" stop-color="#FF4916"/>
</linearGradient>
<linearGradient id="paint5_linear_3495_89731" x1="47.375" y1="57.4375" x2="37.5313" y2="71.8125" gradientUnits="userSpaceOnUse">
<stop stop-color="#A26400"/>
<stop offset="1" stop-color="#573100"/>
</linearGradient>
<linearGradient id="paint6_linear_3495_89731" x1="43" y1="68.375" x2="39.25" y2="77.75" gradientUnits="userSpaceOnUse">
<stop stop-color="#442700"/>
<stop offset="1" stop-color="#2A1800"/>
</linearGradient>
<linearGradient id="paint7_linear_3495_89731" x1="69.875" y1="52.4375" x2="69.875" y2="77.75" gradientUnits="userSpaceOnUse">
<stop stop-color="#FFCC00"/>
<stop offset="0.5" stop-color="#FFBF00"/>
<stop offset="1" stop-color="#FFAE00"/>
</linearGradient>
<linearGradient id="paint8_linear_3495_89731" x1="93.625" y1="4.87801" x2="73.4235" y2="12.9648" gradientUnits="userSpaceOnUse">
<stop stop-color="#FFE391"/>
<stop offset="1" stop-color="#FFBF00"/>
</linearGradient>
<linearGradient id="paint9_linear_3495_89731" x1="93.3799" y1="58.8076" x2="95.7549" y2="65.0576" gradientUnits="userSpaceOnUse">
<stop stop-color="#FFD24D" stop-opacity="0"/>
<stop offset="1" stop-color="#FFD24D"/>
</linearGradient>
<linearGradient id="paint10_linear_3495_89731" x1="62.8438" y1="5.40625" x2="72.8438" y2="11.6563" gradientUnits="userSpaceOnUse">
<stop stop-color="#FFE187"/>
<stop offset="1" stop-color="#FFBF00"/>
</linearGradient>
<linearGradient id="paint11_linear_3495_89731" x1="66.1248" y1="6.03125" x2="73.3123" y2="20.0938" gradientUnits="userSpaceOnUse">
<stop stop-color="#FFBF00"/>
<stop offset="1" stop-color="#FFAE00"/>
</linearGradient>
<linearGradient id="paint12_linear_3495_89731" x1="66.124" y1="6.03125" x2="73.3115" y2="20.0938" gradientUnits="userSpaceOnUse">
<stop stop-color="#FFBF00"/>
<stop offset="1" stop-color="#FFAE00"/>
</linearGradient>
<linearGradient id="paint13_linear_3495_89731" x1="72.375" y1="49.625" x2="98.9375" y2="80.0937" gradientUnits="userSpaceOnUse">
<stop stop-color="#FF6F15"/>
<stop offset="1" stop-color="#FF3415"/>
</linearGradient>
<linearGradient id="paint14_linear_3495_89731" x1="67.5312" y1="46.8125" x2="69.875" y2="50.25" gradientUnits="userSpaceOnUse">
<stop stop-color="#FF5A16"/>
<stop offset="1" stop-color="#DF3F11"/>
</linearGradient>
<linearGradient id="paint15_linear_3495_89731" x1="0.625" y1="0.15625" x2="6.40625" y2="6.875" gradientUnits="userSpaceOnUse">
<stop stop-color="#FF6716"/>
<stop offset="1" stop-color="#FF4F16"/>
</linearGradient>
<linearGradient id="paint16_linear_3495_89731" x1="0.46875" y1="-1.875" x2="2.03125" y2="2.8125" gradientUnits="userSpaceOnUse">
<stop stop-color="#995A03"/>
<stop offset="1" stop-color="#331E01"/>
</linearGradient>
<linearGradient id="paint17_linear_3495_89731" x1="0.46875" y1="-1.875" x2="2.03125" y2="2.8125" gradientUnits="userSpaceOnUse">
<stop stop-color="#995A03"/>
<stop offset="1" stop-color="#331E01"/>
</linearGradient>
<linearGradient id="paint18_linear_3495_89731" x1="109.019" y1="40.1883" x2="104.054" y2="29.0145" gradientUnits="userSpaceOnUse">
<stop stop-color="#7E8907"/>
<stop offset="1" stop-color="#383E00"/>
</linearGradient>
<linearGradient id="paint19_linear_3495_89731" x1="103.075" y1="36.7794" x2="99.9017" y2="23.5096" gradientUnits="userSpaceOnUse">
<stop stop-color="#7E8907"/>
<stop offset="1" stop-color="#383E00"/>
</linearGradient>
<linearGradient id="paint20_linear_3495_89731" x1="110.268" y1="29.3387" x2="99.5767" y2="35.2709" gradientUnits="userSpaceOnUse">
<stop stop-color="#7E8907"/>
<stop offset="1" stop-color="#383E00"/>
</linearGradient>
<linearGradient id="paint21_linear_3495_89731" x1="112.918" y1="35.2513" x2="98.5433" y2="31.0325" gradientUnits="userSpaceOnUse">
<stop stop-color="#7E8907"/>
<stop offset="1" stop-color="#383E00"/>
</linearGradient>
<radialGradient id="paint22_radial_3495_89731" cx="0" cy="0" r="1" gradientUnits="userSpaceOnUse" gradientTransform="translate(6.80023 5.625) rotate(62.2892) scale(17.4728)">
<stop stop-color="#AD6601"/>
<stop offset="1" stop-color="#E8A20D"/>
</radialGradient>
<radialGradient id="paint23_radial_3495_89731" cx="0" cy="0" r="1" gradientUnits="userSpaceOnUse" gradientTransform="translate(4.6875 1.25) rotate(70.821) scale(7.60987)">
<stop stop-color="#FFDA6C"/>
<stop offset="1" stop-color="#FFDA6C" stop-opacity="0"/>
</radialGradient>
<linearGradient id="paint24_linear_3495_89731" x1="1.17523" y1="-0.625" x2="3.36273" y2="4.84375" gradientUnits="userSpaceOnUse">
<stop stop-color="#654007"/>
<stop offset="1" stop-color="#492E05"/>
</linearGradient>
<linearGradient id="paint25_linear_3495_89731" x1="1.17523" y1="-0.625" x2="3.36273" y2="4.84375" gradientUnits="userSpaceOnUse">
<stop stop-color="#654007"/>
<stop offset="1" stop-color="#492E05"/>
</linearGradient>
<linearGradient id="paint26_linear_3495_89731" x1="82.375" y1="19.9374" x2="79.875" y2="23.9999" gradientUnits="userSpaceOnUse">
<stop stop-color="#251601"/>
<stop offset="1" stop-color="#5F3802"/>
</linearGradient>
</defs>
</svg>
