<svg width="150" height="55" viewBox="0 0 150 55" fill="none" xmlns="http://www.w3.org/2000/svg">
<path d="M89.5593 34.4548C87.7178 36.8488 88.9148 45.9643 88.9148 45.9643C91.9533 45.9643 98.7373 45.9643 102.266 45.9643C109.283 45.9643 114.534 44.3756 114.972 37.6775C115.617 27.8253 109.283 22.3008 102.266 22.3008C95.2482 22.3008 89.5593 27.7423 89.5593 34.4548Z" fill="url(#paint0_radial_3495_89656)"/>
<path d="M89.5593 34.4548C87.7178 36.8488 88.9148 45.9643 88.9148 45.9643C91.9533 45.9643 98.7373 45.9643 102.266 45.9643C109.283 45.9643 114.534 44.3756 114.972 37.6775C115.617 27.8253 109.283 22.3008 102.266 22.3008C95.2482 22.3008 89.5593 27.7423 89.5593 34.4548Z" fill="url(#paint1_radial_3495_89656)" fill-opacity="0.2"/>
<path d="M90.8861 46.7005C91.0723 46.1073 90.6293 45.5039 90.0076 45.5039H76.2725C75.6105 45.5039 75.1648 46.1817 75.4272 46.7896L78.4478 53.7873C78.5934 54.1247 78.9257 54.3432 79.2932 54.3432H87.8108C88.213 54.3432 88.5688 54.082 88.6893 53.6982L90.8861 46.7005Z" fill="url(#paint2_linear_3495_89656)"/>
<path d="M90.8861 46.7005C91.0723 46.1073 90.6293 45.5039 90.0076 45.5039H76.2725C75.6105 45.5039 75.1648 46.1817 75.4272 46.7896L78.4478 53.7873C78.5934 54.1247 78.9257 54.3432 79.2932 54.3432H87.8108C88.213 54.3432 88.5688 54.082 88.6893 53.6982L90.8861 46.7005Z" fill="url(#paint3_radial_3495_89656)" fill-opacity="0.2"/>
<path d="M50.7018 46.4697C50.7275 45.9441 50.3083 45.5039 49.7821 45.5039H38.1606C37.4144 45.5039 36.9781 46.3451 37.408 46.9551L42.3402 53.9529C42.5127 54.1976 42.7934 54.3432 43.0928 54.3432H49.4396C49.9306 54.3432 50.3352 53.9579 50.3592 53.4674L50.7018 46.4697Z" fill="url(#paint4_linear_3495_89656)"/>
<path d="M50.7018 46.4697C50.7275 45.9441 50.3083 45.5039 49.7821 45.5039H38.1606C37.4144 45.5039 36.9781 46.3451 37.408 46.9551L42.3402 53.9529C42.5127 54.1976 42.7934 54.3432 43.0928 54.3432H49.4396C49.9306 54.3432 50.3352 53.9579 50.3592 53.4674L50.7018 46.4697Z" fill="url(#paint5_radial_3495_89656)" fill-opacity="0.2"/>
<mask id="path-4-inside-1_3495_89656" fill="white">
<path d="M92.6895 42.1906C92.6895 41.9872 92.5246 41.8223 92.3211 41.8223H37.0756C36.8722 41.8223 36.7073 41.9872 36.7073 42.1906V47.3468C36.7073 47.5502 36.8722 47.7151 37.0756 47.7151H92.3211C92.5246 47.7151 92.6895 47.5502 92.6895 47.3468V42.1906Z"/>
</mask>
<g filter="url(#filter0_i_3495_89656)">
<path d="M92.6895 42.1906C92.6895 41.9872 92.5246 41.8223 92.3211 41.8223H37.0756C36.8722 41.8223 36.7073 41.9872 36.7073 42.1906V47.3468C36.7073 47.5502 36.8722 47.7151 37.0756 47.7151H92.3211C92.5246 47.7151 92.6895 47.5502 92.6895 47.3468V42.1906Z" fill="url(#paint6_linear_3495_89656)"/>
<path d="M92.6895 42.1906C92.6895 41.9872 92.5246 41.8223 92.3211 41.8223H37.0756C36.8722 41.8223 36.7073 41.9872 36.7073 42.1906V47.3468C36.7073 47.5502 36.8722 47.7151 37.0756 47.7151H92.3211C92.5246 47.7151 92.6895 47.5502 92.6895 47.3468V42.1906Z" fill="url(#paint7_radial_3495_89656)" fill-opacity="0.4"/>
</g>
<path d="M92.6895 42.1906C92.6895 41.5803 92.1948 41.0857 91.5845 41.0857H37.8122C37.202 41.0857 36.7073 41.5803 36.7073 42.1906V42.5589C36.7073 42.5589 36.8722 42.5589 37.0756 42.5589H92.3211C92.5246 42.5589 92.6895 42.5589 92.6895 42.5589V42.1906ZM36.7073 47.7151H92.6895H36.7073ZM92.6895 47.7151V41.8223V47.7151ZM36.7073 41.8223V47.7151V41.8223Z" fill="#72470A" mask="url(#path-4-inside-1_3495_89656)"/>
<g filter="url(#filter1_i_3495_89656)">
<mask id="mask0_3495_89656" style="mask-type:alpha" maskUnits="userSpaceOnUse" x="37" y="13" width="55" height="29">
<path d="M37.4452 41.8214C37.4452 34.6908 40.2778 26.0107 45.3199 20.9685C50.3621 15.9264 57.2007 13.0938 64.3313 13.0938C71.462 13.0937 78.3006 15.9264 83.3427 20.9685C88.3849 26.0107 91.3096 34.6908 91.3096 41.8214H64.3313H37.4452Z" fill="#D9D9D9"/>
</mask>
<g mask="url(#mask0_3495_89656)">
<path d="M54.0181 28.5625L58.9902 42.466L45.4083 42.1897L54.0181 28.5625Z" fill="url(#paint8_linear_3495_89656)"/>
<path d="M78.2344 38.2296L77.3589 42.8334L91.7695 42.373L91.3092 37.1247L78.2344 30.127V38.2296Z" fill="url(#paint9_linear_3495_89656)"/>
<path d="M56.5964 22.7617H72.5255L78.6025 30.5882V38.1384V42.2818L58.8062 42.466L50.8409 35.0999L56.5964 22.7617Z" fill="url(#paint10_linear_3495_89656)"/>
<path d="M78.6024 30.5873L72.5254 22.7609L79.8915 16.5918L89.4674 21.0114L91.2168 37.493L78.6024 30.5873Z" fill="url(#paint11_linear_3495_89656)"/>
<path d="M35.6955 42.466L45.5008 42.2818L50.8412 35.0999L53.8344 29.0229L56.5967 22.7617L50.888 16.3164L40.4834 23.4062L35.6955 42.466Z" fill="url(#paint12_linear_3495_89656)"/>
<path d="M72.5255 22.7626L79.8916 16.5935L75.0116 11.9897L59.8191 10.8848L50.8877 16.3172L56.5964 22.7626H72.5255Z" fill="url(#paint13_linear_3495_89656)" stroke="url(#paint14_linear_3495_89656)" stroke-width="0.435"/>
</g>
</g>
<path d="M71.7539 13.8125L71.1289 18.6875L69.0039 18.4375L67.7539 17.4375L64.3789 15.5625L63.0039 11.9375L71.7539 13.8125Z" fill="#3B3B3B"/>
<path d="M71.7539 13.8125L71.1289 18.6875L69.0039 18.4375L67.7539 17.4375L64.3789 15.5625L63.0039 11.9375L71.7539 13.8125Z" fill="url(#paint15_linear_3495_89656)"/>
<path d="M34.8145 48.6505C35.3859 47.4229 36.708 47.3451 36.708 47.3451V43.0176C33.8674 43.364 33.5194 46.8873 34.4841 48.6839C34.5565 48.8188 34.7499 48.7893 34.8145 48.6505Z" fill="#FFE594"/>
<path d="M34.8145 48.6505C35.3859 47.4229 36.708 47.3451 36.708 47.3451V43.0176C33.8674 43.364 33.5194 46.8873 34.4841 48.6839C34.5565 48.8188 34.7499 48.7893 34.8145 48.6505Z" fill="url(#paint16_radial_3495_89656)" fill-opacity="0.4"/>
<g filter="url(#filter2_f_3495_89656)">
<circle cx="1.65737" cy="1.65737" r="1.65737" transform="matrix(-1 0 0 1 107.238 37.4023)" fill="#F4B10A"/>
</g>
<path d="M112.624 26.7218L92.3669 26.3535C90.9047 27.2893 89.92 28.8131 89.6674 30.5306L89.6046 30.9573L115.018 31.3256C114.959 29.68 114.225 28.1311 112.989 27.0432L112.624 26.7218Z" fill="#D9D9D9"/>
<path d="M112.624 26.7218L92.3669 26.3535C90.9047 27.2893 89.92 28.8131 89.6674 30.5306L89.6046 30.9573L115.018 31.3256C114.959 29.68 114.225 28.1311 112.989 27.0432L112.624 26.7218Z" fill="url(#paint17_linear_3495_89656)"/>
<path d="M115.018 31.6007L89.6046 31.2324" stroke="url(#paint18_linear_3495_89656)" stroke-width="0.552455"/>
<path d="M105.551 35.1523L108.608 37.0773C108.759 37.1725 108.765 37.3906 108.619 37.4934L105.551 39.6523" stroke="black" stroke-width="1.25" stroke-linecap="round"/>
<path d="M54.6289 12.1875L63.0039 11.9375L60.4999 8L57.3387 8.88073L54.6289 12.1875Z" fill="#D9D9D9"/>
<path d="M54.6289 12.1875L63.0039 11.9375L60.4999 8L57.3387 8.88073L54.6289 12.1875Z" fill="url(#paint19_linear_3495_89656)"/>
<path d="M71.7539 13.8125L77.7499 12.375L78.3936 12.866L77.4061 16.7455L71.1289 18.6875L71.7539 13.8125Z" fill="#D9D9D9"/>
<path d="M71.7539 13.8125L77.7499 12.375L78.3936 12.866L77.4061 16.7455L71.1289 18.6875L71.7539 13.8125Z" fill="url(#paint20_linear_3495_89656)"/>
<path d="M64.3789 15.5625L63.0039 11.9375L54.6289 12.1875L54.8789 14.8125L63.0039 18.5625L64.3789 15.5625Z" fill="#5F5F5F"/>
<path d="M64.3789 15.5625L63.0039 11.9375L54.6289 12.1875L54.8789 14.8125L63.0039 18.5625L64.3789 15.5625Z" fill="url(#paint21_linear_3495_89656)"/>
<path d="M67.7539 17.4375L63.0039 18.5625L64.3789 15.5625L67.7539 17.4375Z" fill="#2A2A2A"/>
<path d="M67.7539 17.4375L63.0039 18.5625L64.3789 15.5625L67.7539 17.4375Z" fill="url(#paint22_linear_3495_89656)"/>
<path d="M56.907 16.1889C56.7192 15.8159 56.5046 14.9692 57.1484 14.5664" stroke="url(#paint23_linear_3495_89656)" stroke-width="0.324499" stroke-linecap="round"/>
<path d="M56.3839 16.3144C56.3813 15.8968 56.2297 15.3777 55.6348 15.2695" stroke="url(#paint24_linear_3495_89656)" stroke-width="0.324499" stroke-linecap="round"/>
<path d="M63.004 11.9375L60.5 8L61.879 7.1875L64.254 6.9375L77.75 12.375L71.754 13.8125L63.004 11.9375Z" fill="url(#paint25_linear_3495_89656)"/>
<path d="M70.4727 4.1875L68.2236 1.34766L62.9883 7.3125L67.0195 9.8125L69.7695 8.25L70.4727 4.1875Z" fill="url(#paint26_linear_3495_89656)"/>
<path d="M74.5039 7.3125L73.3789 10.9375L69.7725 8.20605L70.4668 4.19531L72.9893 2.3457L74.5039 7.3125Z" fill="url(#paint27_linear_3495_89656)"/>
<path d="M69.7738 8.19922L73.3813 10.9375L68.7221 10.5469L67.0137 9.81324L69.7738 8.19922Z" fill="url(#paint28_linear_3495_89656)"/>
<path d="M72.9883 2.3457L70.4668 4.19727L68.2207 1.34766L69.1289 1L72.9883 2.3457Z" fill="#F4F4F4"/>
<path d="M72.9883 2.3457L70.4668 4.19727L68.2207 1.34766L69.1289 1L72.9883 2.3457Z" fill="url(#paint29_linear_3495_89656)"/>
<path d="M100.243 35.8105C100.243 35.392 100.584 34.4815 100.989 34.4997C101.28 34.5128 101.759 35.392 101.759 35.8105C101.759 36.2291 101.42 36.5684 101.001 36.5684C100.582 36.5684 100.243 36.2291 100.243 35.8105Z" fill="url(#paint30_linear_3495_89656)"/>
<path d="M99 37.0595C99 36.8572 99.1685 36.4171 99.3689 36.4259C99.5133 36.4322 99.75 36.8572 99.75 37.0595C99.75 37.2618 99.5821 37.4258 99.375 37.4258C99.1679 37.4258 99 37.2618 99 37.0595Z" fill="url(#paint31_linear_3495_89656)"/>
<defs>
<filter id="filter0_i_3495_89656" x="36.707" y="40.9015" width="55.9824" height="6.81334" filterUnits="userSpaceOnUse" color-interpolation-filters="sRGB">
<feFlood flood-opacity="0" result="BackgroundImageFix"/>
<feBlend mode="normal" in="SourceGraphic" in2="BackgroundImageFix" result="shape"/>
<feColorMatrix in="SourceAlpha" type="matrix" values="0 0 0 0 0 0 0 0 0 0 0 0 0 0 0 0 0 0 127 0" result="hardAlpha"/>
<feOffset dy="-0.920759"/>
<feGaussianBlur stdDeviation="1.01283"/>
<feComposite in2="hardAlpha" operator="arithmetic" k2="-1" k3="1"/>
<feColorMatrix type="matrix" values="0 0 0 0 0.75 0 0 0 0 1 0 0 0 0 0 0 0 0 0.25 0"/>
<feBlend mode="normal" in2="shape" result="effect1_innerShadow_3495_89656"/>
</filter>
<filter id="filter1_i_3495_89656" x="37.4453" y="13.0938" width="53.8643" height="34.0689" filterUnits="userSpaceOnUse" color-interpolation-filters="sRGB">
<feFlood flood-opacity="0" result="BackgroundImageFix"/>
<feBlend mode="normal" in="SourceGraphic" in2="BackgroundImageFix" result="shape"/>
<feColorMatrix in="SourceAlpha" type="matrix" values="0 0 0 0 0 0 0 0 0 0 0 0 0 0 0 0 0 0 127 0" result="hardAlpha"/>
<feOffset dy="5.3404"/>
<feGaussianBlur stdDeviation="3.46205"/>
<feComposite in2="hardAlpha" operator="arithmetic" k2="-1" k3="1"/>
<feColorMatrix type="matrix" values="0 0 0 0 1 0 0 0 0 0.8157 0 0 0 0 0.0785006 0 0 0 0.4 0"/>
<feBlend mode="normal" in2="shape" result="effect1_innerShadow_3495_89656"/>
</filter>
<filter id="filter2_f_3495_89656" x="100.609" y="34.0876" width="9.94392" height="9.94392" filterUnits="userSpaceOnUse" color-interpolation-filters="sRGB">
<feFlood flood-opacity="0" result="BackgroundImageFix"/>
<feBlend mode="normal" in="SourceGraphic" in2="BackgroundImageFix" result="shape"/>
<feGaussianBlur stdDeviation="1.65737" result="effect1_foregroundBlur_3495_89656"/>
</filter>
<radialGradient id="paint0_radial_3495_89656" cx="0" cy="0" r="1" gradientTransform="matrix(-14.8242 18.5993 17.3492 17.2286 108.343 25.7076)" gradientUnits="userSpaceOnUse">
<stop stop-color="#FFECB3"/>
<stop offset="1" stop-color="#FFE288"/>
</radialGradient>
<radialGradient id="paint1_radial_3495_89656" cx="0" cy="0" r="1" gradientTransform="matrix(-4.23549 8.37891 8.12511 5.27682 108.527 24.0502)" gradientUnits="userSpaceOnUse">
<stop stop-color="white"/>
<stop offset="1" stop-color="white" stop-opacity="0"/>
</radialGradient>
<linearGradient id="paint2_linear_3495_89656" x1="91.175" y1="47.2303" x2="79.7714" y2="56.0651" gradientUnits="userSpaceOnUse">
<stop stop-color="#FFECB3"/>
<stop offset="1" stop-color="#FFE28A"/>
</linearGradient>
<radialGradient id="paint3_radial_3495_89656" cx="0" cy="0" r="1" gradientTransform="matrix(-8.23811 -5.59361 -10.3715 9.68685 87.186 53.9289)" gradientUnits="userSpaceOnUse">
<stop stop-color="#FFAE00" stop-opacity="0"/>
<stop offset="1" stop-color="#FFAE00"/>
</radialGradient>
<linearGradient id="paint4_linear_3495_89656" x1="50.673" y1="47.2303" x2="39.7266" y2="54.6627" gradientUnits="userSpaceOnUse">
<stop stop-color="#FFECB3"/>
<stop offset="1" stop-color="#FFE28A"/>
</linearGradient>
<radialGradient id="paint5_radial_3495_89656" cx="0" cy="0" r="1" gradientTransform="matrix(-7.21992 -5.59361 -9.08962 9.68685 47.1771 53.9289)" gradientUnits="userSpaceOnUse">
<stop stop-color="#FFAE00" stop-opacity="0"/>
<stop offset="1" stop-color="#FFAE00"/>
</radialGradient>
<linearGradient id="paint6_linear_3495_89656" x1="78.5098" y1="38.1392" x2="41.3111" y2="95.5946" gradientUnits="userSpaceOnUse">
<stop stop-color="#472B03"/>
<stop offset="1" stop-color="#AD6907"/>
</linearGradient>
<radialGradient id="paint7_radial_3495_89656" cx="0" cy="0" r="1" gradientUnits="userSpaceOnUse" gradientTransform="translate(81.7324 44.7687) rotate(-180) scale(7.91853 1.95661)">
<stop stop-color="#1E1202"/>
<stop offset="1" stop-color="#1E1202" stop-opacity="0"/>
</radialGradient>
<linearGradient id="paint8_linear_3495_89656" x1="52.2219" y1="32.798" x2="43.2169" y2="65.5341" gradientUnits="userSpaceOnUse">
<stop stop-color="#724100"/>
<stop offset="1" stop-color="#D87A00"/>
</linearGradient>
<linearGradient id="paint9_linear_3495_89656" x1="79.2925" y1="29.1141" x2="95.2216" y2="52.9618" gradientUnits="userSpaceOnUse">
<stop stop-color="#724100"/>
<stop offset="1" stop-color="#D87A00"/>
</linearGradient>
<linearGradient id="paint10_linear_3495_89656" x1="75.0569" y1="18.9866" x2="37.3057" y2="87.0307" gradientUnits="userSpaceOnUse">
<stop stop-color="#995E0C"/>
<stop offset="1" stop-color="#D87A00"/>
</linearGradient>
<linearGradient id="paint11_linear_3495_89656" x1="86.5662" y1="21.8401" x2="61.0612" y2="37.5851" gradientUnits="userSpaceOnUse">
<stop stop-color="#BF8012"/>
<stop offset="1" stop-color="#8F5607"/>
</linearGradient>
<linearGradient id="paint12_linear_3495_89656" x1="58.0231" y1="21.3806" x2="37.9089" y2="29.1174" gradientUnits="userSpaceOnUse">
<stop stop-color="#BF8012"/>
<stop offset="1" stop-color="#8F5607"/>
</linearGradient>
<linearGradient id="paint13_linear_3495_89656" x1="82.746" y1="15.3044" x2="48.06" y2="44.1365" gradientUnits="userSpaceOnUse">
<stop stop-color="#A7B60F"/>
<stop offset="1" stop-color="#717B04"/>
</linearGradient>
<linearGradient id="paint14_linear_3495_89656" x1="67.7065" y1="11.0072" x2="71.19" y2="54.5811" gradientUnits="userSpaceOnUse">
<stop stop-color="#3E4400"/>
<stop offset="1" stop-color="#8B9709"/>
</linearGradient>
<linearGradient id="paint15_linear_3495_89656" x1="73.3563" y1="21.2595" x2="73.979" y2="11.079" gradientUnits="userSpaceOnUse">
<stop stop-color="#666058"/>
<stop offset="1" stop-color="#3D3730"/>
</linearGradient>
<radialGradient id="paint16_radial_3495_89656" cx="0" cy="0" r="1" gradientUnits="userSpaceOnUse" gradientTransform="translate(34.5903 48.1738) rotate(-65.6589) scale(4.24449 3.67856)">
<stop stop-color="#EAB50D"/>
<stop offset="1" stop-color="#FFD551" stop-opacity="0"/>
</radialGradient>
<linearGradient id="paint17_linear_3495_89656" x1="91.1872" y1="26.3535" x2="94.0809" y2="39.4649" gradientUnits="userSpaceOnUse">
<stop stop-color="#BDB710"/>
<stop offset="1" stop-color="#3C3F03"/>
</linearGradient>
<linearGradient id="paint18_linear_3495_89656" x1="114.833" y1="31.4166" x2="89.6046" y2="31.4166" gradientUnits="userSpaceOnUse">
<stop stop-color="#414102"/>
<stop offset="1" stop-color="#6B6B08"/>
</linearGradient>
<linearGradient id="paint19_linear_3495_89656" x1="59.8172" y1="13.9498" x2="60.2972" y2="8.58576" gradientUnits="userSpaceOnUse">
<stop stop-color="#EAE7E3"/>
<stop offset="1" stop-color="#99938D"/>
</linearGradient>
<linearGradient id="paint20_linear_3495_89656" x1="75.6294" y1="21.3442" x2="76.8668" y2="13.3857" gradientUnits="userSpaceOnUse">
<stop stop-color="#EAE7E3"/>
<stop offset="1" stop-color="#99938D"/>
</linearGradient>
<linearGradient id="paint21_linear_3495_89656" x1="66.1644" y1="21.0869" x2="65.5654" y2="12.8428" gradientUnits="userSpaceOnUse">
<stop stop-color="#99938D"/>
<stop offset="1" stop-color="#666058"/>
</linearGradient>
<linearGradient id="paint22_linear_3495_89656" x1="67.9999" y1="25.25" x2="71.2851" y2="18.4372" gradientUnits="userSpaceOnUse">
<stop stop-color="#666058"/>
<stop offset="1" stop-color="#3D3730"/>
</linearGradient>
<linearGradient id="paint23_linear_3495_89656" x1="57.068" y1="13.7272" x2="58.1268" y2="15.3241" gradientUnits="userSpaceOnUse">
<stop stop-color="#6E7B02"/>
<stop offset="1" stop-color="#909D0B"/>
</linearGradient>
<linearGradient id="paint24_linear_3495_89656" x1="55.1197" y1="14.196" x2="54.9041" y2="16.0999" gradientUnits="userSpaceOnUse">
<stop stop-color="#6E7B02"/>
<stop offset="1" stop-color="#909D0B"/>
</linearGradient>
<linearGradient id="paint25_linear_3495_89656" x1="69.5" y1="15.375" x2="71.25" y2="6" gradientUnits="userSpaceOnUse">
<stop stop-color="#F4F4F4"/>
<stop offset="1" stop-color="#85817B"/>
</linearGradient>
<linearGradient id="paint26_linear_3495_89656" x1="67.6249" y1="13.375" x2="69.7499" y2="2.875" gradientUnits="userSpaceOnUse">
<stop stop-color="#EAE7E3"/>
<stop offset="1" stop-color="#99938D"/>
</linearGradient>
<linearGradient id="paint27_linear_3495_89656" x1="75.3704" y1="14.2113" x2="73.3591" y2="3.85381" gradientUnits="userSpaceOnUse">
<stop stop-color="#99938D"/>
<stop offset="1" stop-color="#666058"/>
</linearGradient>
<linearGradient id="paint28_linear_3495_89656" x1="74.5473" y1="11.9809" x2="74.6885" y2="7.8403" gradientUnits="userSpaceOnUse">
<stop stop-color="#666058"/>
<stop offset="1" stop-color="#3D3730"/>
</linearGradient>
<linearGradient id="paint29_linear_3495_89656" x1="70.7081" y1="4.92392" x2="71.2102" y2="-3.15143" gradientUnits="userSpaceOnUse">
<stop stop-color="#F4F4F4"/>
<stop offset="1" stop-color="#85817B"/>
</linearGradient>
<linearGradient id="paint30_linear_3495_89656" x1="101.834" y1="36.5273" x2="99.8451" y2="34.4944" gradientUnits="userSpaceOnUse">
<stop stop-color="#B4DFFF"/>
<stop offset="1" stop-color="#83C9FF"/>
</linearGradient>
<linearGradient id="paint31_linear_3495_89656" x1="99.7871" y1="37.4059" x2="98.8267" y2="36.4007" gradientUnits="userSpaceOnUse">
<stop stop-color="#B4DFFF"/>
<stop offset="1" stop-color="#83C9FF"/>
</linearGradient>
</defs>
</svg>
