<svg width="24" height="24" viewBox="0 0 24 24" fill="none" xmlns="http://www.w3.org/2000/svg">
<path d="M0 12C0 5.37258 5.37258 0 12 0C18.6274 0 24 5.37258 24 12C24 18.6274 18.6274 24 12 24C5.37258 24 0 18.6274 0 12Z" fill="#EFEEED"/>
<path d="M17.25 10.8327H6.75M14.3333 6.16602V8.49935M9.66667 6.16602V8.49935M9.55 17.8327H14.45C15.4301 17.8327 15.9201 17.8327 16.2945 17.6419C16.6238 17.4742 16.8915 17.2064 17.0593 16.8772C17.25 16.5028 17.25 16.0128 17.25 15.0327V10.1327C17.25 9.15259 17.25 8.66254 17.0593 8.2882C16.8915 7.95892 16.6238 7.6912 16.2945 7.52342C15.9201 7.33268 15.4301 7.33268 14.45 7.33268H9.55C8.56991 7.33268 8.07986 7.33268 7.70552 7.52342C7.37623 7.6912 7.10852 7.95892 6.94074 8.2882C6.75 8.66254 6.75 9.15259 6.75 10.1327V15.0327C6.75 16.0128 6.75 16.5028 6.94074 16.8772C7.10852 17.2064 7.37623 17.4742 7.70552 17.6419C8.07986 17.8327 8.56991 17.8327 9.55 17.8327Z" stroke="#C6C5C3" stroke-width="1.25" stroke-linecap="round" stroke-linejoin="round"/>
</svg>
