<svg width="24" height="24" viewBox="0 0 24 24" fill="none" xmlns="http://www.w3.org/2000/svg">
<path d="M0 12C0 5.37258 5.37258 0 12 0C18.6274 0 24 5.37258 24 12C24 18.6274 18.6274 24 12 24C5.37258 24 0 18.6274 0 12Z" fill="#EFEEED"/>
<g clip-path="url(#clip0_2576_32177)">
<path d="M11.9998 8.49935V11.9993L14.3332 13.166M17.8332 11.9993C17.8332 15.221 15.2215 17.8327 11.9998 17.8327C8.77818 17.8327 6.1665 15.221 6.1665 11.9993C6.1665 8.77769 8.77818 6.16602 11.9998 6.16602C15.2215 6.16602 17.8332 8.77769 17.8332 11.9993Z" stroke="#C6C5C3" stroke-width="1.25" stroke-linecap="round" stroke-linejoin="round"/>
</g>
<defs>
<clipPath id="clip0_2576_32177">
<rect width="14" height="14" fill="white" transform="translate(5 5)"/>
</clipPath>
</defs>
</svg>
