<svg xmlns="http://www.w3.org/2000/svg" width="184" height="44" viewBox="0 0 184 44" fill="none">
  <path d="M151.817 37.0156H184V44H144.821V29.333H151.817V37.0156ZM184 33.5234H177.004V0H184V33.5234ZM171.757 17.8096H151.817V18.5078C151.817 19.6649 152.757 20.6034 153.916 20.6035H171.757V27.5869H153.916C148.893 27.5868 144.821 23.5221 144.821 18.5078V10.8252H164.761V8.03125H144.821V1.04785H171.757V17.8096Z" fill="currentColor"/>
  <path d="M41.627 44H34.6309V25.4922H29.0342V18.5078H34.6309V0H41.627V44ZM26.9355 12.9209C26.9354 24.1067 17.8516 33.1748 6.64648 33.1748H0V26.1904H6.64648C13.9877 26.1904 19.9393 20.2495 19.9395 12.9209V8.03125H0V1.04785H26.9355V12.9209Z" fill="currentColor"/>
  <path d="M139.574 44H132.578V0H139.574V44ZM124.882 12.9209C124.882 24.1066 115.798 33.1747 104.593 33.1748H97.9468V26.1904H104.593C111.934 26.1903 117.886 20.2494 117.886 12.9209V8.03125H97.9468V1.04785H124.882V12.9209Z" fill="currentColor"/>
  <path d="M90.6006 33.5234H73.46V44H66.4639V33.5234H49.3232V26.54H90.6006V33.5234ZM58.4189 7.5H80.8223V0H87.8184V14.3174C87.8184 19.3316 83.7464 23.3962 78.7236 23.3965H60.5176C55.4945 23.3965 51.4219 19.3318 51.4219 14.3174V0H58.4189V7.5ZM58.4268 14.4766C58.5083 15.5593 59.4121 16.4131 60.5176 16.4131H78.7236C79.8289 16.4128 80.733 15.5592 80.8145 14.4766H58.4268Z" fill="currentColor"/>
</svg>